{"glyphs":{"0":{"ha":621,"x_min":68,"x_max":550,"o":"m 68 892 q 118 1129 68 1051 q 308 1208 168 1208 q 499 1130 448 1208 q 550 892 550 1052 l 550 322 q 501 72 550 157 q 309 -14 452 -14 q 117 71 166 -14 q 68 322 68 156 l 68 892 m 410 900 q 336 1086 410 1074 q 303 1088 325 1088 q 261 1080 281 1088 q 225 1032 241 1072 q 208 901 208 992 l 208 319 q 208 313 208 316 q 248 121 208 152 q 297 104 269 104 q 338 107 326 104 q 366 121 351 109 q 410 314 410 155 q 410 319 410 317 l 410 900 z "},"1":{"ha":437,"x_min":32,"x_max":319,"o":"m 220 1194 l 319 1194 l 319 0 l 180 0 l 180 1006 q 115 963 157 978 q 32 947 73 947 l 32 1045 q 141 1092 90 1053 q 220 1194 193 1131 z "},"2":{"ha":605,"x_min":110,"x_max":533,"o":"m 110 795 q 168 1139 110 1075 q 214 1179 191 1164 q 337 1207 258 1207 q 533 877 533 1207 q 448 553 533 713 q 373 417 411 484 q 254 105 277 252 l 515 105 l 515 0 l 118 0 l 118 66 q 254 465 118 201 q 298 549 254 465 q 350 646 341 633 q 386 756 372 687 q 400 897 400 825 q 390 1013 400 968 q 365 1073 380 1059 q 329 1088 350 1088 q 296 1080 309 1088 q 247 878 247 1050 l 247 722 l 110 722 l 110 795 z "},"3":{"ha":616,"x_min":77,"x_max":547,"o":"m 423 629 q 547 329 547 572 q 489 71 547 155 q 306 -14 431 -14 q 129 67 180 -14 q 77 321 77 148 l 77 374 l 213 374 l 213 319 q 230 149 213 193 q 307 105 248 105 q 387 155 366 105 q 408 335 408 205 q 379 518 408 465 q 279 570 351 570 l 241 570 l 241 682 l 278 682 q 354 699 328 682 q 406 890 406 731 q 406 895 406 892 q 380 1050 406 1013 q 307 1088 353 1088 q 239 1045 260 1088 q 218 892 218 1003 l 218 864 l 80 864 l 80 895 q 132 1131 80 1055 q 307 1207 184 1207 q 487 1129 430 1207 q 544 895 544 1052 q 423 629 544 673 z "},"4":{"ha":605,"x_min":65,"x_max":573,"o":"m 330 1194 l 475 1194 l 475 336 l 573 336 l 573 225 l 475 225 l 475 -1 l 347 -1 l 347 225 l 65 225 l 65 323 l 330 1194 m 347 336 l 347 958 l 180 336 l 347 336 z "},"5":{"ha":605,"x_min":87,"x_max":503,"o":"m 227 789 q 345 836 251 836 q 347 836 345 836 q 429 804 393 836 q 503 453 503 738 q 492 178 503 232 q 471 94 481 125 q 295 -14 435 -14 q 87 214 87 -14 l 87 346 l 222 346 l 222 214 q 238 133 222 162 q 294 104 254 104 q 350 133 333 104 q 368 221 368 161 l 368 577 q 352 684 368 650 q 298 718 336 718 q 220 591 220 718 l 99 602 l 99 1194 l 474 1194 l 474 1067 l 227 1067 l 227 789 z "},"6":{"ha":605,"x_min":73,"x_max":557,"o":"m 212 689 q 360 747 256 747 q 510 665 464 747 q 557 386 557 583 l 557 313 q 507 68 557 150 q 319 -14 457 -14 q 101 129 151 -14 q 73 350 73 212 l 73 852 q 127 1126 73 1046 q 309 1207 182 1207 q 481 1134 437 1207 q 527 888 526 1060 l 527 847 l 392 847 l 392 869 q 372 1059 392 1030 q 300 1087 351 1087 q 231 1040 250 1087 q 212 856 212 994 l 212 689 m 419 389 q 399 576 419 524 q 323 628 380 628 q 252 612 283 628 q 212 579 221 595 l 212 327 q 235 157 212 208 q 319 107 257 107 q 380 123 359 107 q 419 298 419 154 l 419 389 z "},"7":{"ha":605,"x_min":77,"x_max":553,"o":"m 77 1194 l 553 1194 l 553 1093 q 513 974 551 1082 q 444 755 475 867 q 310 1 333 372 l 160 1 q 323 802 188 372 q 391 1009 365 943 q 416 1076 416 1076 l 77 1076 l 77 1194 z "},"8":{"ha":605,"x_min":70,"x_max":535,"o":"m 79 911 q 131 1138 79 1069 q 307 1207 183 1207 q 482 1138 431 1207 q 533 911 533 1069 q 436 642 533 708 q 508 521 481 608 q 535 335 535 434 l 535 288 q 479 58 532 130 q 306 -14 425 -14 q 130 58 186 -14 q 71 283 74 129 q 70 363 70 291 q 98 522 70 435 q 173 640 125 608 q 79 911 79 707 m 395 344 q 372 525 395 465 q 307 585 349 585 q 238 523 265 585 q 210 342 210 461 l 210 295 q 230 145 211 186 q 300 104 249 104 q 370 129 351 104 q 392 202 389 153 q 395 298 395 251 l 395 344 m 351 700 q 360 708 351 700 q 381 768 369 717 q 393 894 393 819 q 388 1007 393 969 q 371 1065 383 1046 q 345 1089 359 1084 q 302 1095 330 1095 q 256 1082 274 1095 q 218 896 218 1055 q 259 700 218 738 q 304 683 277 683 q 351 700 332 683 z "},"9":{"ha":605,"x_min":45,"x_max":503,"o":"m 45 848 q 65 1050 45 987 q 109 1143 84 1114 q 276 1207 163 1207 q 439 1148 389 1207 q 499 966 489 1089 q 503 844 503 917 l 503 363 q 435 45 503 121 q 275 -14 382 -14 q 119 61 168 -14 q 68 304 71 136 l 68 348 l 201 348 l 201 328 q 224 134 201 163 q 292 105 248 105 q 350 142 336 105 q 363 293 363 179 l 363 479 q 261 450 328 450 q 90 541 134 450 q 45 817 45 633 l 45 848 m 363 867 q 351 1020 363 981 q 320 1073 338 1060 q 274 1086 302 1086 q 201 1033 218 1086 q 184 867 184 979 l 184 798 q 202 611 184 661 q 283 562 220 562 q 363 600 347 562 l 363 867 z "}," ":{"ha":341,"x_min":0,"x_max":0,"o":""},"!":{"ha":358,"x_min":99,"x_max":258,"o":"m 99 1194 l 258 1194 l 208 268 l 151 268 l 99 1194 m 102 155 l 253 155 l 253 0 l 102 0 l 102 155 z "},"\"":{"ha":640,"x_min":149,"x_max":498,"o":"m 363 1194 l 498 1194 l 454 763 l 406 763 l 363 1194 m 149 1194 l 284 1194 l 240 763 l 193 763 l 149 1194 z "},"#":{"ha":873,"x_min":109,"x_max":750,"o":"m 615 1194 l 732 1194 l 652 793 l 750 793 l 750 703 l 634 703 l 597 515 l 713 515 l 713 425 l 579 425 l 495 0 l 379 0 l 462 425 l 324 425 l 241 0 l 125 0 l 209 425 l 109 425 l 109 515 l 227 515 l 264 703 l 146 703 l 146 793 l 282 793 l 361 1194 l 478 1194 l 397 793 l 534 793 l 615 1194 m 481 515 l 517 700 l 379 700 l 342 515 l 481 515 z "},"$":{"ha":597,"x_min":60,"x_max":505,"o":"m 505 240 q 336 -3 505 22 l 336 -167 l 252 -167 l 252 -5 q 118 69 168 5 q 68 288 68 133 l 68 364 l 203 364 l 203 288 q 283 112 203 112 q 346 140 327 112 q 366 239 366 169 q 264 450 366 350 q 229 483 256 457 q 192 518 201 509 q 60 797 60 644 q 241 1034 60 1013 l 241 1194 l 326 1194 l 326 1032 q 395 1007 366 1025 q 488 719 488 946 l 488 670 l 356 670 l 356 741 q 339 873 356 829 q 279 917 321 917 q 216 890 237 917 q 195 801 195 864 q 288 610 195 702 l 361 541 q 505 240 505 404 z "},"%":{"ha":1477,"x_min":106,"x_max":1371,"o":"m 922 1194 l 1038 1194 l 564 0 l 442 0 l 922 1194 m 401 972 q 383 1072 401 1045 q 316 1099 366 1099 q 249 1072 267 1099 q 231 972 231 1044 l 231 635 q 249 532 231 561 q 316 503 267 503 q 383 532 365 503 q 401 635 401 561 l 401 972 m 106 925 q 152 1146 106 1084 q 316 1208 198 1208 q 481 1146 435 1208 q 527 925 527 1084 l 527 684 q 480 458 527 523 q 316 394 433 394 q 153 458 199 394 q 106 684 106 523 l 106 925 m 950 517 q 996 739 950 676 q 1161 801 1042 801 q 1325 739 1279 801 q 1371 517 1371 676 l 1371 277 q 1324 51 1371 115 q 1161 -14 1278 -14 q 997 51 1044 -14 q 950 277 950 115 l 950 517 m 1246 564 q 1228 665 1246 637 q 1161 692 1211 692 q 1094 664 1112 692 q 1076 564 1076 637 l 1076 228 q 1094 124 1076 153 q 1161 96 1112 96 q 1227 124 1209 96 q 1246 228 1246 153 l 1246 564 z "},"&":{"ha":665,"x_min":45,"x_max":666,"o":"m 414 242 q 287 517 334 410 q 172 235 172 365 q 277 105 172 105 q 348 139 318 105 q 414 242 378 172 m 326 745 q 425 980 425 871 q 409 1078 425 1049 q 348 1107 393 1107 q 285 1083 303 1107 q 264 1034 267 1059 q 261 977 261 1008 q 326 745 261 916 m 666 468 q 538 248 609 399 q 650 0 646 10 l 526 0 q 473 117 515 26 q 383 20 433 54 q 246 -14 333 -14 q 102 53 159 -14 q 45 242 45 120 q 98 453 45 364 q 235 637 152 542 q 130 975 130 888 q 183 1149 130 1089 q 340 1208 237 1208 q 489 1149 444 1208 q 534 984 534 1090 q 489 797 534 878 q 372 627 443 717 q 481 376 411 532 q 606 566 540 486 l 666 468 z "},"'":{"ha":280,"x_min":76,"x_max":210,"o":"m 76 1194 l 210 1194 l 165 763 l 117 763 l 76 1194 z "},"(":{"ha":385,"x_min":89,"x_max":322,"o":"m 89 943 q 117 1141 89 1079 q 228 1221 145 1205 q 322 1228 264 1227 l 322 1123 q 258 1111 275 1123 q 235 1067 242 1099 q 228 939 228 1034 l 228 210 q 251 43 228 60 q 322 26 275 26 l 322 -79 q 163 -47 216 -79 q 89 212 90 -3 q 89 943 89 212 z "},")":{"ha":385,"x_min":62,"x_max":296,"o":"m 62 1123 l 62 1228 q 176 1218 134 1228 q 247 1175 218 1207 q 286 1086 275 1142 q 296 937 296 1031 l 296 212 q 286 62 296 118 q 247 -26 275 7 q 176 -69 218 -58 q 62 -79 134 -79 l 62 26 q 126 38 110 26 q 150 82 142 50 q 157 210 157 115 l 157 939 q 133 1106 157 1089 q 62 1123 110 1123 z "},"*":{"ha":651,"x_min":79,"x_max":572,"o":"m 271 1171 l 380 1171 l 363 986 l 517 1103 l 572 1008 l 397 923 l 572 833 l 517 738 l 363 859 l 380 670 l 271 670 l 292 862 l 138 743 l 83 838 l 253 923 l 79 1004 l 134 1098 l 291 984 l 271 1171 z "},"+":{"ha":548,"x_min":70,"x_max":477,"o":"m 222 771 l 323 771 l 323 604 l 477 604 l 477 509 l 323 509 l 323 340 l 222 340 l 222 509 l 70 509 l 70 604 l 222 604 l 222 771 z "},",":{"ha":313,"x_min":81,"x_max":256,"o":"m 81 159 l 256 159 l 256 6 l 187 -233 l 115 -233 l 165 0 l 81 0 l 81 159 z "},"-":{"ha":472,"x_min":60,"x_max":366,"o":"m 60 610 l 366 610 l 366 517 l 60 517 l 60 610 z "},".":{"ha":361,"x_min":116,"x_max":235,"o":"m 116 134 l 235 134 l 235 0 l 116 0 l 116 134 z "},"/":{"ha":531,"x_min":59,"x_max":481,"o":"m 357 1199 l 481 1199 l 182 0 l 59 0 l 357 1199 z "},":":{"ha":376,"x_min":103,"x_max":273,"o":"m 103 886 l 273 886 l 273 717 l 103 717 l 103 886 m 103 353 l 273 353 l 273 183 l 103 183 l 103 353 z "},";":{"ha":380,"x_min":90,"x_max":290,"o":"m 97 362 l 290 362 l 290 197 l 213 -70 l 129 -70 l 187 191 l 97 191 l 97 362 m 90 837 l 281 837 l 281 647 l 90 647 l 90 837 z "},"<":{"ha":495,"x_min":43,"x_max":434,"o":"m 43 583 l 434 842 l 434 692 l 140 512 l 434 324 l 434 179 l 43 440 l 43 583 z "},"=":{"ha":490,"x_min":57,"x_max":453,"o":"m 57 498 l 453 498 l 453 391 l 57 391 l 57 498 m 57 712 l 453 712 l 453 605 l 57 605 l 57 712 z "},">":{"ha":495,"x_min":59,"x_max":450,"o":"m 59 696 l 59 842 l 450 581 l 450 438 l 59 179 l 59 328 l 353 508 l 59 696 z "},"?":{"ha":542,"x_min":95,"x_max":486,"o":"m 95 929 q 109 1075 95 1037 q 175 1178 134 1147 q 290 1208 216 1208 q 444 1143 403 1208 q 478 1034 471 1097 q 486 889 486 970 q 480 754 486 807 q 423 575 468 636 q 283 487 378 514 l 283 335 l 162 335 l 162 549 q 244 583 221 567 q 281 610 268 600 q 304 638 294 621 q 344 808 340 701 q 345 941 345 856 q 337 1057 345 1026 q 290 1088 329 1088 q 242 1056 251 1088 q 233 920 233 1024 l 233 787 l 95 787 l 95 929 m 164 203 l 284 203 l 284 1 l 164 1 l 164 203 z "},"@":{"ha":954,"x_min":64,"x_max":892,"o":"m 730 351 q 795 587 795 351 q 785 817 795 749 q 761 922 774 884 q 509 1109 697 1109 q 172 565 172 1109 q 246 174 172 292 q 471 57 320 57 q 603 76 568 60 l 618 -18 q 468 -38 522 -38 q 167 114 270 -38 q 64 564 64 265 q 171 1035 64 862 q 518 1208 277 1208 q 871 861 801 1208 q 892 632 892 754 q 876 431 892 509 q 821 304 859 352 q 734 256 783 256 q 652 299 686 256 q 606 401 618 341 q 557 288 594 330 q 475 245 519 245 q 334 314 391 245 q 277 539 277 384 q 323 783 277 695 q 454 870 370 870 q 536 843 501 870 q 593 779 572 817 l 614 861 l 682 861 l 682 484 q 692 384 682 416 q 730 351 703 351 m 472 768 q 372 557 372 768 q 475 345 372 345 q 556 393 525 345 q 588 515 588 440 l 588 720 q 472 768 519 768 z "},"A":{"ha":637,"x_min":45,"x_max":592,"o":"m 226 1194 l 395 1194 l 592 0 l 460 0 l 426 228 l 210 228 l 178 0 l 45 0 l 226 1194 m 225 342 l 408 342 l 314 972 l 312 972 l 225 342 z "},"B":{"ha":646,"x_min":109,"x_max":577,"o":"m 109 1194 l 324 1194 q 508 1132 459 1194 q 557 925 556 1071 l 557 899 q 538 734 557 794 q 467 646 518 673 q 577 359 577 602 l 577 334 q 523 78 575 155 q 342 0 471 0 l 109 0 l 109 1194 m 436 380 q 417 541 436 495 q 342 587 398 587 l 249 587 l 249 113 l 335 113 q 415 160 395 113 q 436 338 436 207 l 436 380 m 418 923 q 418 927 418 925 q 377 1068 418 1046 q 318 1079 357 1079 l 249 1079 l 249 695 l 328 695 q 386 708 369 695 q 411 761 404 722 q 418 890 418 800 l 418 923 z "},"C":{"ha":623,"x_min":84,"x_max":550,"o":"m 84 849 q 106 1048 84 985 q 155 1142 129 1112 q 323 1208 213 1207 q 523 1072 478 1207 q 549 864 549 994 l 549 732 l 411 732 l 411 865 q 398 1020 411 979 q 368 1073 386 1060 q 323 1086 351 1086 q 246 1033 267 1086 q 224 865 224 980 l 224 349 q 244 159 224 213 q 318 105 263 105 q 392 159 374 105 q 411 349 411 214 l 411 481 l 550 481 l 550 351 q 499 74 550 163 q 320 -14 448 -14 q 138 77 193 -14 q 84 352 84 168 l 84 849 z "},"D":{"ha":644,"x_min":97,"x_max":562,"o":"m 97 1194 l 321 1194 q 510 1109 458 1194 q 562 869 562 1025 l 562 345 q 506 81 562 161 q 317 0 450 0 l 97 0 l 97 1194 m 422 873 q 395 1034 422 985 q 309 1082 369 1082 l 237 1082 l 237 113 l 309 113 q 372 130 349 113 q 422 323 422 165 l 422 873 z "},"E":{"ha":523,"x_min":98,"x_max":457,"o":"m 98 1194 l 454 1194 l 454 1077 l 238 1077 l 238 669 l 443 669 l 443 552 l 238 552 l 238 117 l 457 117 l 457 0 l 98 0 l 98 1194 z "},"F":{"ha":506,"x_min":97,"x_max":456,"o":"m 97 1194 l 456 1194 l 456 1076 l 237 1076 l 237 699 l 443 699 l 443 581 l 237 581 l 237 0 l 97 0 l 97 1194 z "},"G":{"ha":639,"x_min":84,"x_max":551,"o":"m 84 856 q 209 1183 84 1119 q 316 1208 258 1207 q 474 1161 425 1208 q 537 1039 523 1115 q 551 853 551 962 l 551 761 l 416 761 l 416 916 q 397 1047 416 1008 q 324 1086 378 1086 q 247 1037 269 1086 q 224 862 224 987 l 224 360 q 244 161 224 217 q 322 105 264 105 q 401 163 380 105 q 422 363 422 220 l 422 518 l 326 518 l 326 627 l 551 627 l 551 0 l 477 0 l 458 92 q 306 -12 418 -12 q 138 76 193 -12 q 84 355 84 164 l 84 856 z "},"H":{"ha":667,"x_min":98,"x_max":570,"o":"m 429 1194 l 570 1194 l 570 0 l 429 0 l 429 578 l 238 578 l 238 0 l 98 0 l 98 1194 l 238 1194 l 238 693 l 429 693 l 429 1194 z "},"I":{"ha":357,"x_min":109,"x_max":249,"o":"m 109 1194 l 249 1194 l 249 0 l 109 0 l 109 1194 z "},"J":{"ha":582,"x_min":56,"x_max":487,"o":"m 347 1194 l 487 1194 l 487 289 q 274 -14 487 -14 q 109 55 161 -14 q 56 264 56 123 l 56 420 l 193 420 l 193 273 q 201 161 193 182 q 217 129 209 141 q 271 105 233 105 q 325 131 309 105 q 343 193 340 156 q 347 283 347 230 l 347 1194 z "},"K":{"ha":606,"x_min":98,"x_max":607,"o":"m 450 1194 l 591 1194 l 369 604 l 607 0 l 460 0 l 239 571 l 239 0 l 98 0 l 98 1194 l 238 1194 l 238 625 l 450 1194 z "},"L":{"ha":483,"x_min":98,"x_max":458,"o":"m 98 1194 l 238 1194 l 238 116 l 458 116 l 458 0 l 98 0 l 98 1194 z "},"M":{"ha":879,"x_min":98,"x_max":781,"o":"m 606 1194 l 781 1194 l 781 0 l 656 0 l 656 479 l 668 925 l 506 2 l 379 2 l 210 925 l 222 479 l 222 0 l 98 0 l 98 1194 l 273 1194 l 444 212 l 606 1194 z "},"N":{"ha":688,"x_min":98,"x_max":590,"o":"m 466 1194 l 590 1194 l 590 0 l 487 0 l 219 819 l 227 518 l 227 0 l 98 0 l 98 1194 l 203 1194 l 480 381 l 466 726 l 466 1194 z "},"O":{"ha":640,"x_min":84,"x_max":556,"o":"m 84 869 q 157 1149 84 1073 q 325 1208 215 1208 q 530 1077 485 1208 q 556 869 556 999 l 556 343 q 504 72 556 157 q 321 -14 452 -14 q 137 72 191 -14 q 84 343 84 157 l 84 869 m 416 878 q 397 1040 416 992 q 323 1088 379 1088 q 246 1039 268 1088 q 224 878 224 990 l 224 342 q 243 156 224 205 q 320 107 262 107 q 397 157 378 107 q 416 342 416 207 l 416 878 z "},"P":{"ha":604,"x_min":98,"x_max":563,"o":"m 98 1194 l 338 1194 q 537 1062 496 1194 q 563 869 563 979 q 557 703 563 758 q 492 525 543 581 q 338 469 441 469 l 238 469 l 238 0 l 98 0 l 98 1194 m 422 857 q 403 1031 422 979 q 327 1082 384 1082 l 238 1082 l 238 585 l 323 585 q 403 637 383 585 q 422 833 422 690 l 422 857 z "},"Q":{"ha":640,"x_min":84,"x_max":556,"o":"m 416 878 q 397 1040 416 992 q 323 1088 379 1088 q 246 1039 268 1088 q 224 878 224 990 l 224 342 q 243 156 224 205 q 320 107 262 107 q 397 157 378 107 q 416 342 416 207 l 416 878 m 84 869 q 157 1149 84 1073 q 325 1208 215 1208 q 530 1077 485 1208 q 556 869 556 999 l 556 343 q 504 72 556 157 q 417 1 473 22 l 522 -119 l 452 -182 l 296 -13 q 135 76 185 -5 q 84 343 84 157 l 84 869 z "},"R":{"ha":646,"x_min":98,"x_max":573,"o":"m 98 1194 l 348 1194 q 501 1149 454 1194 q 557 1000 548 1105 q 562 864 562 956 q 537 710 562 772 q 452 629 513 648 q 520 582 497 622 q 553 456 543 543 q 562 199 562 370 q 573 0 562 28 l 433 0 q 422 402 422 22 q 397 551 422 530 q 321 572 372 572 l 238 576 l 238 0 l 98 0 l 98 1194 m 422 901 q 398 1061 422 1039 q 326 1082 373 1082 l 238 1082 l 238 680 l 328 680 q 387 695 368 680 q 414 755 406 711 q 422 893 422 799 l 422 901 z "},"S":{"ha":591,"x_min":72,"x_max":538,"o":"m 84 824 q 72 926 72 867 q 120 1132 72 1056 q 302 1208 168 1208 q 507 1042 476 1208 q 521 861 521 970 l 521 790 l 387 790 l 387 870 q 375 1023 387 984 q 347 1076 363 1063 q 302 1088 330 1088 q 229 1051 252 1088 q 207 941 207 1014 q 227 833 207 867 q 277 769 248 800 q 311 734 307 738 l 392 648 q 538 304 538 494 q 491 68 538 150 q 309 -14 443 -14 q 103 129 146 -14 q 78 338 78 209 q 78 345 78 342 l 78 461 l 214 461 l 214 340 q 233 158 214 209 q 304 106 252 106 q 375 131 355 106 q 398 204 395 155 q 401 315 401 254 q 292 549 401 439 l 214 627 q 84 824 109 734 z "},"T":{"ha":432,"x_min":19,"x_max":413,"o":"m 19 1194 l 413 1194 l 413 1077 l 290 1077 l 290 0 l 151 0 l 151 1077 l 19 1077 l 19 1194 z "},"U":{"ha":653,"x_min":91,"x_max":562,"o":"m 422 1194 l 562 1194 l 562 307 q 510 62 562 139 q 328 -14 457 -14 q 144 62 198 -14 q 91 307 91 139 l 91 1194 l 231 1194 l 231 310 q 241 167 231 191 q 262 130 251 144 q 328 104 281 104 q 397 133 374 104 q 421 218 419 161 q 422 309 422 274 l 422 1194 z "},"V":{"ha":625,"x_min":41,"x_max":584,"o":"m 452 1194 l 584 1194 l 403 0 l 239 0 l 41 1194 l 174 1194 l 254 688 l 321 244 l 324 244 l 383 688 l 452 1194 z "},"W":{"ha":922,"x_min":43,"x_max":879,"o":"m 750 1194 l 879 1194 l 738 0 l 599 0 l 471 881 l 336 0 l 201 0 l 43 1194 l 173 1194 l 275 279 l 410 1194 l 525 1194 l 664 279 l 750 1194 z "},"X":{"ha":552,"x_min":37,"x_max":516,"o":"m 385 1194 l 511 1194 l 345 581 l 516 0 l 394 0 l 273 412 l 165 0 l 37 0 l 208 632 l 43 1194 l 165 1194 l 282 796 l 385 1194 z "},"Y":{"ha":567,"x_min":14,"x_max":554,"o":"m 416 1194 l 554 1194 l 361 501 l 361 0 l 221 0 l 221 501 l 14 1194 l 150 1194 l 291 705 l 294 705 l 416 1194 z "},"Z":{"ha":518,"x_min":78,"x_max":469,"o":"m 100 1194 l 469 1194 l 469 1086 l 223 117 l 464 117 l 464 0 l 78 0 l 78 121 l 324 1077 l 100 1077 l 100 1194 z "},"[":{"ha":518,"x_min":147,"x_max":429,"o":"m 147 1194 l 429 1194 l 429 1086 l 287 1086 l 287 109 l 429 109 l 429 0 l 147 0 l 147 1194 z "},"\\":{"ha":589,"x_min":78,"x_max":479,"o":"m 78 1194 l 201 1194 l 479 0 l 357 0 l 78 1194 z "},"]":{"ha":518,"x_min":113,"x_max":394,"o":"m 113 1194 l 394 1194 l 394 0 l 113 0 l 113 109 l 255 109 l 255 1086 l 113 1086 l 113 1194 z "},"^":{"ha":699,"x_min":97,"x_max":601,"o":"m 260 1017 l 437 1017 l 601 391 l 465 391 l 349 909 l 234 391 l 97 391 l 260 1017 z "},"_":{"ha":507,"x_min":33,"x_max":474,"o":"m 33 -31 l 474 -31 l 474 -134 l 33 -134 l 33 -31 z "},"`":{"ha":441,"x_min":82,"x_max":334,"o":"m 82 334 l 82 477 l 334 345 l 334 270 l 82 334 z "},"a":{"ha":628,"x_min":85,"x_max":538,"o":"m 397 561 q 283 501 312 522 q 240 452 255 480 q 226 359 226 424 l 226 265 q 241 140 226 176 q 295 104 257 104 q 360 126 333 104 q 397 174 387 148 l 397 561 m 98 723 q 156 968 98 907 q 320 1029 214 1029 q 474 978 427 1029 q 533 812 522 926 q 538 692 538 764 l 538 0 l 398 0 l 398 88 q 351 21 387 52 q 260 -9 314 -9 q 85 261 87 -9 l 85 360 q 133 510 85 448 q 397 651 181 572 l 397 730 q 378 887 397 861 q 314 913 359 913 q 252 873 268 913 q 237 729 237 833 l 237 694 l 98 694 l 98 723 z "},"b":{"ha":635,"x_min":100,"x_max":552,"o":"m 100 1206 l 239 1206 l 239 937 q 287 1003 250 976 q 367 1029 324 1029 q 528 905 492 1029 q 552 705 552 825 l 552 314 q 500 52 552 125 q 377 -9 458 -9 q 239 85 278 -9 l 239 0 l 100 0 l 100 1206 m 412 724 q 403 850 412 825 q 382 895 394 876 q 339 913 370 913 q 293 906 309 913 q 239 723 239 882 l 239 311 q 257 152 239 200 q 328 104 276 104 q 396 152 380 104 q 412 314 412 199 l 412 724 z "},"c":{"ha":597,"x_min":84,"x_max":526,"o":"m 84 684 q 104 877 84 816 q 149 967 124 939 q 311 1029 204 1029 q 464 977 417 1029 q 521 819 510 924 q 526 713 525 774 l 526 642 l 389 642 l 389 732 q 381 856 389 827 q 316 910 354 899 q 234 844 250 910 q 224 728 224 802 l 224 295 q 240 149 224 191 q 301 107 256 107 q 368 137 347 107 q 389 292 389 166 l 389 391 l 526 391 l 526 325 q 471 52 526 117 q 303 -12 416 -12 q 95 178 125 -12 q 84 343 84 248 l 84 684 z "},"d":{"ha":636,"x_min":84,"x_max":537,"o":"m 397 1206 l 537 1206 l 537 0 l 397 0 l 397 85 q 257 -9 359 -9 q 92 176 117 -9 q 84 326 84 238 l 84 710 q 144 970 84 894 q 278 1029 191 1029 q 348 1007 316 1029 q 397 949 380 985 l 397 1206 m 398 712 q 380 866 398 819 q 311 913 362 913 q 242 866 260 913 q 224 709 224 819 l 224 298 q 263 117 224 149 q 309 104 279 104 q 358 121 339 104 q 398 304 398 155 l 398 712 z "},"e":{"ha":606,"x_min":84,"x_max":528,"o":"m 84 702 q 153 970 84 895 q 313 1029 208 1029 q 506 897 467 1029 q 528 696 528 823 l 528 504 l 224 504 l 224 301 q 245 136 224 169 q 311 104 266 104 q 372 142 357 104 q 388 224 387 180 q 389 299 389 269 l 389 381 l 525 381 l 525 338 q 502 111 525 176 q 433 17 479 45 q 319 -12 387 -12 q 210 5 251 -12 q 145 51 169 22 q 102 142 121 79 q 84 342 84 204 l 84 702 m 389 728 q 381 859 389 836 q 361 898 373 881 q 317 915 349 915 q 239 864 256 915 q 223 723 223 812 l 223 598 l 389 598 l 389 728 z "},"f":{"ha":422,"x_min":48,"x_max":394,"o":"m 136 1027 q 293 1211 136 1211 q 394 1197 351 1211 l 394 1100 q 335 1104 367 1104 q 289 1087 303 1104 q 275 1033 275 1069 l 275 978 l 394 978 l 394 876 l 275 876 l 275 0 l 136 0 l 136 876 l 48 876 l 48 978 l 136 978 l 136 1027 z "},"g":{"ha":630,"x_min":81,"x_max":534,"o":"m 271 1029 q 395 943 367 1029 l 395 1017 l 534 1017 l 534 95 q 397 -138 534 -87 q 288 -155 350 -155 q 81 -90 163 -155 l 131 5 q 288 -45 205 -45 q 369 -11 342 -45 q 395 82 395 24 l 395 179 q 345 113 377 132 q 260 95 311 95 q 121 181 159 95 q 83 412 83 267 l 83 704 q 271 1029 83 1029 m 395 724 q 377 868 395 823 q 314 913 359 913 q 251 888 269 913 q 228 823 233 862 q 222 726 222 785 l 222 409 q 242 253 222 301 q 316 205 262 205 q 361 222 345 205 q 395 410 395 255 l 395 724 z "},"h":{"ha":657,"x_min":100,"x_max":564,"o":"m 100 1206 l 239 1206 l 239 909 q 298 995 253 959 q 411 1030 342 1030 q 522 975 479 1030 q 564 811 564 920 l 564 0 l 425 0 l 425 800 q 342 910 425 910 q 268 878 296 910 q 239 783 239 846 l 239 0 l 100 0 l 100 1206 z "},"i":{"ha":341,"x_min":102,"x_max":241,"o":"m 102 1017 l 241 1017 l 241 0 l 102 0 l 102 1017 m 102 1238 l 241 1238 l 241 1111 l 102 1111 l 102 1238 z "},"j":{"ha":361,"x_min":50,"x_max":262,"o":"m 54 -38 q 74 -39 64 -39 q 90 -39 84 -39 q 123 7 123 -35 l 123 1017 l 262 1017 l 262 14 q 230 -102 262 -66 q 150 -142 197 -139 q 98 -143 135 -143 q 50 -136 61 -143 l 50 -38 l 54 -38 m 122 1238 l 262 1238 l 262 1111 l 122 1111 l 122 1238 z "},"k":{"ha":587,"x_min":100,"x_max":591,"o":"m 100 1206 l 239 1206 l 239 534 l 439 1017 l 579 1017 l 365 515 l 591 0 l 448 0 l 239 495 l 239 0 l 100 0 l 100 1206 z "},"l":{"ha":340,"x_min":100,"x_max":239,"o":"m 100 1206 l 239 1206 l 239 0 l 100 0 l 100 1206 z "},"m":{"ha":971,"x_min":100,"x_max":878,"o":"m 239 911 q 295 997 253 963 q 397 1030 337 1030 q 541 927 505 1030 q 611 1002 567 975 q 713 1030 656 1030 q 836 972 794 1030 q 878 803 878 915 l 878 0 l 739 0 l 739 807 q 658 910 739 910 q 559 816 566 910 l 559 0 l 419 0 l 419 808 q 339 910 419 910 q 264 879 290 910 q 239 792 239 847 l 239 0 l 100 0 l 100 1017 l 239 1017 l 239 911 z "},"n":{"ha":658,"x_min":100,"x_max":565,"o":"m 239 909 q 298 995 252 959 q 412 1030 344 1030 q 523 975 480 1030 q 565 811 565 920 l 565 0 l 426 0 l 426 810 q 402 888 426 862 q 336 913 378 913 q 267 884 294 913 q 239 797 239 855 l 239 0 l 100 0 l 100 1017 l 239 1017 l 239 909 z "},"o":{"ha":620,"x_min":84,"x_max":536,"o":"m 84 696 q 198 1005 84 944 q 305 1029 244 1029 q 509 901 465 1029 q 536 696 536 821 l 536 336 q 478 55 536 122 q 311 -12 420 -12 q 109 123 152 -12 q 84 336 84 201 l 84 696 m 396 724 q 355 901 396 869 q 311 913 338 913 q 240 864 256 913 q 224 724 224 814 l 224 298 q 266 117 224 148 q 308 104 283 104 q 311 104 309 104 q 380 154 364 104 q 396 298 396 205 l 396 724 z "},"p":{"ha":636,"x_min":100,"x_max":553,"o":"m 239 932 q 296 1003 258 979 q 378 1026 335 1026 q 532 900 500 1026 q 553 699 553 821 l 553 330 q 502 58 553 127 q 357 -12 450 -12 q 288 11 320 -12 q 239 68 256 34 l 239 -186 l 100 -186 l 100 1017 l 239 1017 l 239 932 m 413 723 q 413 736 413 730 q 413 747 413 742 q 413 758 413 753 q 413 766 413 762 q 413 774 413 770 q 404 850 413 826 q 386 888 395 876 q 335 913 368 913 q 282 900 301 913 q 239 723 239 871 l 239 306 q 257 151 239 198 q 327 104 276 104 q 396 152 378 104 q 413 311 413 199 l 413 723 z "},"q":{"ha":631,"x_min":84,"x_max":536,"o":"m 258 1026 q 397 938 359 1026 l 397 1017 l 536 1017 l 536 -186 l 397 -186 l 397 71 q 350 12 382 35 q 275 -12 317 -12 q 198 5 233 -12 q 108 119 132 37 q 84 326 84 201 l 84 699 q 134 964 84 890 q 258 1026 176 1025 m 396 712 q 377 866 396 820 q 307 913 358 913 q 240 866 256 913 q 223 708 223 820 l 223 296 q 242 139 223 174 q 298 104 261 104 q 354 118 335 104 q 396 295 396 148 l 396 712 z "},"r":{"ha":441,"x_min":100,"x_max":415,"o":"m 412 1029 q 415 941 415 1029 l 414 911 q 239 827 292 911 l 239 0 l 100 0 l 100 1017 l 239 1017 l 239 904 q 301 997 257 964 q 412 1029 346 1029 z "},"s":{"ha":546,"x_min":60,"x_max":505,"o":"m 505 233 q 288 -14 505 -14 q 123 56 178 -14 q 68 281 68 126 l 68 357 l 203 357 l 203 281 q 283 105 203 105 q 346 134 327 105 q 366 233 366 162 q 264 443 366 343 q 229 476 256 450 q 192 511 201 503 q 60 790 60 637 q 117 970 60 911 q 279 1029 174 1029 q 395 1000 350 1029 q 488 712 488 939 l 488 663 l 356 663 l 356 734 q 339 866 356 823 q 279 910 321 910 q 216 884 237 910 q 195 794 195 857 q 288 603 195 695 l 361 534 q 505 233 505 397 z "},"t":{"ha":415,"x_min":31,"x_max":374,"o":"m 124 1194 l 263 1194 l 263 1009 l 373 1009 l 373 906 l 263 906 l 263 163 q 281 114 263 124 q 374 104 300 104 l 374 -6 l 279 -6 q 153 29 182 -6 q 124 151 124 64 l 124 906 l 31 906 l 31 1009 l 124 1009 l 124 1194 z "},"u":{"ha":656,"x_min":93,"x_max":557,"o":"m 418 1017 l 557 1017 l 557 0 l 418 0 l 418 104 q 362 19 401 52 q 255 -14 322 -14 q 141 42 189 -14 q 93 212 93 97 l 93 1017 l 232 1017 l 232 227 q 319 107 232 107 q 393 141 368 107 q 418 231 418 175 l 418 1017 z "},"v":{"ha":511,"x_min":28,"x_max":482,"o":"m 353 1017 l 482 1017 l 336 0 l 173 0 l 28 1017 l 158 1017 l 231 444 l 255 217 l 268 217 l 288 445 l 353 1017 z "},"w":{"ha":787,"x_min":35,"x_max":751,"o":"m 637 1017 l 751 1017 l 629 0 l 500 0 l 398 796 l 276 0 l 153 0 l 35 1017 l 151 1017 l 205 451 l 220 256 l 227 256 l 252 452 l 333 1017 l 454 1017 l 535 467 l 563 256 l 568 256 l 585 467 l 637 1017 z "},"x":{"ha":504,"x_min":18,"x_max":487,"o":"m 29 1017 l 152 1017 l 259 692 l 354 1017 l 480 1017 l 316 519 l 487 0 l 357 0 l 246 346 l 144 0 l 18 0 l 189 524 l 29 1017 z "},"y":{"ha":536,"x_min":35,"x_max":513,"o":"m 378 1017 l 513 1017 l 344 -20 q 313 -130 332 -104 q 271 -163 294 -156 q 210 -170 248 -170 l 74 -170 l 74 -65 l 122 -65 q 201 -49 193 -65 q 207 -20 207 -41 q 201 36 207 2 l 35 1017 l 170 1017 l 243 488 l 273 213 l 286 213 l 312 488 l 378 1017 z "},"z":{"ha":461,"x_min":52,"x_max":419,"o":"m 68 1017 l 419 1017 l 419 922 l 195 119 l 408 119 l 408 0 l 52 0 l 52 104 l 275 897 l 68 897 l 68 1017 z "},"{":{"ha":541,"x_min":112,"x_max":439,"o":"m 398 1208 l 439 1208 l 439 1095 q 361 1073 377 1095 q 345 970 345 1051 l 345 803 q 316 611 345 643 q 232 563 288 580 q 308 524 288 546 q 336 463 327 503 q 345 323 345 424 l 345 156 q 361 53 345 75 q 439 31 377 31 l 439 -82 l 398 -82 q 248 -33 290 -82 q 206 147 206 16 l 206 334 q 191 461 206 433 q 112 488 175 488 l 112 637 q 191 665 175 637 q 206 792 206 692 l 206 979 q 248 1159 206 1110 q 398 1208 290 1208 z "},"|":{"ha":364,"x_min":119,"x_max":252,"o":"m 119 1273 l 252 1273 l 252 -57 l 119 -57 l 119 1273 z "},"}":{"ha":541,"x_min":112,"x_max":439,"o":"m 112 1208 l 153 1208 q 303 1159 261 1208 q 345 979 345 1110 l 345 792 q 360 665 345 692 q 439 637 376 637 l 439 488 q 360 461 376 488 q 345 334 345 433 l 345 147 q 303 -33 345 16 q 153 -82 261 -82 l 112 -82 l 112 31 q 190 53 174 31 q 206 156 206 75 l 206 323 q 234 514 206 483 q 319 563 262 546 q 243 602 262 580 q 215 663 224 623 q 206 803 206 702 l 206 970 q 190 1073 206 1051 q 112 1095 174 1095 l 112 1208 z "},"~":{"ha":758,"x_min":75,"x_max":673,"o":"m 231 769 q 373 739 270 769 q 486 710 474 710 q 487 710 487 710 q 562 787 539 710 l 673 759 q 612 623 654 682 q 524 564 570 564 q 377 595 479 564 q 240 627 276 627 q 176 564 203 627 l 75 616 q 231 769 129 769 z "}," ":{"ha":341,"x_min":0,"x_max":0,"o":""},"¡":{"ha":370,"x_min":119,"x_max":278,"o":"m 278 -150 l 119 -150 l 170 776 l 227 776 l 278 -150 m 275 889 l 124 889 l 124 1044 l 275 1044 l 275 889 z "},"¢":{"ha":534,"x_min":84,"x_max":526,"o":"m 84 684 q 104 877 84 816 q 149 967 124 939 q 273 1027 193 1017 l 273 1198 l 349 1198 l 349 1027 q 469 972 426 1019 q 526 713 526 908 l 526 642 l 389 642 l 389 732 q 381 856 389 827 q 316 910 354 899 q 234 844 250 910 q 224 728 224 802 l 224 295 q 240 149 224 191 q 301 107 256 107 q 368 137 347 107 q 389 292 389 166 l 389 391 l 526 391 l 526 325 q 467 48 526 117 q 349 -10 426 -1 l 349 -170 l 273 -170 l 273 -10 q 140 61 182 1 q 95 178 106 109 q 84 343 84 248 l 84 684 z "},"£":{"ha":605,"x_min":26,"x_max":571,"o":"m 117 938 q 353 1208 117 1208 q 517 1141 464 1208 q 570 937 570 1075 l 570 845 l 444 845 l 444 945 q 420 1071 444 1040 q 353 1102 397 1102 q 246 940 246 1102 q 296 647 246 829 l 534 647 l 534 549 l 323 549 q 333 430 333 483 q 201 111 333 176 l 571 111 l 571 0 l 44 0 l 44 97 q 163 210 127 134 q 198 429 198 287 q 186 549 198 490 l 26 549 l 26 647 l 163 647 q 117 938 117 817 z "},"¤":{"ha":786,"x_min":85,"x_max":701,"o":"m 541 903 l 600 962 l 701 861 l 640 800 q 677 654 677 734 q 640 507 677 574 l 701 446 l 600 345 l 539 405 q 393 370 477 370 q 246 406 309 370 l 186 345 l 85 447 l 146 509 q 111 654 111 575 q 146 799 111 733 l 85 860 l 186 962 l 245 902 q 393 939 311 939 q 541 903 475 939 m 393 477 q 430 477 393 477 q 512 528 467 477 q 558 656 558 580 q 513 781 558 732 q 394 830 468 830 q 274 779 319 830 q 228 653 228 728 q 273 528 228 578 q 393 477 319 477 z "},"¥":{"ha":572,"x_min":14,"x_max":554,"o":"m 416 1194 l 554 1194 l 372 541 l 517 541 l 517 463 l 361 463 l 361 344 l 517 344 l 517 265 l 361 265 l 361 0 l 221 0 l 221 265 l 58 265 l 58 344 l 221 344 l 221 463 l 58 463 l 58 541 l 209 541 l 14 1194 l 150 1194 l 291 705 l 294 705 l 416 1194 z "},"¦":{"ha":359,"x_min":83,"x_max":216,"o":"m 83 1171 l 216 1171 l 216 608 l 83 608 l 83 1171 m 83 468 l 216 468 l 216 -80 l 83 -80 l 83 468 z "},"§":{"ha":546,"x_min":59,"x_max":505,"o":"m 60 1008 q 120 1154 60 1099 q 277 1208 180 1208 q 430 1136 373 1208 q 488 945 488 1063 l 488 903 l 356 903 l 356 962 q 329 1075 356 1040 q 264 1110 302 1110 q 204 1082 226 1110 q 182 1015 182 1055 q 212 929 182 975 q 288 847 243 884 q 505 543 505 677 q 472 460 505 490 q 397 404 439 430 q 505 191 505 313 q 446 42 505 98 q 286 -14 386 -14 q 127 49 186 -14 q 68 231 68 111 l 68 294 l 203 294 l 203 232 q 221 121 203 157 q 289 85 240 85 q 379 189 379 85 q 379 191 379 190 q 379 193 379 191 q 316 345 379 281 q 217 427 283 378 q 122 502 151 475 q 59 644 59 562 q 86 734 59 696 q 164 795 113 773 q 89 896 117 837 q 60 1008 60 955 m 230 728 l 229 729 q 174 643 174 697 q 210 574 174 610 q 349 456 245 537 q 399 533 399 490 q 361 619 399 576 q 230 728 323 663 z "},"¨":{"ha":662,"x_min":89,"x_max":573,"o":"m 417 404 l 573 404 l 573 283 l 417 283 l 417 404 m 89 404 l 245 404 l 245 283 l 89 283 l 89 404 z "},"©":{"ha":994,"x_min":57,"x_max":948,"o":"m 357 739 q 389 847 357 810 q 496 885 420 885 q 604 854 571 885 q 637 743 637 823 l 637 663 l 553 663 l 553 735 q 538 795 553 783 q 507 806 524 806 q 483 806 491 807 q 442 744 442 800 l 442 418 q 458 375 442 386 q 500 363 474 363 q 539 374 526 363 q 553 418 553 385 l 553 519 l 640 519 l 640 422 q 608 321 640 355 q 502 288 575 288 q 393 325 428 288 q 357 426 357 362 l 357 739 m 115 358 q 86 409 115 358 q 57 585 57 460 q 115 811 57 709 q 276 972 174 913 q 503 1030 378 1030 q 729 972 627 1030 q 890 811 831 913 q 948 585 948 709 q 890 358 948 460 q 729 197 831 256 q 503 139 627 139 q 276 197 378 139 q 115 358 174 256 m 628 923 q 599 933 628 923 q 503 943 570 943 q 377 923 435 943 q 278 868 319 903 q 209 788 237 833 q 166 690 180 742 q 153 584 153 639 q 166 478 153 530 q 209 381 180 427 q 278 301 237 335 q 377 247 319 267 q 503 227 435 227 q 628 247 570 227 q 727 301 686 267 q 796 381 768 336 q 839 479 825 427 q 852 585 852 530 q 839 691 852 640 q 797 788 825 743 q 727 868 768 834 q 628 923 686 903 z "},"ª":{"ha":629,"x_min":136,"x_max":498,"o":"m 146 845 q 192 1041 146 992 q 326 1090 238 1090 q 479 990 448 1090 q 498 821 498 931 l 498 267 l 387 267 l 387 334 q 349 283 379 308 q 275 259 319 259 q 136 475 138 259 l 136 555 q 173 672 136 623 q 355 777 210 722 q 386 789 381 787 l 386 835 q 378 958 386 930 q 324 998 366 998 q 270 966 282 998 q 257 851 257 935 l 257 821 l 146 821 l 146 845 m 386 406 l 386 713 q 316 680 338 692 q 276 649 294 667 q 253 609 258 631 q 248 552 248 588 l 248 479 q 261 378 248 408 q 304 349 273 349 q 356 367 334 349 q 386 406 378 385 z "},"«":{"ha":884,"x_min":56,"x_max":745,"o":"m 420 569 l 745 753 l 745 612 l 533 508 l 745 397 l 745 252 l 420 446 l 420 569 m 56 569 l 380 753 l 380 612 l 168 508 l 380 397 l 380 252 l 56 446 l 56 569 z "},"¬":{"ha":642,"x_min":66,"x_max":538,"o":"m 66 664 l 538 664 l 538 298 l 408 298 l 408 540 l 66 540 l 66 664 z "},"­":{"ha":472,"x_min":61,"x_max":411,"o":"m 61 503 l 411 503 l 411 389 l 61 389 l 61 503 z "},"®":{"ha":1019,"x_min":64,"x_max":955,"o":"m 122 358 q 93 409 122 358 q 64 585 64 460 q 122 811 64 709 q 282 972 180 913 q 509 1030 385 1030 q 736 972 634 1030 q 897 811 838 913 q 955 585 955 709 q 897 358 955 460 q 736 197 838 256 q 509 139 634 139 q 282 197 385 139 q 122 358 180 256 m 509 943 q 216 788 312 943 q 159 585 159 699 q 285 301 159 407 q 509 227 373 227 q 766 332 673 227 q 859 585 859 438 q 734 868 859 762 q 509 943 646 943 m 642 728 l 642 709 q 635 650 642 661 q 618 628 628 640 q 575 610 608 617 q 621 589 606 607 q 637 528 637 570 l 637 292 l 550 292 l 550 517 q 535 561 550 547 q 474 575 521 575 l 474 292 l 385 292 l 385 869 l 528 869 q 620 838 597 869 q 642 728 642 806 m 548 660 q 553 666 548 660 q 558 685 557 672 q 559 736 559 698 q 545 789 559 775 q 475 803 530 803 l 475 641 q 523 644 506 641 q 548 660 540 648 z "},"¯":{"ha":472,"x_min":61,"x_max":401,"o":"m 61 369 l 401 369 l 401 279 l 61 279 l 61 369 z "},"°":{"ha":621,"x_min":71,"x_max":550,"o":"m 143 692 q 107 721 143 692 q 71 861 71 751 q 143 1029 71 970 q 310 1087 215 1087 q 478 1029 406 1087 q 550 861 550 970 q 529 762 550 806 q 475 690 509 718 q 310 633 405 633 q 143 692 216 633 m 426 781 q 446 854 446 813 q 339 1002 446 975 q 311 1006 325 1006 l 282 1002 q 176 858 176 975 q 195 781 176 814 q 311 716 233 716 q 312 716 311 716 q 426 781 388 716 z "},"±":{"ha":579,"x_min":87,"x_max":494,"o":"m 239 781 l 340 781 l 340 614 l 494 614 l 494 519 l 340 519 l 340 350 l 239 350 l 239 519 l 87 519 l 87 614 l 239 614 l 239 781 m 112 229 l 462 229 l 462 127 l 112 127 l 112 229 z "},"²":{"ha":574,"x_min":151,"x_max":461,"o":"m 151 909 q 177 1129 151 1076 q 252 1198 203 1183 q 317 1206 279 1206 q 461 968 461 1206 q 400 731 461 848 q 345 632 373 681 q 258 409 275 509 l 450 409 l 450 332 l 153 332 l 153 378 q 229 602 153 433 q 327 800 304 771 q 363 977 363 867 q 338 1110 363 1086 q 309 1120 327 1120 q 279 1109 292 1120 q 251 968 251 1084 l 251 856 l 151 856 l 151 909 z "},"³":{"ha":589,"x_min":134,"x_max":463,"o":"m 136 995 q 173 1154 136 1103 q 296 1205 210 1205 q 421 1153 381 1205 q 461 995 461 1100 q 380 818 461 848 q 463 617 463 781 q 422 444 463 500 q 294 387 381 387 q 170 441 207 387 q 134 612 134 496 l 134 648 l 230 648 l 230 612 q 242 497 230 527 q 295 467 254 467 q 350 500 336 467 q 363 621 363 534 q 343 743 363 707 q 273 779 323 779 l 253 779 l 253 855 l 272 855 q 325 866 307 856 q 363 979 363 887 q 346 1097 363 1070 q 295 1124 328 1124 q 248 1096 262 1124 q 233 993 233 1067 l 233 976 l 136 976 l 136 995 z "},"´":{"ha":441,"x_min":68,"x_max":352,"o":"m 68 1326 l 352 1444 l 352 1309 l 68 1251 l 68 1326 z "},"¶":{"ha":759,"x_min":92,"x_max":649,"o":"m 444 1194 l 649 1194 l 649 0 l 528 0 l 528 1068 l 431 1068 l 431 0 l 311 0 l 311 770 q 92 987 92 794 q 110 1089 92 1049 q 172 1152 128 1128 q 444 1194 250 1194 z "},"·":{"ha":326,"x_min":100,"x_max":236,"o":"m 100 663 l 236 663 l 236 522 l 100 522 l 100 663 z "},"¸":{"ha":688,"x_min":238,"x_max":506,"o":"m 238 -340 q 395 -244 395 -340 q 363 -172 395 -201 q 286 -133 332 -143 l 313 0 l 360 0 l 368 -98 q 506 -269 506 -155 q 453 -372 506 -326 q 317 -418 401 -418 q 238 -406 279 -418 l 238 -340 z "},"¹":{"ha":425,"x_min":61,"x_max":277,"o":"m 205 1193 l 277 1193 l 277 330 l 172 330 l 172 1056 q 61 1017 131 1017 l 61 1085 q 147 1119 105 1090 q 205 1193 189 1148 z "},"º":{"ha":616,"x_min":136,"x_max":500,"o":"m 136 823 q 228 1070 136 1021 q 315 1090 264 1090 q 479 987 446 1090 q 500 823 500 922 l 500 535 q 453 310 500 365 q 319 256 407 256 q 156 364 191 256 q 136 535 136 428 l 136 823 m 387 845 q 373 959 387 922 q 318 997 359 997 q 262 960 277 997 q 248 845 248 922 l 248 504 q 263 387 248 425 q 319 349 277 349 q 382 420 372 349 q 387 493 387 450 q 387 504 387 498 l 387 845 z "},"»":{"ha":884,"x_min":117,"x_max":806,"o":"m 481 612 l 481 753 l 806 569 l 806 446 l 481 252 l 481 397 l 693 508 l 481 612 m 117 612 l 117 753 l 441 569 l 441 446 l 117 252 l 117 397 l 328 508 l 117 612 z "},"¼":{"ha":1041,"x_min":64,"x_max":954,"o":"m 635 1199 l 739 1199 l 414 0 l 310 0 l 635 1199 m 201 1172 l 269 1172 l 269 327 l 170 327 l 170 1040 q 64 1001 132 1001 l 64 1066 q 145 1099 106 1071 q 201 1172 185 1128 m 787 778 l 892 778 l 892 220 l 954 220 l 954 149 l 892 149 l 892 0 l 807 0 l 807 149 l 616 149 l 616 210 l 787 778 m 807 220 l 807 629 l 697 220 l 807 220 z "},"½":{"ha":1099,"x_min":64,"x_max":1043,"o":"m 635 1199 l 739 1199 l 414 0 l 310 0 l 635 1199 m 201 1172 l 269 1172 l 269 327 l 170 327 l 170 1040 q 64 1001 132 1001 l 64 1066 q 145 1099 106 1071 q 201 1172 185 1128 m 741 566 q 766 782 741 730 q 840 849 792 835 q 903 857 867 857 q 1043 623 1043 857 q 982 391 1043 506 q 929 293 956 340 q 844 74 861 173 l 1032 74 l 1032 1 l 743 1 l 743 45 q 782 179 743 81 q 862 361 821 278 q 913 458 902 445 q 949 648 949 522 q 895 774 949 774 q 865 764 877 774 q 838 624 838 740 l 838 513 l 741 513 l 741 566 z "},"¾":{"ha":1055,"x_min":81,"x_max":967,"o":"m 674 1199 l 779 1199 l 453 0 l 349 0 l 674 1199 m 83 981 q 118 1135 83 1085 q 233 1185 153 1185 q 351 1134 313 1185 q 388 981 388 1084 q 311 808 388 837 q 390 612 390 772 q 352 444 390 499 q 232 389 313 389 q 116 442 151 389 q 81 608 81 495 l 81 642 l 170 642 l 170 608 q 182 494 170 523 q 233 465 193 465 q 286 498 273 465 q 300 616 300 531 q 280 735 300 701 q 212 770 260 770 l 193 770 l 193 846 l 211 846 q 262 856 244 846 q 298 965 298 876 q 282 1082 298 1055 q 233 1109 265 1109 q 188 1081 201 1109 q 174 979 174 1053 l 173 962 l 83 962 l 83 981 m 800 778 l 906 778 l 906 220 l 967 220 l 967 149 l 906 149 l 906 0 l 821 0 l 821 149 l 630 149 l 630 210 l 800 778 m 821 220 l 821 629 l 711 220 l 821 220 z "},"¿":{"ha":708,"x_min":141,"x_max":532,"o":"m 532 85 q 518 -60 532 -22 q 452 -163 493 -132 q 337 -194 410 -194 q 183 -128 224 -194 q 148 -19 155 -82 q 141 126 141 44 q 146 260 141 208 q 203 439 159 378 q 343 528 248 500 l 343 680 l 465 680 l 465 465 q 382 431 406 448 q 346 405 359 415 q 322 376 332 394 q 283 206 286 314 q 281 74 281 159 q 290 -42 281 -12 q 337 -73 298 -73 q 385 -41 376 -73 q 394 95 394 -9 l 394 228 l 532 228 l 532 85 m 463 812 l 342 812 l 342 1014 l 463 1014 l 463 812 z "},"À":{"ha":637,"x_min":45,"x_max":592,"o":"m 188 1324 l 188 1467 l 439 1335 l 439 1260 l 188 1324 m 226 1194 l 395 1194 l 592 0 l 460 0 l 426 228 l 210 228 l 178 0 l 45 0 l 226 1194 m 225 342 l 408 342 l 314 972 l 312 972 l 225 342 z "},"Á":{"ha":637,"x_min":45,"x_max":592,"o":"m 182 1361 l 467 1479 l 467 1344 l 182 1286 l 182 1361 m 226 1194 l 395 1194 l 592 0 l 460 0 l 426 228 l 210 228 l 178 0 l 45 0 l 226 1194 m 225 342 l 408 342 l 314 972 l 312 972 l 225 342 z "},"Â":{"ha":637,"x_min":45,"x_max":592,"o":"m 233 1455 l 390 1455 l 494 1256 l 370 1256 l 311 1395 l 253 1256 l 128 1256 l 233 1455 m 226 1194 l 395 1194 l 592 0 l 460 0 l 426 228 l 210 228 l 178 0 l 45 0 l 226 1194 m 225 342 l 408 342 l 314 972 l 312 972 l 225 342 z "},"Ã":{"ha":637,"x_min":45,"x_max":592,"o":"m 99 1324 q 147 1409 117 1387 q 214 1431 177 1431 q 318 1406 251 1431 q 399 1381 385 1381 l 401 1381 q 421 1392 413 1383 q 439 1429 430 1401 l 523 1410 l 517 1385 q 476 1298 500 1320 q 416 1276 452 1276 q 316 1304 380 1276 q 233 1332 252 1332 q 203 1330 214 1332 q 174 1291 193 1327 l 99 1324 m 226 1194 l 395 1194 l 592 0 l 460 0 l 426 228 l 210 228 l 178 0 l 45 0 l 226 1194 m 225 342 l 408 342 l 314 972 l 312 972 l 225 342 z "},"Ä":{"ha":637,"x_min":45,"x_max":592,"o":"m 397 1394 l 553 1394 l 553 1274 l 397 1274 l 397 1394 m 69 1394 l 225 1394 l 225 1274 l 69 1274 l 69 1394 m 226 1194 l 395 1194 l 592 0 l 460 0 l 426 228 l 210 228 l 178 0 l 45 0 l 226 1194 m 225 342 l 408 342 l 314 972 l 312 972 l 225 342 z "},"Å":{"ha":637,"x_min":45,"x_max":592,"o":"m 311 1259 q 279 1259 311 1259 q 211 1296 248 1259 q 175 1386 175 1333 q 211 1476 175 1439 q 311 1513 248 1513 q 410 1476 374 1513 q 446 1386 446 1439 q 410 1296 446 1333 q 311 1259 374 1259 m 366 1331 q 375 1343 366 1331 q 385 1386 385 1354 q 366 1441 385 1418 q 311 1465 346 1465 q 257 1441 277 1465 q 238 1386 238 1418 q 257 1331 238 1354 q 311 1308 277 1308 q 366 1331 346 1308 m 226 1194 l 395 1194 l 592 0 l 460 0 l 426 228 l 210 228 l 178 0 l 45 0 l 226 1194 m 225 342 l 408 342 l 314 972 l 312 972 l 225 342 z "},"Æ":{"ha":818,"x_min":45,"x_max":752,"o":"m 284 1194 l 749 1194 l 749 1077 l 545 1077 l 545 669 l 738 669 l 738 551 l 545 551 l 545 117 l 752 117 l 752 0 l 404 0 l 404 228 l 223 228 l 179 0 l 45 0 l 284 1194 m 404 337 l 404 1078 l 387 1078 l 243 337 l 404 337 z "},"Ç":{"ha":623,"x_min":84,"x_max":550,"o":"m 205 -340 q 362 -244 362 -340 q 331 -172 362 -201 q 254 -133 299 -143 l 281 0 l 328 0 l 336 -98 q 473 -269 473 -155 q 421 -372 473 -326 q 285 -418 368 -418 q 205 -406 246 -418 l 205 -340 m 84 849 q 106 1048 84 985 q 155 1142 129 1112 q 323 1208 213 1207 q 523 1072 478 1207 q 549 864 549 994 l 549 732 l 411 732 l 411 865 q 398 1020 411 979 q 368 1073 386 1060 q 323 1086 351 1086 q 246 1033 267 1086 q 224 865 224 980 l 224 349 q 244 159 224 213 q 318 105 263 105 q 392 159 374 105 q 411 349 411 214 l 411 481 l 550 481 l 550 351 q 499 74 550 163 q 320 -14 448 -14 q 138 77 193 -14 q 84 352 84 168 l 84 849 z "},"È":{"ha":523,"x_min":98,"x_max":457,"o":"m 159 1324 l 159 1467 l 410 1335 l 410 1260 l 159 1324 m 98 1194 l 454 1194 l 454 1077 l 238 1077 l 238 669 l 443 669 l 443 552 l 238 552 l 238 117 l 457 117 l 457 0 l 98 0 l 98 1194 z "},"É":{"ha":523,"x_min":98,"x_max":457,"o":"m 98 1194 l 454 1194 l 454 1077 l 238 1077 l 238 669 l 443 669 l 443 552 l 238 552 l 238 117 l 457 117 l 457 0 l 98 0 l 98 1194 m 153 1361 l 437 1479 l 437 1344 l 153 1286 l 153 1361 z "},"Ê":{"ha":523,"x_min":98,"x_max":463,"o":"m 98 1194 l 454 1194 l 454 1077 l 238 1077 l 238 669 l 443 669 l 443 552 l 238 552 l 238 117 l 457 117 l 457 0 l 98 0 l 98 1194 m 202 1455 l 359 1455 l 463 1256 l 339 1256 l 281 1395 l 222 1256 l 98 1256 l 202 1455 z "},"Ë":{"ha":523,"x_min":39,"x_max":523,"o":"m 98 1194 l 454 1194 l 454 1077 l 238 1077 l 238 669 l 443 669 l 443 552 l 238 552 l 238 117 l 457 117 l 457 0 l 98 0 l 98 1194 m 367 1394 l 523 1394 l 523 1274 l 367 1274 l 367 1394 m 39 1394 l 195 1394 l 195 1274 l 39 1274 l 39 1394 z "},"Ì":{"ha":357,"x_min":56,"x_max":307,"o":"m 56 1324 l 56 1467 l 307 1335 l 307 1260 l 56 1324 m 109 1194 l 249 1194 l 249 0 l 109 0 l 109 1194 z "},"Í":{"ha":357,"x_min":50,"x_max":334,"o":"m 50 1361 l 334 1479 l 334 1344 l 50 1286 l 50 1361 m 109 1194 l 249 1194 l 249 0 l 109 0 l 109 1194 z "},"Î":{"ha":357,"x_min":-4,"x_max":361,"o":"m 100 1455 l 258 1455 l 361 1256 l 237 1256 l 179 1395 l 121 1256 l -4 1256 l 100 1455 m 109 1194 l 249 1194 l 249 0 l 109 0 l 109 1194 z "},"Ï":{"ha":357,"x_min":-63,"x_max":421,"o":"m 265 1394 l 421 1394 l 421 1274 l 265 1274 l 265 1394 m -63 1394 l 93 1394 l 93 1274 l -63 1274 l -63 1394 m 109 1194 l 249 1194 l 249 0 l 109 0 l 109 1194 z "},"Ð":{"ha":644,"x_min":37,"x_max":562,"o":"m 97 1194 l 321 1194 q 510 1109 458 1194 q 562 869 562 1025 l 562 345 q 506 81 562 161 q 317 0 450 0 l 97 0 l 97 1194 m 422 873 q 395 1034 422 985 q 309 1082 369 1082 l 237 1082 l 237 113 l 309 113 q 372 130 349 113 q 422 323 422 165 l 422 873 m 37 681 l 343 681 l 343 589 l 37 589 l 37 681 z "},"Ñ":{"ha":688,"x_min":98,"x_max":590,"o":"m 132 1324 q 180 1409 150 1387 q 247 1431 210 1431 q 350 1406 283 1431 q 431 1381 417 1381 l 434 1381 q 454 1392 446 1383 q 472 1429 463 1401 l 555 1410 l 549 1385 q 509 1298 532 1320 q 449 1276 485 1276 q 349 1304 413 1276 q 266 1332 285 1332 q 236 1330 246 1332 q 207 1291 225 1327 l 132 1324 m 466 1194 l 590 1194 l 590 0 l 487 0 l 219 819 l 227 518 l 227 0 l 98 0 l 98 1194 l 203 1194 l 480 381 l 466 726 l 466 1194 z "},"Ò":{"ha":640,"x_min":84,"x_max":556,"o":"m 197 1325 l 197 1468 l 448 1337 l 448 1261 l 197 1325 m 84 869 q 157 1149 84 1073 q 325 1208 215 1208 q 530 1077 485 1208 q 556 869 556 999 l 556 343 q 504 72 556 157 q 321 -14 452 -14 q 137 72 191 -14 q 84 343 84 157 l 84 869 m 416 878 q 397 1040 416 992 q 323 1088 379 1088 q 246 1039 268 1088 q 224 878 224 990 l 224 342 q 243 156 224 205 q 320 107 262 107 q 397 157 378 107 q 416 342 416 207 l 416 878 z "},"Ó":{"ha":640,"x_min":84,"x_max":556,"o":"m 84 869 q 157 1149 84 1073 q 325 1208 215 1208 q 530 1077 485 1208 q 556 869 556 999 l 556 343 q 504 72 556 157 q 321 -14 452 -14 q 137 72 191 -14 q 84 343 84 157 l 84 869 m 416 878 q 397 1040 416 992 q 323 1088 379 1088 q 246 1039 268 1088 q 224 878 224 990 l 224 342 q 243 156 224 205 q 320 107 262 107 q 397 157 378 107 q 416 342 416 207 l 416 878 m 191 1362 l 475 1480 l 475 1345 l 191 1287 l 191 1362 z "},"Ô":{"ha":640,"x_min":84,"x_max":556,"o":"m 84 869 q 157 1149 84 1073 q 325 1208 215 1208 q 530 1077 485 1208 q 556 869 556 999 l 556 343 q 504 72 556 157 q 321 -14 452 -14 q 137 72 191 -14 q 84 343 84 157 l 84 869 m 416 878 q 397 1040 416 992 q 323 1088 379 1088 q 246 1039 268 1088 q 224 878 224 990 l 224 342 q 243 156 224 205 q 320 107 262 107 q 397 157 378 107 q 416 342 416 207 l 416 878 m 241 1457 l 399 1457 l 503 1257 l 378 1257 l 320 1396 l 262 1257 l 137 1257 l 241 1457 z "},"Õ":{"ha":640,"x_min":84,"x_max":556,"o":"m 108 1325 q 156 1410 126 1388 q 223 1432 186 1432 q 327 1407 260 1432 q 408 1382 393 1382 l 410 1382 q 430 1393 422 1384 q 448 1430 439 1402 l 532 1411 l 526 1386 q 485 1300 509 1322 q 425 1278 461 1278 q 325 1305 389 1278 q 242 1333 261 1333 q 212 1331 222 1333 q 183 1292 201 1329 l 108 1325 m 84 869 q 157 1149 84 1073 q 325 1208 215 1208 q 530 1077 485 1208 q 556 869 556 999 l 556 343 q 504 72 556 157 q 321 -14 452 -14 q 137 72 191 -14 q 84 343 84 157 l 84 869 m 416 878 q 397 1040 416 992 q 323 1088 379 1088 q 246 1039 268 1088 q 224 878 224 990 l 224 342 q 243 156 224 205 q 320 107 262 107 q 397 157 378 107 q 416 342 416 207 l 416 878 z "},"Ö":{"ha":640,"x_min":78,"x_max":562,"o":"m 84 869 q 157 1149 84 1073 q 325 1208 215 1208 q 530 1077 485 1208 q 556 869 556 999 l 556 343 q 504 72 556 157 q 321 -14 452 -14 q 137 72 191 -14 q 84 343 84 157 l 84 869 m 416 878 q 397 1040 416 992 q 323 1088 379 1088 q 246 1039 268 1088 q 224 878 224 990 l 224 342 q 243 156 224 205 q 320 107 262 107 q 397 157 378 107 q 416 342 416 207 l 416 878 m 406 1396 l 562 1396 l 562 1275 l 406 1275 l 406 1396 m 78 1396 l 234 1396 l 234 1275 l 78 1275 l 78 1396 z "},"×":{"ha":481,"x_min":52,"x_max":430,"o":"m 362 635 l 430 564 l 311 444 l 430 324 l 362 254 l 241 374 l 119 254 l 52 324 l 171 444 l 52 564 l 119 635 l 241 514 l 362 635 z "},"Ø":{"ha":610,"x_min":51,"x_max":617,"o":"m 415 924 q 397 1040 412 1002 q 323 1088 379 1088 q 246 1039 268 1088 q 224 878 224 990 l 224 382 l 415 924 m 235 189 q 243 156 239 170 q 320 107 262 107 q 397 157 378 107 q 416 342 416 207 l 416 700 l 235 189 m 538 1047 q 556 869 556 980 l 556 343 q 504 72 556 157 q 321 -14 452 -14 q 177 28 231 -14 l 118 -140 l 51 -113 l 124 96 q 84 343 84 182 l 84 869 q 157 1149 84 1073 q 326 1208 215 1208 q 492 1145 437 1208 l 545 1293 l 617 1268 l 538 1047 z "},"Ù":{"ha":653,"x_min":91,"x_max":562,"o":"m 203 1323 l 203 1466 l 455 1335 l 455 1259 l 203 1323 m 422 1194 l 562 1194 l 562 307 q 510 62 562 139 q 328 -14 457 -14 q 144 62 198 -14 q 91 307 91 139 l 91 1194 l 231 1194 l 231 310 q 241 167 231 191 q 262 130 251 144 q 328 104 281 104 q 397 133 374 104 q 421 218 419 161 q 422 309 422 274 l 422 1194 z "},"Ú":{"ha":653,"x_min":91,"x_max":562,"o":"m 422 1194 l 562 1194 l 562 307 q 510 62 562 139 q 328 -14 457 -14 q 144 62 198 -14 q 91 307 91 139 l 91 1194 l 231 1194 l 231 310 q 241 167 231 191 q 262 130 251 144 q 328 104 281 104 q 397 133 374 104 q 421 218 419 161 q 422 309 422 274 l 422 1194 m 203 1360 l 488 1478 l 488 1343 l 203 1285 l 203 1360 z "},"Û":{"ha":653,"x_min":91,"x_max":562,"o":"m 422 1194 l 562 1194 l 562 307 q 510 62 562 139 q 328 -14 457 -14 q 144 62 198 -14 q 91 307 91 139 l 91 1194 l 231 1194 l 231 310 q 241 167 231 191 q 262 130 251 144 q 328 104 281 104 q 397 133 374 104 q 421 218 419 161 q 422 309 422 274 l 422 1194 m 254 1455 l 411 1455 l 515 1255 l 391 1255 l 332 1394 l 274 1255 l 149 1255 l 254 1455 z "},"Ü":{"ha":653,"x_min":90,"x_max":574,"o":"m 422 1194 l 562 1194 l 562 307 q 510 62 562 139 q 328 -14 457 -14 q 144 62 198 -14 q 91 307 91 139 l 91 1194 l 231 1194 l 231 310 q 241 167 231 191 q 262 130 251 144 q 328 104 281 104 q 397 133 374 104 q 421 218 419 161 q 422 309 422 274 l 422 1194 m 418 1394 l 574 1394 l 574 1273 l 418 1273 l 418 1394 m 90 1394 l 246 1394 l 246 1273 l 90 1273 l 90 1394 z "},"Ý":{"ha":567,"x_min":14,"x_max":554,"o":"m 159 1361 l 443 1479 l 443 1344 l 159 1286 l 159 1361 m 416 1194 l 554 1194 l 361 501 l 361 0 l 221 0 l 221 501 l 14 1194 l 150 1194 l 291 705 l 294 705 l 416 1194 z "},"Þ":{"ha":629,"x_min":110,"x_max":574,"o":"m 110 1194 l 250 1194 l 250 1017 l 349 1017 q 511 956 458 1017 q 574 669 574 884 l 574 653 q 506 346 574 422 q 349 286 452 286 l 250 286 l 250 0 l 110 0 l 110 1194 m 435 674 q 415 852 435 799 q 338 905 396 905 l 250 905 l 250 403 l 336 403 q 415 456 395 403 q 435 654 435 509 l 435 674 z "},"ß":{"ha":665,"x_min":98,"x_max":604,"o":"m 98 961 q 138 1146 98 1096 q 323 1207 187 1207 q 324 1208 323 1207 q 511 1154 458 1207 q 564 961 564 1101 l 564 827 q 539 703 564 743 q 453 641 515 662 q 572 562 539 621 q 604 375 604 503 l 604 323 q 579 113 604 173 q 507 27 555 54 q 376 0 460 0 l 305 0 l 305 114 q 435 138 410 114 q 464 198 460 162 q 467 268 467 233 l 467 445 q 434 549 467 522 q 311 577 401 577 l 311 691 q 402 714 377 691 q 428 793 428 736 l 428 997 q 407 1081 428 1058 q 332 1103 385 1103 q 257 1080 278 1103 q 236 997 236 1057 l 236 0 l 98 0 l 98 961 z "},"à":{"ha":628,"x_min":85,"x_max":538,"o":"m 203 1147 l 203 1291 l 455 1159 l 455 1084 l 203 1147 m 397 561 q 283 501 312 522 q 240 452 255 480 q 226 359 226 424 l 226 265 q 241 140 226 176 q 295 104 257 104 q 360 126 333 104 q 397 174 387 148 l 397 561 m 98 723 q 156 968 98 907 q 320 1029 214 1029 q 474 978 427 1029 q 533 812 522 926 q 538 692 538 764 l 538 0 l 398 0 l 398 88 q 351 21 387 52 q 260 -9 314 -9 q 85 261 87 -9 l 85 360 q 133 510 85 448 q 397 651 181 572 l 397 730 q 378 887 397 861 q 314 913 359 913 q 252 873 268 913 q 237 729 237 833 l 237 694 l 98 694 l 98 723 z "},"á":{"ha":628,"x_min":85,"x_max":538,"o":"m 198 1185 l 482 1303 l 482 1168 l 198 1109 l 198 1185 m 397 561 q 283 501 312 522 q 240 452 255 480 q 226 359 226 424 l 226 265 q 241 140 226 176 q 295 104 257 104 q 360 126 333 104 q 397 174 387 148 l 397 561 m 98 723 q 156 968 98 907 q 320 1029 214 1029 q 474 978 427 1029 q 533 812 522 926 q 538 692 538 764 l 538 0 l 398 0 l 398 88 q 351 21 387 52 q 260 -9 314 -9 q 85 261 87 -9 l 85 360 q 133 510 85 448 q 397 651 181 572 l 397 730 q 378 887 397 861 q 314 913 359 913 q 252 873 268 913 q 237 729 237 833 l 237 694 l 98 694 l 98 723 z "},"â":{"ha":628,"x_min":85,"x_max":538,"o":"m 248 1279 l 406 1279 l 509 1080 l 385 1080 l 327 1219 l 269 1080 l 144 1080 l 248 1279 m 397 561 q 283 501 312 522 q 240 452 255 480 q 226 359 226 424 l 226 265 q 241 140 226 176 q 295 104 257 104 q 360 126 333 104 q 397 174 387 148 l 397 561 m 98 723 q 156 968 98 907 q 320 1029 214 1029 q 474 978 427 1029 q 533 812 522 926 q 538 692 538 764 l 538 0 l 398 0 l 398 88 q 351 21 387 52 q 260 -9 314 -9 q 85 261 87 -9 l 85 360 q 133 510 85 448 q 397 651 181 572 l 397 730 q 378 887 397 861 q 314 913 359 913 q 252 873 268 913 q 237 729 237 833 l 237 694 l 98 694 l 98 723 z "},"ã":{"ha":628,"x_min":85,"x_max":538,"o":"m 115 1147 q 163 1233 133 1211 q 230 1255 193 1255 q 333 1230 267 1255 q 414 1204 400 1204 l 417 1204 q 437 1216 429 1206 q 455 1253 446 1225 l 538 1234 l 532 1208 q 492 1122 515 1144 q 432 1100 468 1100 q 332 1128 396 1100 q 249 1156 268 1156 q 219 1153 229 1156 q 190 1114 208 1151 l 115 1147 m 397 561 q 283 501 312 522 q 240 452 255 480 q 226 359 226 424 l 226 265 q 241 140 226 176 q 295 104 257 104 q 360 126 333 104 q 397 174 387 148 l 397 561 m 98 723 q 156 968 98 907 q 320 1029 214 1029 q 474 978 427 1029 q 533 812 522 926 q 538 692 538 764 l 538 0 l 398 0 l 398 88 q 351 21 387 52 q 260 -9 314 -9 q 85 261 87 -9 l 85 360 q 133 510 85 448 q 397 651 181 572 l 397 730 q 378 887 397 861 q 314 913 359 913 q 252 873 268 913 q 237 729 237 833 l 237 694 l 98 694 l 98 723 z "},"ä":{"ha":628,"x_min":85,"x_max":569,"o":"m 413 1218 l 569 1218 l 569 1097 l 413 1097 l 413 1218 m 85 1218 l 241 1218 l 241 1097 l 85 1097 l 85 1218 m 397 561 q 283 501 312 522 q 240 452 255 480 q 226 359 226 424 l 226 265 q 241 140 226 176 q 295 104 257 104 q 360 126 333 104 q 397 174 387 148 l 397 561 m 98 723 q 156 968 98 907 q 320 1029 214 1029 q 474 978 427 1029 q 533 812 522 926 q 538 692 538 764 l 538 0 l 398 0 l 398 88 q 351 21 387 52 q 260 -9 314 -9 q 85 261 87 -9 l 85 360 q 133 510 85 448 q 397 651 181 572 l 397 730 q 378 887 397 861 q 314 913 359 913 q 252 873 268 913 q 237 729 237 833 l 237 694 l 98 694 l 98 723 z "},"å":{"ha":628,"x_min":85,"x_max":538,"o":"m 326 1082 q 295 1082 326 1082 q 227 1119 263 1082 q 191 1210 191 1156 q 227 1300 191 1263 q 326 1337 263 1337 q 426 1300 389 1337 q 462 1210 462 1263 q 426 1119 462 1156 q 326 1082 389 1082 m 381 1155 q 391 1166 381 1155 q 401 1210 401 1178 q 381 1265 401 1242 q 327 1289 361 1289 q 273 1265 292 1289 q 254 1210 254 1242 q 273 1155 254 1178 q 327 1131 292 1131 q 381 1155 361 1131 m 397 561 q 283 501 312 522 q 240 452 255 480 q 226 359 226 424 l 226 265 q 241 140 226 176 q 295 104 257 104 q 360 126 333 104 q 397 174 387 148 l 397 561 m 98 723 q 156 968 98 907 q 320 1029 214 1029 q 474 978 427 1029 q 533 812 522 926 q 538 692 538 764 l 538 0 l 398 0 l 398 88 q 351 21 387 52 q 260 -9 314 -9 q 85 261 87 -9 l 85 360 q 133 510 85 448 q 397 651 181 572 l 397 730 q 378 887 397 861 q 314 913 359 913 q 252 873 268 913 q 237 729 237 833 l 237 694 l 98 694 l 98 723 z "},"æ":{"ha":920,"x_min":85,"x_max":842,"o":"m 469 962 q 627 1029 519 1029 q 819 897 780 1029 q 841 666 841 823 q 842 578 841 614 q 841 502 842 507 l 537 502 l 537 310 q 553 150 537 196 q 616 104 570 104 q 679 132 663 104 q 699 202 695 161 q 703 306 703 243 l 703 381 l 840 381 l 840 340 q 806 83 840 148 q 711 -1 772 18 q 627 -12 675 -12 q 454 78 501 -12 q 377 18 429 45 q 274 -9 326 -9 q 133 62 180 -9 q 85 264 85 133 l 85 364 q 103 466 86 424 q 166 540 120 507 q 257 594 213 573 q 397 652 302 615 l 397 721 q 389 857 397 836 q 372 891 380 879 q 312 913 357 913 q 311 913 311 913 q 252 874 267 913 q 237 730 237 835 l 237 694 l 98 694 l 98 723 q 156 968 98 907 q 322 1029 214 1029 q 469 962 431 1029 m 397 174 l 397 557 q 258 477 284 507 q 229 417 233 447 q 226 357 226 387 l 226 265 q 241 140 226 176 q 295 104 257 104 q 360 126 333 104 q 397 174 387 149 m 703 728 q 694 859 703 838 q 675 898 686 881 q 633 915 663 915 q 546 840 560 915 q 537 719 537 793 l 537 603 l 703 603 l 703 728 z "},"ç":{"ha":597,"x_min":84,"x_max":526,"o":"m 188 -340 q 345 -244 345 -340 q 313 -172 345 -201 q 236 -133 281 -143 l 263 0 l 310 0 l 318 -98 q 456 -269 456 -155 q 403 -372 456 -326 q 267 -418 351 -418 q 188 -406 229 -418 l 188 -340 m 84 684 q 104 877 84 816 q 149 967 124 939 q 311 1029 204 1029 q 464 977 417 1029 q 521 819 510 924 q 526 713 525 774 l 526 642 l 389 642 l 389 732 q 381 856 389 827 q 316 910 354 899 q 234 844 250 910 q 224 728 224 802 l 224 295 q 240 149 224 191 q 301 107 256 107 q 368 137 347 107 q 389 292 389 166 l 389 391 l 526 391 l 526 325 q 471 52 526 117 q 303 -12 416 -12 q 95 178 125 -12 q 84 343 84 248 l 84 684 z "},"è":{"ha":606,"x_min":84,"x_max":528,"o":"m 186 1147 l 186 1291 l 438 1159 l 438 1084 l 186 1147 m 84 702 q 153 970 84 895 q 313 1029 208 1029 q 506 897 467 1029 q 528 696 528 823 l 528 504 l 224 504 l 224 301 q 245 136 224 169 q 311 104 266 104 q 372 142 357 104 q 388 224 387 180 q 389 299 389 269 l 389 381 l 525 381 l 525 338 q 502 111 525 176 q 433 17 479 45 q 319 -12 387 -12 q 210 5 251 -12 q 145 51 169 22 q 102 142 121 79 q 84 342 84 204 l 84 702 m 389 728 q 381 859 389 836 q 361 898 373 881 q 317 915 349 915 q 239 864 256 915 q 223 723 223 812 l 223 598 l 389 598 l 389 728 z "},"é":{"ha":606,"x_min":84,"x_max":528,"o":"m 84 702 q 153 970 84 895 q 313 1029 208 1029 q 506 897 467 1029 q 528 696 528 823 l 528 504 l 224 504 l 224 301 q 245 136 224 169 q 311 104 266 104 q 372 142 357 104 q 388 224 387 180 q 389 299 389 269 l 389 381 l 525 381 l 525 338 q 502 111 525 176 q 433 17 479 45 q 319 -12 387 -12 q 210 5 251 -12 q 145 51 169 22 q 102 142 121 79 q 84 342 84 204 l 84 702 m 389 728 q 381 859 389 836 q 361 898 373 881 q 317 915 349 915 q 239 864 256 915 q 223 723 223 812 l 223 598 l 389 598 l 389 728 m 182 1185 l 466 1303 l 466 1168 l 182 1109 l 182 1185 z "},"ê":{"ha":606,"x_min":84,"x_max":528,"o":"m 84 702 q 153 970 84 895 q 313 1029 208 1029 q 506 897 467 1029 q 528 696 528 823 l 528 504 l 224 504 l 224 301 q 245 136 224 169 q 311 104 266 104 q 372 142 357 104 q 388 224 387 180 q 389 299 389 269 l 389 381 l 525 381 l 525 338 q 502 111 525 176 q 433 17 479 45 q 319 -12 387 -12 q 210 5 251 -12 q 145 51 169 22 q 102 142 121 79 q 84 342 84 204 l 84 702 m 389 728 q 381 859 389 836 q 361 898 373 881 q 317 915 349 915 q 239 864 256 915 q 223 723 223 812 l 223 598 l 389 598 l 389 728 m 231 1279 l 389 1279 l 492 1080 l 368 1080 l 310 1219 l 252 1080 l 127 1080 l 231 1279 z "},"ë":{"ha":606,"x_min":68,"x_max":552,"o":"m 84 702 q 153 970 84 895 q 313 1029 208 1029 q 506 897 467 1029 q 528 696 528 823 l 528 504 l 224 504 l 224 301 q 245 136 224 169 q 311 104 266 104 q 372 142 357 104 q 388 224 387 180 q 389 299 389 269 l 389 381 l 525 381 l 525 338 q 502 111 525 176 q 433 17 479 45 q 319 -12 387 -12 q 210 5 251 -12 q 145 51 169 22 q 102 142 121 79 q 84 342 84 204 l 84 702 m 389 728 q 381 859 389 836 q 361 898 373 881 q 317 915 349 915 q 239 864 256 915 q 223 723 223 812 l 223 598 l 389 598 l 389 728 m 396 1218 l 552 1218 l 552 1097 l 396 1097 l 396 1218 m 68 1218 l 224 1218 l 224 1097 l 68 1097 l 68 1218 z "},"ì":{"ha":342,"x_min":43,"x_max":294,"o":"m 43 1147 l 43 1291 l 294 1159 l 294 1084 l 43 1147 m 101 1017 l 241 1017 l 241 0 l 101 0 l 101 1017 z "},"í":{"ha":342,"x_min":37,"x_max":321,"o":"m 101 1017 l 241 1017 l 241 0 l 101 0 l 101 1017 m 37 1185 l 321 1303 l 321 1168 l 37 1109 l 37 1185 z "},"î":{"ha":342,"x_min":-17,"x_max":349,"o":"m 101 1017 l 241 1017 l 241 0 l 101 0 l 101 1017 m 87 1279 l 245 1279 l 349 1080 l 224 1080 l 166 1219 l 108 1080 l -17 1080 l 87 1279 z "},"ï":{"ha":342,"x_min":-76,"x_max":408,"o":"m 101 1017 l 241 1017 l 241 0 l 101 0 l 101 1017 m 252 1218 l 408 1218 l 408 1097 l 252 1097 l 252 1218 m -76 1218 l 80 1218 l 80 1097 l -76 1097 l -76 1218 z "},"ð":{"ha":656,"x_min":71,"x_max":639,"o":"m 286 747 q 415 695 372 747 q 408 827 415 724 q 390 954 400 930 l 243 869 l 203 949 l 344 1031 q 191 1109 287 1097 l 237 1207 q 463 1099 382 1200 l 599 1177 l 639 1097 l 511 1022 q 543 829 529 984 q 557 616 557 675 l 557 350 q 536 145 557 210 q 487 51 514 81 q 302 -14 429 -14 q 122 68 174 -14 q 71 313 71 150 l 71 387 q 120 665 71 583 q 286 747 169 747 m 418 579 q 378 612 409 596 q 308 629 347 629 q 231 578 250 629 q 211 392 211 527 l 211 298 q 232 146 211 184 q 313 107 252 107 q 396 157 374 107 q 418 326 418 207 l 418 579 z "},"ñ":{"ha":658,"x_min":100,"x_max":565,"o":"m 117 1147 q 165 1233 135 1211 q 232 1255 195 1255 q 335 1230 269 1255 q 416 1204 402 1204 l 419 1204 q 439 1216 431 1206 q 457 1253 448 1225 l 541 1234 l 534 1208 q 494 1122 517 1144 q 434 1100 470 1100 q 334 1128 398 1100 q 251 1156 270 1156 q 221 1153 231 1156 q 192 1114 210 1151 l 117 1147 m 239 909 q 298 995 252 959 q 412 1030 344 1030 q 523 975 480 1030 q 565 811 565 920 l 565 0 l 426 0 l 426 810 q 402 888 426 862 q 336 913 378 913 q 267 884 294 913 q 239 797 239 855 l 239 0 l 100 0 l 100 1017 l 239 1017 l 239 909 z "},"ò":{"ha":620,"x_min":84,"x_max":536,"o":"m 186 1147 l 186 1291 l 438 1159 l 438 1084 l 186 1147 m 84 696 q 198 1005 84 944 q 305 1029 244 1029 q 509 901 465 1029 q 536 696 536 821 l 536 336 q 478 55 536 122 q 311 -12 420 -12 q 109 123 152 -12 q 84 336 84 201 l 84 696 m 396 724 q 355 901 396 869 q 311 913 338 913 q 240 864 256 913 q 224 724 224 814 l 224 298 q 266 117 224 148 q 308 104 283 104 q 311 104 309 104 q 380 154 364 104 q 396 298 396 205 l 396 724 z "},"ó":{"ha":620,"x_min":84,"x_max":536,"o":"m 84 696 q 198 1005 84 944 q 305 1029 244 1029 q 509 901 465 1029 q 536 696 536 821 l 536 336 q 478 55 536 122 q 311 -12 420 -12 q 109 123 152 -12 q 84 336 84 201 l 84 696 m 396 724 q 355 901 396 869 q 311 913 338 913 q 240 864 256 913 q 224 724 224 814 l 224 298 q 266 117 224 148 q 308 104 283 104 q 311 104 309 104 q 380 154 364 104 q 396 298 396 205 l 396 724 m 182 1185 l 466 1303 l 466 1168 l 182 1109 l 182 1185 z "},"ô":{"ha":620,"x_min":84,"x_max":536,"o":"m 84 696 q 198 1005 84 944 q 305 1029 244 1029 q 509 901 465 1029 q 536 696 536 821 l 536 336 q 478 55 536 122 q 311 -12 420 -12 q 109 123 152 -12 q 84 336 84 201 l 84 696 m 396 724 q 355 901 396 869 q 311 913 338 913 q 240 864 256 913 q 224 724 224 814 l 224 298 q 266 117 224 148 q 308 104 283 104 q 311 104 309 104 q 380 154 364 104 q 396 298 396 205 l 396 724 m 231 1279 l 389 1279 l 492 1080 l 368 1080 l 310 1219 l 252 1080 l 127 1080 l 231 1279 z "},"õ":{"ha":620,"x_min":84,"x_max":536,"o":"m 98 1147 q 146 1233 116 1211 q 213 1255 176 1255 q 316 1230 250 1255 q 397 1204 383 1204 l 400 1204 q 420 1216 412 1206 q 438 1253 429 1225 l 522 1234 l 515 1208 q 475 1122 498 1144 q 415 1100 451 1100 q 315 1128 379 1100 q 232 1156 251 1156 q 202 1153 212 1156 q 173 1114 191 1151 l 98 1147 m 84 696 q 198 1005 84 944 q 305 1029 244 1029 q 509 901 465 1029 q 536 696 536 821 l 536 336 q 478 55 536 122 q 311 -12 420 -12 q 109 123 152 -12 q 84 336 84 201 l 84 696 m 396 724 q 355 901 396 869 q 311 913 338 913 q 240 864 256 913 q 224 724 224 814 l 224 298 q 266 117 224 148 q 308 104 283 104 q 311 104 309 104 q 380 154 364 104 q 396 298 396 205 l 396 724 z "},"ö":{"ha":620,"x_min":68,"x_max":552,"o":"m 84 696 q 198 1005 84 944 q 305 1029 244 1029 q 509 901 465 1029 q 536 696 536 821 l 536 336 q 478 55 536 122 q 311 -12 420 -12 q 109 123 152 -12 q 84 336 84 201 l 84 696 m 396 724 q 355 901 396 869 q 311 913 338 913 q 240 864 256 913 q 224 724 224 814 l 224 298 q 266 117 224 148 q 308 104 283 104 q 311 104 309 104 q 380 154 364 104 q 396 298 396 205 l 396 724 m 396 1218 l 552 1218 l 552 1097 l 396 1097 l 396 1218 m 68 1218 l 224 1218 l 224 1097 l 68 1097 l 68 1218 z "},"÷":{"ha":545,"x_min":64,"x_max":481,"o":"m 64 590 l 481 590 l 481 433 l 64 433 l 64 590 m 172 363 l 374 363 l 374 161 l 172 161 l 172 363 m 172 864 l 374 864 l 374 662 l 172 662 l 172 864 z "},"ø":{"ha":596,"x_min":84,"x_max":536,"o":"m 378 868 q 311 913 347 906 q 240 864 256 913 q 224 724 224 814 l 224 318 l 378 868 m 247 139 q 315 104 267 104 q 380 154 364 104 q 396 298 396 205 l 396 670 l 247 139 m 149 49 q 84 336 84 121 l 84 696 q 198 1005 84 944 q 308 1029 244 1029 q 417 1008 372 1029 l 452 1134 l 521 1115 l 477 960 q 536 696 536 884 l 536 336 q 478 55 536 122 q 311 -12 420 -12 q 210 6 252 -12 l 175 -117 l 107 -98 l 149 49 z "},"ù":{"ha":656,"x_min":93,"x_max":557,"o":"m 215 1147 l 215 1291 l 467 1159 l 467 1084 l 215 1147 m 418 1017 l 557 1017 l 557 0 l 418 0 l 418 104 q 362 19 401 52 q 255 -14 322 -14 q 141 42 189 -14 q 93 212 93 97 l 93 1017 l 232 1017 l 232 227 q 319 107 232 107 q 393 141 368 107 q 418 231 418 175 l 418 1017 z "},"ú":{"ha":656,"x_min":93,"x_max":557,"o":"m 418 1017 l 557 1017 l 557 0 l 418 0 l 418 104 q 362 19 401 52 q 255 -14 322 -14 q 141 42 189 -14 q 93 212 93 97 l 93 1017 l 232 1017 l 232 227 q 319 107 232 107 q 393 141 368 107 q 418 231 418 175 l 418 1017 m 210 1185 l 494 1303 l 494 1168 l 210 1109 l 210 1185 z "},"û":{"ha":656,"x_min":93,"x_max":557,"o":"m 418 1017 l 557 1017 l 557 0 l 418 0 l 418 104 q 362 19 401 52 q 255 -14 322 -14 q 141 42 189 -14 q 93 212 93 97 l 93 1017 l 232 1017 l 232 227 q 319 107 232 107 q 393 141 368 107 q 418 231 418 175 l 418 1017 m 260 1279 l 417 1279 l 521 1080 l 397 1080 l 338 1219 l 280 1080 l 155 1080 l 260 1279 z "},"ü":{"ha":656,"x_min":93,"x_max":581,"o":"m 418 1017 l 557 1017 l 557 0 l 418 0 l 418 104 q 362 19 401 52 q 255 -14 322 -14 q 141 42 189 -14 q 93 212 93 97 l 93 1017 l 232 1017 l 232 227 q 319 107 232 107 q 393 141 368 107 q 418 231 418 175 l 418 1017 m 425 1218 l 581 1218 l 581 1097 l 425 1097 l 425 1218 m 96 1218 l 252 1218 l 252 1097 l 96 1097 l 96 1218 z "},"ý":{"ha":536,"x_min":35,"x_max":513,"o":"m 144 1185 l 429 1303 l 429 1168 l 144 1109 l 144 1185 m 378 1017 l 513 1017 l 344 -20 q 313 -130 332 -104 q 271 -163 294 -156 q 210 -170 248 -170 l 74 -170 l 74 -65 l 122 -65 q 201 -49 193 -65 q 207 -20 207 -41 q 201 36 207 2 l 35 1017 l 170 1017 l 243 488 l 273 213 l 286 213 l 312 488 l 378 1017 z "},"þ":{"ha":637,"x_min":100,"x_max":552,"o":"m 100 1206 l 239 1206 l 239 932 q 296 1003 258 980 q 378 1026 335 1026 q 532 900 500 1026 q 552 699 552 821 l 552 330 q 501 58 552 127 q 357 -12 450 -12 q 289 11 320 -12 q 239 68 257 34 l 239 -186 l 100 -186 l 100 1206 m 412 722 q 393 878 412 843 q 334 912 373 912 q 279 896 296 912 q 251 847 263 880 q 239 722 239 814 l 239 307 q 258 152 239 198 q 328 105 276 105 q 396 152 379 105 q 412 312 412 199 l 412 722 z "},"ÿ":{"ha":536,"x_min":31,"x_max":515,"o":"m 359 1218 l 515 1218 l 515 1097 l 359 1097 l 359 1218 m 31 1218 l 187 1218 l 187 1097 l 31 1097 l 31 1218 m 378 1017 l 513 1017 l 344 -20 q 313 -130 332 -104 q 271 -163 294 -156 q 210 -170 248 -170 l 74 -170 l 74 -65 l 122 -65 q 201 -49 193 -65 q 207 -20 207 -41 q 201 36 207 2 l 35 1017 l 170 1017 l 243 488 l 273 213 l 286 213 l 312 488 l 378 1017 z "},"Ā":{"ha":637,"x_min":45,"x_max":592,"o":"m 136 1359 l 476 1359 l 476 1270 l 136 1270 l 136 1359 m 226 1194 l 395 1194 l 592 0 l 460 0 l 426 228 l 210 228 l 178 0 l 45 0 l 226 1194 m 225 342 l 408 342 l 314 972 l 312 972 l 225 342 z "},"ā":{"ha":628,"x_min":85,"x_max":538,"o":"m 152 1183 l 492 1183 l 492 1093 l 152 1093 l 152 1183 m 397 561 q 283 501 312 522 q 240 452 255 480 q 226 359 226 424 l 226 265 q 241 140 226 176 q 295 104 257 104 q 360 126 333 104 q 397 174 387 148 l 397 561 m 98 723 q 156 968 98 907 q 320 1029 214 1029 q 474 978 427 1029 q 533 812 522 926 q 538 692 538 764 l 538 0 l 398 0 l 398 88 q 351 21 387 52 q 260 -9 314 -9 q 85 261 87 -9 l 85 360 q 133 510 85 448 q 397 651 181 572 l 397 730 q 378 887 397 861 q 314 913 359 913 q 252 873 268 913 q 237 729 237 833 l 237 694 l 98 694 l 98 723 z "},"Ă":{"ha":637,"x_min":45,"x_max":592,"o":"m 397 1435 l 469 1435 l 469 1426 q 429 1313 469 1352 q 310 1273 389 1273 q 191 1312 231 1273 q 151 1425 151 1352 l 151 1435 l 222 1435 q 311 1353 222 1353 q 374 1370 350 1353 q 397 1435 397 1388 m 226 1194 l 395 1194 l 592 0 l 460 0 l 426 228 l 210 228 l 178 0 l 45 0 l 226 1194 m 225 342 l 408 342 l 314 972 l 312 972 l 225 342 z "},"ă":{"ha":628,"x_min":85,"x_max":538,"o":"m 413 1259 l 485 1259 l 485 1250 q 445 1136 485 1176 q 326 1097 405 1097 q 207 1136 247 1097 q 166 1249 166 1175 l 166 1259 l 238 1259 q 326 1177 238 1177 q 389 1194 366 1177 q 413 1259 413 1211 m 397 561 q 283 501 312 522 q 240 452 255 480 q 226 359 226 424 l 226 265 q 241 140 226 176 q 295 104 257 104 q 360 126 333 104 q 397 174 387 148 l 397 561 m 98 723 q 156 968 98 907 q 320 1029 214 1029 q 474 978 427 1029 q 533 812 522 926 q 538 692 538 764 l 538 0 l 398 0 l 398 88 q 351 21 387 52 q 260 -9 314 -9 q 85 261 87 -9 l 85 360 q 133 510 85 448 q 397 651 181 572 l 397 730 q 378 887 397 861 q 314 913 359 913 q 252 873 268 913 q 237 729 237 833 l 237 694 l 98 694 l 98 723 z "},"Ą":{"ha":637,"x_min":45,"x_max":592,"o":"m 448 5 l 506 5 q 407 -123 444 -56 q 370 -237 370 -190 q 471 -332 370 -332 q 561 -318 520 -332 l 561 -396 q 513 -412 547 -404 q 446 -420 478 -420 q 310 -377 357 -420 q 263 -263 263 -334 q 312 -118 263 -193 q 448 5 361 -44 m 226 1194 l 395 1194 l 592 0 l 460 0 l 426 228 l 210 228 l 178 0 l 45 0 l 226 1194 m 225 342 l 408 342 l 314 972 l 312 972 l 225 342 z "},"ą":{"ha":628,"x_min":85,"x_max":553,"o":"m 440 5 l 498 5 q 399 -123 436 -56 q 362 -237 362 -190 q 463 -332 362 -332 q 553 -318 512 -332 l 553 -396 q 505 -412 539 -404 q 438 -420 470 -420 q 302 -377 349 -420 q 255 -263 255 -334 q 304 -118 255 -193 q 440 5 353 -44 m 397 561 q 283 501 312 522 q 240 452 255 480 q 226 359 226 424 l 226 265 q 241 140 226 176 q 295 104 257 104 q 360 126 333 104 q 397 174 387 148 l 397 561 m 98 723 q 156 968 98 907 q 320 1029 214 1029 q 474 978 427 1029 q 533 812 522 926 q 538 692 538 764 l 538 0 l 398 0 l 398 88 q 351 21 387 52 q 260 -9 314 -9 q 85 261 87 -9 l 85 360 q 133 510 85 448 q 397 651 181 572 l 397 730 q 378 887 397 861 q 314 913 359 913 q 252 873 268 913 q 237 729 237 833 l 237 694 l 98 694 l 98 723 z "},"Ć":{"ha":623,"x_min":84,"x_max":550,"o":"m 84 849 q 106 1048 84 985 q 155 1142 129 1112 q 323 1208 213 1207 q 523 1072 478 1207 q 549 864 549 994 l 549 732 l 411 732 l 411 865 q 398 1020 411 979 q 368 1073 386 1060 q 323 1086 351 1086 q 246 1033 267 1086 q 224 865 224 980 l 224 349 q 244 159 224 213 q 318 105 263 105 q 392 159 374 105 q 411 349 411 214 l 411 481 l 550 481 l 550 351 q 499 74 550 163 q 320 -14 448 -14 q 138 77 193 -14 q 84 352 84 168 l 84 849 m 191 1361 l 475 1479 l 475 1344 l 191 1286 l 191 1361 z "},"ć":{"ha":597,"x_min":84,"x_max":526,"o":"m 84 684 q 104 877 84 816 q 149 967 124 939 q 311 1029 204 1029 q 464 977 417 1029 q 521 819 510 924 q 526 713 525 774 l 526 642 l 389 642 l 389 732 q 381 856 389 827 q 316 910 354 899 q 234 844 250 910 q 224 728 224 802 l 224 295 q 240 149 224 191 q 301 107 256 107 q 368 137 347 107 q 389 292 389 166 l 389 391 l 526 391 l 526 325 q 471 52 526 117 q 303 -12 416 -12 q 95 178 125 -12 q 84 343 84 248 l 84 684 m 188 1185 l 472 1303 l 472 1168 l 188 1109 l 188 1185 z "},"Ĉ":{"ha":623,"x_min":84,"x_max":550,"o":"m 84 849 q 106 1048 84 985 q 155 1142 129 1112 q 323 1208 213 1207 q 523 1072 478 1207 q 549 864 549 994 l 549 732 l 411 732 l 411 865 q 398 1020 411 979 q 368 1073 386 1060 q 323 1086 351 1086 q 246 1033 267 1086 q 224 865 224 980 l 224 349 q 244 159 224 213 q 318 105 263 105 q 392 159 374 105 q 411 349 411 214 l 411 481 l 550 481 l 550 351 q 499 74 550 163 q 320 -14 448 -14 q 138 77 193 -14 q 84 352 84 168 l 84 849 m 241 1455 l 398 1455 l 502 1256 l 378 1256 l 319 1395 l 261 1256 l 136 1256 l 241 1455 z "},"ĉ":{"ha":597,"x_min":84,"x_max":526,"o":"m 84 684 q 104 877 84 816 q 149 967 124 939 q 311 1029 204 1029 q 464 977 417 1029 q 521 819 510 924 q 526 713 525 774 l 526 642 l 389 642 l 389 732 q 381 856 389 827 q 316 910 354 899 q 234 844 250 910 q 224 728 224 802 l 224 295 q 240 149 224 191 q 301 107 256 107 q 368 137 347 107 q 389 292 389 166 l 389 391 l 526 391 l 526 325 q 471 52 526 117 q 303 -12 416 -12 q 95 178 125 -12 q 84 343 84 248 l 84 684 m 237 1279 l 395 1279 l 498 1080 l 374 1080 l 316 1219 l 258 1080 l 133 1080 l 237 1279 z "},"Ċ":{"ha":623,"x_min":84,"x_max":550,"o":"m 250 1385 l 395 1385 l 395 1265 l 250 1265 l 250 1385 m 84 849 q 106 1048 84 985 q 155 1142 129 1112 q 323 1208 213 1207 q 523 1072 478 1207 q 549 864 549 994 l 549 732 l 411 732 l 411 865 q 398 1020 411 979 q 368 1073 386 1060 q 323 1086 351 1086 q 246 1033 267 1086 q 224 865 224 980 l 224 349 q 244 159 224 213 q 318 105 263 105 q 392 159 374 105 q 411 349 411 214 l 411 481 l 550 481 l 550 351 q 499 74 550 163 q 320 -14 448 -14 q 138 77 193 -14 q 84 352 84 168 l 84 849 z "},"ċ":{"ha":597,"x_min":84,"x_max":526,"o":"m 247 1209 l 391 1209 l 391 1088 l 247 1088 l 247 1209 m 84 684 q 104 877 84 816 q 149 967 124 939 q 311 1029 204 1029 q 464 977 417 1029 q 521 819 510 924 q 526 713 525 774 l 526 642 l 389 642 l 389 732 q 381 856 389 827 q 316 910 354 899 q 234 844 250 910 q 224 728 224 802 l 224 295 q 240 149 224 191 q 301 107 256 107 q 368 137 347 107 q 389 292 389 166 l 389 391 l 526 391 l 526 325 q 471 52 526 117 q 303 -12 416 -12 q 95 178 125 -12 q 84 343 84 248 l 84 684 z "},"Č":{"ha":623,"x_min":84,"x_max":550,"o":"m 84 849 q 106 1048 84 985 q 155 1142 129 1112 q 323 1208 213 1207 q 523 1072 478 1207 q 549 864 549 994 l 549 732 l 411 732 l 411 865 q 398 1020 411 979 q 368 1073 386 1060 q 323 1086 351 1086 q 246 1033 267 1086 q 224 865 224 980 l 224 349 q 244 159 224 213 q 318 105 263 105 q 392 159 374 105 q 411 349 411 214 l 411 481 l 550 481 l 550 351 q 499 74 550 163 q 320 -14 448 -14 q 138 77 193 -14 q 84 352 84 168 l 84 849 m 378 1455 l 502 1455 l 398 1256 l 241 1256 l 136 1455 l 261 1455 l 319 1316 l 378 1455 z "},"č":{"ha":597,"x_min":84,"x_max":526,"o":"m 84 684 q 104 877 84 816 q 149 967 124 939 q 311 1029 204 1029 q 464 977 417 1029 q 521 819 510 924 q 526 713 525 774 l 526 642 l 389 642 l 389 732 q 381 856 389 827 q 316 910 354 899 q 234 844 250 910 q 224 728 224 802 l 224 295 q 240 149 224 191 q 301 107 256 107 q 368 137 347 107 q 389 292 389 166 l 389 391 l 526 391 l 526 325 q 471 52 526 117 q 303 -12 416 -12 q 95 178 125 -12 q 84 343 84 248 l 84 684 m 374 1279 l 498 1279 l 395 1080 l 237 1080 l 133 1279 l 258 1279 l 316 1140 l 374 1279 z "},"Ď":{"ha":644,"x_min":97,"x_max":562,"o":"m 97 1194 l 321 1194 q 510 1109 458 1194 q 562 869 562 1025 l 562 345 q 506 81 562 161 q 317 0 450 0 l 97 0 l 97 1194 m 422 873 q 395 1034 422 985 q 309 1082 369 1082 l 237 1082 l 237 113 l 309 113 q 372 130 349 113 q 422 323 422 165 l 422 873 m 374 1455 l 498 1455 l 394 1256 l 237 1256 l 132 1455 l 257 1455 l 315 1316 l 374 1455 z "},"ď":{"ha":636,"x_min":84,"x_max":840,"o":"m 397 1206 l 537 1206 l 537 0 l 397 0 l 397 85 q 257 -9 359 -9 q 92 176 117 -9 q 84 326 84 238 l 84 710 q 144 970 84 894 q 278 1029 191 1029 q 348 1007 316 1029 q 397 949 380 985 l 397 1206 m 398 712 q 380 866 398 819 q 311 913 362 913 q 242 866 260 913 q 224 709 224 819 l 224 298 q 263 117 224 149 q 309 104 279 104 q 358 121 339 104 q 398 304 398 155 l 398 712 m 630 1206 l 840 1206 l 840 1050 l 755 757 l 667 757 l 730 1044 l 630 1044 l 630 1206 z "},"Đ":{"ha":644,"x_min":16,"x_max":562,"o":"m 97 1194 l 321 1194 q 510 1109 458 1194 q 562 869 562 1025 l 562 345 q 506 81 562 161 q 317 0 450 0 l 97 0 l 97 1194 m 422 873 q 395 1034 422 985 q 309 1082 369 1082 l 237 1082 l 237 113 l 309 113 q 372 130 349 113 q 422 323 422 165 l 422 873 m 16 663 l 355 663 l 355 573 l 16 573 l 16 663 z "},"đ":{"ha":636,"x_min":84,"x_max":621,"o":"m 397 1206 l 537 1206 l 537 0 l 397 0 l 397 85 q 257 -9 359 -9 q 92 176 117 -9 q 84 326 84 238 l 84 710 q 144 970 84 894 q 278 1029 191 1029 q 348 1007 316 1029 q 397 949 380 985 l 397 1206 m 398 712 q 380 866 398 819 q 311 913 362 913 q 242 866 260 913 q 224 709 224 819 l 224 298 q 263 117 224 149 q 309 104 279 104 q 358 121 339 104 q 398 304 398 155 l 398 712 m 281 1145 l 621 1145 l 621 1055 l 281 1055 l 281 1145 z "},"Ē":{"ha":523,"x_min":98,"x_max":457,"o":"m 107 1359 l 447 1359 l 447 1270 l 107 1270 l 107 1359 m 98 1194 l 454 1194 l 454 1077 l 238 1077 l 238 669 l 443 669 l 443 552 l 238 552 l 238 117 l 457 117 l 457 0 l 98 0 l 98 1194 z "},"ē":{"ha":606,"x_min":84,"x_max":528,"o":"m 135 1183 l 475 1183 l 475 1093 l 135 1093 l 135 1183 m 84 702 q 153 970 84 895 q 313 1029 208 1029 q 506 897 467 1029 q 528 696 528 823 l 528 504 l 224 504 l 224 301 q 245 136 224 169 q 311 104 266 104 q 372 142 357 104 q 388 224 387 180 q 389 299 389 269 l 389 381 l 525 381 l 525 338 q 502 111 525 176 q 433 17 479 45 q 319 -12 387 -12 q 210 5 251 -12 q 145 51 169 22 q 102 142 121 79 q 84 342 84 204 l 84 702 m 389 728 q 381 859 389 836 q 361 898 373 881 q 317 915 349 915 q 239 864 256 915 q 223 723 223 812 l 223 598 l 389 598 l 389 728 z "},"Ĕ":{"ha":523,"x_min":98,"x_max":457,"o":"m 368 1435 l 440 1435 l 440 1426 q 400 1313 440 1352 q 281 1273 360 1273 q 162 1312 202 1273 q 121 1425 121 1352 l 121 1435 l 193 1435 q 281 1353 193 1353 q 345 1370 321 1353 q 368 1435 368 1388 m 98 1194 l 454 1194 l 454 1077 l 238 1077 l 238 669 l 443 669 l 443 552 l 238 552 l 238 117 l 457 117 l 457 0 l 98 0 l 98 1194 z "},"ĕ":{"ha":606,"x_min":84,"x_max":528,"o":"m 396 1259 l 468 1259 l 468 1250 q 428 1136 468 1176 q 309 1097 388 1097 q 190 1136 230 1097 q 149 1249 149 1175 l 149 1259 l 221 1259 q 309 1177 221 1177 q 372 1194 349 1177 q 396 1259 396 1211 m 84 702 q 153 970 84 895 q 313 1029 208 1029 q 506 897 467 1029 q 528 696 528 823 l 528 504 l 224 504 l 224 301 q 245 136 224 169 q 311 104 266 104 q 372 142 357 104 q 388 224 387 180 q 389 299 389 269 l 389 381 l 525 381 l 525 338 q 502 111 525 176 q 433 17 479 45 q 319 -12 387 -12 q 210 5 251 -12 q 145 51 169 22 q 102 142 121 79 q 84 342 84 204 l 84 702 m 389 728 q 381 859 389 836 q 361 898 373 881 q 317 915 349 915 q 239 864 256 915 q 223 723 223 812 l 223 598 l 389 598 l 389 728 z "},"Ė":{"ha":523,"x_min":98,"x_max":457,"o":"m 213 1385 l 357 1385 l 357 1265 l 213 1265 l 213 1385 m 98 1194 l 454 1194 l 454 1077 l 238 1077 l 238 669 l 443 669 l 443 552 l 238 552 l 238 117 l 457 117 l 457 0 l 98 0 l 98 1194 z "},"ė":{"ha":606,"x_min":84,"x_max":528,"o":"m 241 1209 l 385 1209 l 385 1088 l 241 1088 l 241 1209 m 84 702 q 153 970 84 895 q 313 1029 208 1029 q 506 897 467 1029 q 528 696 528 823 l 528 504 l 224 504 l 224 301 q 245 136 224 169 q 311 104 266 104 q 372 142 357 104 q 388 224 387 180 q 389 299 389 269 l 389 381 l 525 381 l 525 338 q 502 111 525 176 q 433 17 479 45 q 319 -12 387 -12 q 210 5 251 -12 q 145 51 169 22 q 102 142 121 79 q 84 342 84 204 l 84 702 m 389 728 q 381 859 389 836 q 361 898 373 881 q 317 915 349 915 q 239 864 256 915 q 223 723 223 812 l 223 598 l 389 598 l 389 728 z "},"Ę":{"ha":523,"x_min":98,"x_max":459,"o":"m 98 1194 l 454 1194 l 454 1077 l 238 1077 l 238 669 l 443 669 l 443 552 l 238 552 l 238 117 l 457 117 l 457 0 l 98 0 l 98 1194 m 347 5 l 404 5 q 306 -123 342 -56 q 269 -237 269 -190 q 370 -332 269 -332 q 459 -318 418 -332 l 459 -396 q 411 -412 446 -404 q 345 -420 376 -420 q 208 -377 255 -420 q 161 -263 161 -334 q 211 -118 161 -193 q 347 5 260 -44 z "},"ę":{"ha":606,"x_min":84,"x_max":528,"o":"m 84 702 q 153 970 84 895 q 313 1029 208 1029 q 506 897 467 1029 q 528 696 528 823 l 528 504 l 224 504 l 224 301 q 245 136 224 169 q 311 104 266 104 q 372 142 357 104 q 388 224 387 180 q 389 299 389 269 l 389 381 l 525 381 l 525 338 q 502 111 525 176 q 433 17 479 45 q 319 -12 387 -12 q 210 5 251 -12 q 145 51 169 22 q 102 142 121 79 q 84 342 84 204 l 84 702 m 389 728 q 381 859 389 836 q 361 898 373 881 q 317 915 349 915 q 239 864 256 915 q 223 723 223 812 l 223 598 l 389 598 l 389 728 m 328 5 l 386 5 q 287 -123 324 -56 q 250 -237 250 -190 q 351 -332 250 -332 q 441 -318 400 -332 l 441 -396 q 393 -412 427 -404 q 326 -420 358 -420 q 190 -377 237 -420 q 143 -263 143 -334 q 192 -118 143 -193 q 328 5 241 -44 z "},"Ě":{"ha":523,"x_min":98,"x_max":463,"o":"m 98 1194 l 454 1194 l 454 1077 l 238 1077 l 238 669 l 443 669 l 443 552 l 238 552 l 238 117 l 457 117 l 457 0 l 98 0 l 98 1194 m 339 1455 l 463 1455 l 359 1256 l 202 1256 l 98 1455 l 222 1455 l 281 1316 l 339 1455 z "},"ě":{"ha":606,"x_min":84,"x_max":528,"o":"m 84 702 q 153 970 84 895 q 313 1029 208 1029 q 506 897 467 1029 q 528 696 528 823 l 528 504 l 224 504 l 224 301 q 245 136 224 169 q 311 104 266 104 q 372 142 357 104 q 388 224 387 180 q 389 299 389 269 l 389 381 l 525 381 l 525 338 q 502 111 525 176 q 433 17 479 45 q 319 -12 387 -12 q 210 5 251 -12 q 145 51 169 22 q 102 142 121 79 q 84 342 84 204 l 84 702 m 389 728 q 381 859 389 836 q 361 898 373 881 q 317 915 349 915 q 239 864 256 915 q 223 723 223 812 l 223 598 l 389 598 l 389 728 m 368 1279 l 492 1279 l 389 1080 l 231 1080 l 127 1279 l 252 1279 l 310 1140 l 368 1279 z "},"Ĝ":{"ha":639,"x_min":84,"x_max":551,"o":"m 84 856 q 209 1183 84 1119 q 316 1208 258 1207 q 474 1161 425 1208 q 537 1039 523 1115 q 551 853 551 962 l 551 761 l 416 761 l 416 916 q 397 1047 416 1008 q 324 1086 378 1086 q 247 1037 269 1086 q 224 862 224 987 l 224 360 q 244 161 224 217 q 322 105 264 105 q 401 163 380 105 q 422 363 422 220 l 422 518 l 326 518 l 326 627 l 551 627 l 551 0 l 477 0 l 458 92 q 306 -12 418 -12 q 138 76 193 -12 q 84 355 84 164 l 84 856 m 248 1455 l 405 1455 l 509 1256 l 385 1256 l 326 1395 l 268 1256 l 143 1256 l 248 1455 z "},"ĝ":{"ha":630,"x_min":81,"x_max":534,"o":"m 271 1029 q 395 943 367 1029 l 395 1017 l 534 1017 l 534 95 q 397 -138 534 -87 q 288 -155 350 -155 q 81 -90 163 -155 l 131 5 q 288 -45 205 -45 q 369 -11 342 -45 q 395 82 395 24 l 395 179 q 345 113 377 132 q 260 95 311 95 q 121 181 159 95 q 83 412 83 267 l 83 704 q 271 1029 83 1029 m 395 724 q 377 868 395 823 q 314 913 359 913 q 251 888 269 913 q 228 823 233 862 q 222 726 222 785 l 222 409 q 242 253 222 301 q 316 205 262 205 q 361 222 345 205 q 395 410 395 255 l 395 724 m 253 1279 l 410 1279 l 514 1080 l 390 1080 l 332 1219 l 273 1080 l 149 1080 l 253 1279 z "},"Ğ":{"ha":639,"x_min":84,"x_max":551,"o":"m 412 1435 l 484 1435 l 484 1426 q 444 1313 484 1352 q 325 1273 404 1273 q 206 1312 246 1273 q 165 1425 165 1352 l 165 1435 l 237 1435 q 326 1353 237 1353 q 389 1370 365 1353 q 412 1435 412 1388 m 84 856 q 209 1183 84 1119 q 316 1208 258 1207 q 474 1161 425 1208 q 537 1039 523 1115 q 551 853 551 962 l 551 761 l 416 761 l 416 916 q 397 1047 416 1008 q 324 1086 378 1086 q 247 1037 269 1086 q 224 862 224 987 l 224 360 q 244 161 224 217 q 322 105 264 105 q 401 163 380 105 q 422 363 422 220 l 422 518 l 326 518 l 326 627 l 551 627 l 551 0 l 477 0 l 458 92 q 306 -12 418 -12 q 138 76 193 -12 q 84 355 84 164 l 84 856 z "},"ğ":{"ha":630,"x_min":81,"x_max":534,"o":"m 416 1259 l 488 1259 l 488 1250 q 448 1136 488 1176 q 329 1097 408 1097 q 209 1136 250 1097 q 169 1249 169 1175 l 169 1259 l 241 1259 q 329 1177 241 1177 q 392 1194 368 1177 q 416 1259 416 1211 m 271 1029 q 395 943 367 1029 l 395 1017 l 534 1017 l 534 95 q 397 -138 534 -87 q 288 -155 350 -155 q 81 -90 163 -155 l 131 5 q 288 -45 205 -45 q 369 -11 342 -45 q 395 82 395 24 l 395 179 q 345 113 377 132 q 260 95 311 95 q 121 181 159 95 q 83 412 83 267 l 83 704 q 271 1029 83 1029 m 395 724 q 377 868 395 823 q 314 913 359 913 q 251 888 269 913 q 228 823 233 862 q 222 726 222 785 l 222 409 q 242 253 222 301 q 316 205 262 205 q 361 222 345 205 q 395 410 395 255 l 395 724 z "},"Ġ":{"ha":639,"x_min":84,"x_max":551,"o":"m 257 1385 l 401 1385 l 401 1265 l 257 1265 l 257 1385 m 84 856 q 209 1183 84 1119 q 316 1208 258 1207 q 474 1161 425 1208 q 537 1039 523 1115 q 551 853 551 962 l 551 761 l 416 761 l 416 916 q 397 1047 416 1008 q 324 1086 378 1086 q 247 1037 269 1086 q 224 862 224 987 l 224 360 q 244 161 224 217 q 322 105 264 105 q 401 163 380 105 q 422 363 422 220 l 422 518 l 326 518 l 326 627 l 551 627 l 551 0 l 477 0 l 458 92 q 306 -12 418 -12 q 138 76 193 -12 q 84 355 84 164 l 84 856 z "},"ġ":{"ha":630,"x_min":81,"x_max":534,"o":"m 260 1209 l 405 1209 l 405 1088 l 260 1088 l 260 1209 m 271 1029 q 395 943 367 1029 l 395 1017 l 534 1017 l 534 95 q 397 -138 534 -87 q 288 -155 350 -155 q 81 -90 163 -155 l 131 5 q 288 -45 205 -45 q 369 -11 342 -45 q 395 82 395 24 l 395 179 q 345 113 377 132 q 260 95 311 95 q 121 181 159 95 q 83 412 83 267 l 83 704 q 271 1029 83 1029 m 395 724 q 377 868 395 823 q 314 913 359 913 q 251 888 269 913 q 228 823 233 862 q 222 726 222 785 l 222 409 q 242 253 222 301 q 316 205 262 205 q 361 222 345 205 q 395 410 395 255 l 395 724 z "},"Ģ":{"ha":639,"x_min":84,"x_max":551,"o":"m 234 -105 l 393 -105 l 393 -253 l 335 -454 l 274 -454 l 307 -259 l 234 -259 l 234 -105 m 84 856 q 209 1183 84 1119 q 316 1208 258 1207 q 474 1161 425 1208 q 537 1039 523 1115 q 551 853 551 962 l 551 761 l 416 761 l 416 916 q 397 1047 416 1008 q 324 1086 378 1086 q 247 1037 269 1086 q 224 862 224 987 l 224 360 q 244 161 224 217 q 322 105 264 105 q 401 163 380 105 q 422 363 422 220 l 422 518 l 326 518 l 326 627 l 551 627 l 551 0 l 477 0 l 458 92 q 306 -12 418 -12 q 138 76 193 -12 q 84 355 84 164 l 84 856 z "},"ģ":{"ha":630,"x_min":81,"x_max":534,"o":"m 276 1321 l 371 1321 l 371 1232 l 337 1111 l 300 1111 l 320 1229 l 276 1229 l 276 1321 m 271 1029 q 395 943 367 1029 l 395 1017 l 534 1017 l 534 95 q 397 -138 534 -87 q 288 -155 350 -155 q 81 -90 163 -155 l 131 5 q 288 -45 205 -45 q 369 -11 342 -45 q 395 82 395 24 l 395 179 q 345 113 377 132 q 260 95 311 95 q 121 181 159 95 q 83 412 83 267 l 83 704 q 271 1029 83 1029 m 395 724 q 377 868 395 823 q 314 913 359 913 q 251 888 269 913 q 228 823 233 862 q 222 726 222 785 l 222 409 q 242 253 222 301 q 316 205 262 205 q 361 222 345 205 q 395 410 395 255 l 395 724 z "},"Ĥ":{"ha":667,"x_min":98,"x_max":570,"o":"m 429 1194 l 570 1194 l 570 0 l 429 0 l 429 578 l 238 578 l 238 0 l 98 0 l 98 1194 l 238 1194 l 238 693 l 429 693 l 429 1194 m 258 1455 l 416 1455 l 519 1256 l 395 1256 l 337 1395 l 279 1256 l 154 1256 l 258 1455 z "},"ĥ":{"ha":657,"x_min":100,"x_max":564,"o":"m 100 1206 l 239 1206 l 239 909 q 298 995 253 959 q 411 1030 342 1030 q 522 975 479 1030 q 564 811 564 920 l 564 0 l 425 0 l 425 800 q 342 910 425 910 q 268 878 296 910 q 239 783 239 846 l 239 0 l 100 0 l 100 1206 m 250 1451 l 408 1451 l 511 1252 l 387 1252 l 329 1391 l 271 1252 l 146 1252 l 250 1451 z "},"Ħ":{"ha":667,"x_min":37,"x_max":645,"o":"m 238 948 l 238 693 l 429 693 l 429 948 l 238 948 m 429 1194 l 570 1194 l 570 1020 l 645 1020 l 645 948 l 570 948 l 570 0 l 429 0 l 429 578 l 238 578 l 238 0 l 98 0 l 98 948 l 37 948 l 37 1020 l 98 1020 l 98 1194 l 238 1194 l 238 1020 l 429 1020 l 429 1194 z "},"ħ":{"ha":657,"x_min":0,"x_max":564,"o":"m 100 1206 l 239 1206 l 239 1147 l 380 1147 l 380 1069 l 239 1069 l 239 909 q 298 995 253 959 q 411 1030 342 1030 q 522 975 479 1030 q 564 811 564 920 l 564 0 l 425 0 l 425 800 q 342 910 425 910 q 268 878 296 910 q 239 783 239 846 l 239 0 l 100 0 l 100 1069 l 0 1069 l 0 1147 l 100 1147 l 100 1206 z "},"Ĩ":{"ha":357,"x_min":-33,"x_max":391,"o":"m -33 1324 q 15 1409 -15 1387 q 82 1431 45 1431 q 185 1406 119 1431 q 267 1381 252 1381 l 269 1381 q 289 1392 281 1383 q 307 1429 298 1401 l 391 1410 l 385 1385 q 344 1298 368 1320 q 284 1276 320 1276 q 184 1304 248 1276 q 101 1332 120 1332 q 71 1330 81 1332 q 42 1291 60 1327 l -33 1324 m 109 1194 l 249 1194 l 249 0 l 109 0 l 109 1194 z "},"ĩ":{"ha":342,"x_min":-46,"x_max":378,"o":"m -46 1147 q 2 1233 -28 1211 q 69 1255 32 1255 q 173 1230 106 1255 q 254 1204 239 1204 l 256 1204 q 276 1216 268 1206 q 294 1253 285 1225 l 378 1234 l 372 1208 q 331 1122 355 1144 q 271 1100 307 1100 q 171 1128 235 1100 q 88 1156 107 1156 q 58 1153 68 1156 q 29 1114 47 1151 l -46 1147 m 101 1017 l 241 1017 l 241 0 l 101 0 l 101 1017 z "},"Ī":{"ha":357,"x_min":4,"x_max":344,"o":"m 4 1359 l 344 1359 l 344 1270 l 4 1270 l 4 1359 m 109 1194 l 249 1194 l 249 0 l 109 0 l 109 1194 z "},"ī":{"ha":342,"x_min":-9,"x_max":331,"o":"m -9 1183 l 331 1183 l 331 1093 l -9 1093 l -9 1183 m 101 1017 l 241 1017 l 241 0 l 101 0 l 101 1017 z "},"Ĭ":{"ha":357,"x_min":18,"x_max":337,"o":"m 265 1435 l 337 1435 l 337 1426 q 297 1313 337 1352 q 178 1273 257 1273 q 59 1312 99 1273 q 18 1425 18 1352 l 18 1435 l 90 1435 q 178 1353 90 1353 q 241 1370 218 1353 q 265 1435 265 1388 m 109 1194 l 249 1194 l 249 0 l 109 0 l 109 1194 z "},"ĭ":{"ha":342,"x_min":5,"x_max":324,"o":"m 252 1259 l 324 1259 l 324 1250 q 284 1136 324 1176 q 165 1097 244 1097 q 46 1136 86 1097 q 5 1249 5 1175 l 5 1259 l 77 1259 q 165 1177 77 1177 q 229 1194 205 1177 q 252 1259 252 1211 m 101 1017 l 241 1017 l 241 0 l 101 0 l 101 1017 z "},"Į":{"ha":357,"x_min":-15,"x_max":283,"o":"m 170 5 l 228 5 q 129 -123 166 -56 q 92 -237 92 -190 q 193 -332 92 -332 q 283 -318 242 -332 l 283 -396 q 235 -412 269 -404 q 168 -420 200 -420 q 32 -377 79 -420 q -15 -263 -15 -334 q 34 -118 -15 -193 q 170 5 83 -44 m 109 1194 l 249 1194 l 249 0 l 109 0 l 109 1194 z "},"į":{"ha":342,"x_min":-18,"x_max":280,"o":"m 97 1209 l 241 1209 l 241 1088 l 97 1088 l 97 1209 m 168 5 l 225 5 q 126 -123 163 -56 q 90 -237 90 -190 q 191 -332 90 -332 q 280 -318 239 -332 l 280 -396 q 232 -412 267 -404 q 165 -420 197 -420 q 29 -377 76 -420 q -18 -263 -18 -334 q 32 -118 -18 -193 q 168 5 81 -44 m 101 1017 l 241 1017 l 241 0 l 101 0 l 101 1017 z "},"İ":{"ha":357,"x_min":109,"x_max":254,"o":"m 110 1385 l 254 1385 l 254 1265 l 110 1265 l 110 1385 m 109 1194 l 249 1194 l 249 0 l 109 0 l 109 1194 z "},"ı":{"ha":342,"x_min":101,"x_max":241,"o":"m 101 1017 l 241 1017 l 241 0 l 101 0 l 101 1017 z "},"Ĳ":{"ha":939,"x_min":109,"x_max":844,"o":"m 704 1194 l 844 1194 l 844 289 q 631 -14 844 -14 q 466 55 519 -14 q 413 264 413 123 l 413 420 l 550 420 l 550 273 q 558 161 550 182 q 574 129 566 141 q 628 105 591 105 q 682 131 666 105 q 701 193 698 156 q 704 283 704 230 l 704 1194 m 109 1194 l 249 1194 l 249 0 l 109 0 l 109 1194 z "},"ĳ":{"ha":703,"x_min":102,"x_max":604,"o":"m 395 -38 q 415 -39 405 -39 q 431 -39 425 -39 q 465 7 465 -35 l 465 1017 l 604 1017 l 604 14 q 571 -102 604 -66 q 491 -142 538 -139 q 439 -143 476 -143 q 391 -136 402 -143 l 391 -38 l 395 -38 m 463 1238 l 603 1238 l 603 1111 l 463 1111 l 463 1238 m 102 1017 l 241 1017 l 241 0 l 102 0 l 102 1017 m 102 1238 l 241 1238 l 241 1111 l 102 1111 l 102 1238 z "},"Ĵ":{"ha":582,"x_min":56,"x_max":597,"o":"m 336 1455 l 493 1455 l 597 1256 l 473 1256 l 414 1395 l 356 1256 l 231 1256 l 336 1455 m 347 1194 l 487 1194 l 487 289 q 274 -14 487 -14 q 109 55 161 -14 q 56 264 56 123 l 56 420 l 193 420 l 193 273 q 201 161 193 182 q 217 129 209 141 q 271 105 233 105 q 325 131 309 105 q 343 193 340 156 q 347 283 347 230 l 347 1194 z "},"ĵ":{"ha":366,"x_min":20,"x_max":385,"o":"m 58 -4 q 78 -5 68 -5 q 94 -5 89 -5 q 127 41 127 -1 l 127 1017 l 267 1017 l 267 47 q 234 -69 267 -33 q 154 -108 201 -105 q 102 -109 139 -109 q 54 -102 65 -109 l 54 -4 l 58 -4 m 124 1279 l 281 1279 l 385 1080 l 261 1080 l 203 1219 l 144 1080 l 20 1080 l 124 1279 z "},"Ķ":{"ha":606,"x_min":98,"x_max":607,"o":"m 215 -105 l 374 -105 l 374 -253 l 316 -454 l 255 -454 l 288 -259 l 215 -259 l 215 -105 m 450 1194 l 591 1194 l 369 604 l 607 0 l 460 0 l 239 571 l 239 0 l 98 0 l 98 1194 l 238 1194 l 238 625 l 450 1194 z "},"ķ":{"ha":587,"x_min":100,"x_max":591,"o":"m 201 -105 l 360 -105 l 360 -253 l 302 -454 l 241 -454 l 275 -259 l 201 -259 l 201 -105 m 100 1206 l 239 1206 l 239 534 l 439 1017 l 579 1017 l 365 515 l 591 0 l 448 0 l 239 495 l 239 0 l 100 0 l 100 1206 z "},"ĸ":{"ha":587,"x_min":100,"x_max":591,"o":"m 100 1017 l 239 1017 l 239 534 l 439 1017 l 579 1017 l 365 515 l 591 0 l 448 0 l 239 495 l 239 0 l 100 0 l 100 1017 z "},"Ĺ":{"ha":483,"x_min":98,"x_max":458,"o":"m 98 1194 l 238 1194 l 238 116 l 458 116 l 458 0 l 98 0 l 98 1194 m 118 1361 l 402 1479 l 402 1344 l 118 1286 l 118 1361 z "},"ĺ":{"ha":340,"x_min":41,"x_max":326,"o":"m 100 1206 l 239 1206 l 239 0 l 100 0 l 100 1206 m 41 1361 l 326 1479 l 326 1344 l 41 1286 l 41 1361 z "},"Ļ":{"ha":483,"x_min":98,"x_max":458,"o":"m 181 -105 l 340 -105 l 340 -253 l 282 -454 l 221 -454 l 254 -259 l 181 -259 l 181 -105 m 98 1194 l 238 1194 l 238 116 l 458 116 l 458 0 l 98 0 l 98 1194 z "},"ļ":{"ha":340,"x_min":77,"x_max":239,"o":"m 77 -105 l 236 -105 l 236 -253 l 178 -454 l 117 -454 l 151 -259 l 77 -259 l 77 -105 m 100 1206 l 239 1206 l 239 0 l 100 0 l 100 1206 z "},"Ľ":{"ha":503,"x_min":98,"x_max":583,"o":"m 98 1194 l 238 1194 l 238 116 l 458 116 l 458 0 l 98 0 l 98 1194 m 424 1189 l 583 1189 l 583 1041 l 525 840 l 464 840 l 497 1035 l 424 1035 l 424 1189 z "},"ľ":{"ha":340,"x_min":77,"x_max":239,"o":"m 77 -105 l 236 -105 l 236 -253 l 178 -454 l 117 -454 l 151 -259 l 77 -259 l 77 -105 m 100 1206 l 239 1206 l 239 0 l 100 0 l 100 1206 z "},"Ŀ":{"ha":483,"x_min":98,"x_max":511,"o":"m 376 745 l 511 745 l 511 604 l 376 604 l 376 745 m 98 1194 l 238 1194 l 238 116 l 458 116 l 458 0 l 98 0 l 98 1194 z "},"ŀ":{"ha":665,"x_min":100,"x_max":576,"o":"m 440 663 l 576 663 l 576 522 l 440 522 l 440 663 m 100 1206 l 239 1206 l 239 0 l 100 0 l 100 1206 z "},"Ł":{"ha":507,"x_min":-1,"x_max":458,"o":"m 98 1194 l 238 1194 l 238 717 l 376 772 l 376 669 l 238 614 l 238 116 l 458 116 l 458 0 l 98 0 l 98 557 l -1 518 l -1 621 l 98 661 l 98 1194 z "},"ł":{"ha":469,"x_min":51,"x_max":408,"o":"m 146 1206 l 286 1206 l 286 728 l 408 782 l 408 669 l 286 615 l 286 0 l 146 0 l 146 553 l 51 511 l 51 625 l 146 667 l 146 1206 z "},"Ń":{"ha":688,"x_min":98,"x_max":590,"o":"m 466 1194 l 590 1194 l 590 0 l 487 0 l 219 819 l 227 518 l 227 0 l 98 0 l 98 1194 l 203 1194 l 480 381 l 466 726 l 466 1194 m 216 1361 l 500 1479 l 500 1344 l 216 1286 l 216 1361 z "},"ń":{"ha":658,"x_min":100,"x_max":565,"o":"m 239 909 q 298 995 252 959 q 412 1030 344 1030 q 523 975 480 1030 q 565 811 565 920 l 565 0 l 426 0 l 426 810 q 402 888 426 862 q 336 913 378 913 q 267 884 294 913 q 239 797 239 855 l 239 0 l 100 0 l 100 1017 l 239 1017 l 239 909 m 201 1185 l 485 1303 l 485 1168 l 201 1109 l 201 1185 z "},"Ņ":{"ha":688,"x_min":98,"x_max":590,"o":"m 252 -105 l 410 -105 l 410 -253 l 353 -454 l 292 -454 l 325 -259 l 252 -259 l 252 -105 m 466 1194 l 590 1194 l 590 0 l 487 0 l 219 819 l 227 518 l 227 0 l 98 0 l 98 1194 l 203 1194 l 480 381 l 466 726 l 466 1194 z "},"ņ":{"ha":658,"x_min":100,"x_max":565,"o":"m 237 -105 l 395 -105 l 395 -253 l 338 -454 l 277 -454 l 310 -259 l 237 -259 l 237 -105 m 239 909 q 298 995 252 959 q 412 1030 344 1030 q 523 975 480 1030 q 565 811 565 920 l 565 0 l 426 0 l 426 810 q 402 888 426 862 q 336 913 378 913 q 267 884 294 913 q 239 797 239 855 l 239 0 l 100 0 l 100 1017 l 239 1017 l 239 909 z "},"Ň":{"ha":688,"x_min":98,"x_max":590,"o":"m 466 1194 l 590 1194 l 590 0 l 487 0 l 219 819 l 227 518 l 227 0 l 98 0 l 98 1194 l 203 1194 l 480 381 l 466 726 l 466 1194 m 402 1455 l 526 1455 l 422 1256 l 265 1256 l 161 1455 l 286 1455 l 344 1316 l 402 1455 z "},"ň":{"ha":658,"x_min":100,"x_max":565,"o":"m 239 909 q 298 995 252 959 q 412 1030 344 1030 q 523 975 480 1030 q 565 811 565 920 l 565 0 l 426 0 l 426 810 q 402 888 426 862 q 336 913 378 913 q 267 884 294 913 q 239 797 239 855 l 239 0 l 100 0 l 100 1017 l 239 1017 l 239 909 m 387 1279 l 511 1279 l 408 1080 l 250 1080 l 146 1279 l 271 1279 l 329 1140 l 387 1279 z "},"Ō":{"ha":640,"x_min":84,"x_max":556,"o":"m 84 869 q 157 1149 84 1073 q 325 1208 215 1208 q 530 1077 485 1208 q 556 869 556 999 l 556 343 q 504 72 556 157 q 321 -14 452 -14 q 137 72 191 -14 q 84 343 84 157 l 84 869 m 416 878 q 397 1040 416 992 q 323 1088 379 1088 q 246 1039 268 1088 q 224 878 224 990 l 224 342 q 243 156 224 205 q 320 107 262 107 q 397 157 378 107 q 416 342 416 207 l 416 878 m 145 1360 l 485 1360 l 485 1271 l 145 1271 l 145 1360 z "},"ō":{"ha":620,"x_min":84,"x_max":536,"o":"m 84 696 q 198 1005 84 944 q 305 1029 244 1029 q 509 901 465 1029 q 536 696 536 821 l 536 336 q 478 55 536 122 q 311 -12 420 -12 q 109 123 152 -12 q 84 336 84 201 l 84 696 m 396 724 q 355 901 396 869 q 311 913 338 913 q 240 864 256 913 q 224 724 224 814 l 224 298 q 266 117 224 148 q 308 104 283 104 q 311 104 309 104 q 380 154 364 104 q 396 298 396 205 l 396 724 m 135 1183 l 475 1183 l 475 1093 l 135 1093 l 135 1183 z "},"Ŏ":{"ha":640,"x_min":84,"x_max":556,"o":"m 406 1436 l 478 1436 l 478 1428 q 438 1314 478 1354 q 319 1274 398 1274 q 200 1314 240 1274 q 159 1426 159 1353 l 159 1436 l 231 1436 q 319 1354 231 1354 q 382 1372 359 1354 q 406 1436 406 1389 m 84 869 q 157 1149 84 1073 q 325 1208 215 1208 q 530 1077 485 1208 q 556 869 556 999 l 556 343 q 504 72 556 157 q 321 -14 452 -14 q 137 72 191 -14 q 84 343 84 157 l 84 869 m 416 878 q 397 1040 416 992 q 323 1088 379 1088 q 246 1039 268 1088 q 224 878 224 990 l 224 342 q 243 156 224 205 q 320 107 262 107 q 397 157 378 107 q 416 342 416 207 l 416 878 z "},"ŏ":{"ha":620,"x_min":84,"x_max":536,"o":"m 396 1259 l 468 1259 l 468 1250 q 428 1136 468 1176 q 309 1097 388 1097 q 190 1136 230 1097 q 149 1249 149 1175 l 149 1259 l 221 1259 q 309 1177 221 1177 q 372 1194 349 1177 q 396 1259 396 1211 m 84 696 q 198 1005 84 944 q 305 1029 244 1029 q 509 901 465 1029 q 536 696 536 821 l 536 336 q 478 55 536 122 q 311 -12 420 -12 q 109 123 152 -12 q 84 336 84 201 l 84 696 m 396 724 q 355 901 396 869 q 311 913 338 913 q 240 864 256 913 q 224 724 224 814 l 224 298 q 266 117 224 148 q 308 104 283 104 q 311 104 309 104 q 380 154 364 104 q 396 298 396 205 l 396 724 z "},"Ő":{"ha":640,"x_min":84,"x_max":591,"o":"m 84 869 q 157 1149 84 1073 q 325 1208 215 1208 q 530 1077 485 1208 q 556 869 556 999 l 556 343 q 504 72 556 157 q 321 -14 452 -14 q 137 72 191 -14 q 84 343 84 157 l 84 869 m 416 878 q 397 1040 416 992 q 323 1088 379 1088 q 246 1039 268 1088 q 224 878 224 990 l 224 342 q 243 156 224 205 q 320 107 262 107 q 397 157 378 107 q 416 342 416 207 l 416 878 m 338 1334 l 464 1615 l 591 1551 l 399 1303 l 338 1334 m 140 1334 l 227 1615 l 353 1556 l 201 1308 l 140 1334 z "},"ő":{"ha":620,"x_min":84,"x_max":581,"o":"m 84 696 q 198 1005 84 944 q 305 1029 244 1029 q 509 901 465 1029 q 536 696 536 821 l 536 336 q 478 55 536 122 q 311 -12 420 -12 q 109 123 152 -12 q 84 336 84 201 l 84 696 m 396 724 q 355 901 396 869 q 311 913 338 913 q 240 864 256 913 q 224 724 224 814 l 224 298 q 266 117 224 148 q 308 104 283 104 q 311 104 309 104 q 380 154 364 104 q 396 298 396 205 l 396 724 m 328 1156 l 454 1438 l 581 1373 l 389 1125 l 328 1156 m 130 1156 l 217 1438 l 342 1379 l 191 1131 l 130 1156 z "},"Œ":{"ha":823,"x_min":84,"x_max":758,"o":"m 324 1194 l 754 1194 l 754 1077 l 553 1077 l 553 669 l 743 669 l 743 551 l 553 551 l 553 117 l 758 117 l 758 0 l 321 0 q 137 80 189 0 q 84 344 84 160 l 84 869 q 134 1111 84 1028 q 324 1194 184 1194 m 413 121 l 413 1072 l 324 1072 q 245 1029 267 1072 q 224 877 224 987 l 224 342 q 242 165 224 208 q 321 121 260 121 l 413 121 z "},"œ":{"ha":921,"x_min":84,"x_max":843,"o":"m 470 951 q 629 1029 528 1029 q 821 897 781 1029 q 842 666 842 823 q 843 578 842 614 q 842 502 843 507 l 538 502 l 538 301 q 559 136 538 169 q 622 104 581 104 q 680 132 663 104 q 700 201 696 159 q 704 312 704 243 q 703 381 704 380 l 841 381 l 841 340 q 818 113 841 177 q 749 18 795 48 q 623 -12 703 -12 q 467 65 522 -12 q 313 -12 410 -12 q 110 123 153 -12 q 84 337 84 203 l 84 696 q 200 1005 84 943 q 313 1029 246 1029 q 470 951 412 1029 m 399 724 q 376 877 399 841 q 319 913 353 913 q 241 863 257 913 q 224 724 224 812 l 224 298 q 267 117 224 148 q 310 104 285 104 q 313 104 311 104 q 382 155 366 104 q 399 298 399 206 l 399 724 m 704 728 q 696 859 704 837 q 677 898 688 880 q 635 915 666 915 q 549 842 563 915 q 539 720 539 796 l 539 603 l 704 603 l 704 728 z "},"Ŕ":{"ha":646,"x_min":98,"x_max":573,"o":"m 98 1194 l 348 1194 q 501 1149 454 1194 q 557 1000 548 1105 q 562 864 562 956 q 537 710 562 772 q 452 629 513 648 q 520 582 497 622 q 553 456 543 543 q 562 199 562 370 q 573 0 562 28 l 433 0 q 422 402 422 22 q 397 551 422 530 q 321 572 372 572 l 238 576 l 238 0 l 98 0 l 98 1194 m 422 901 q 398 1061 422 1039 q 326 1082 373 1082 l 238 1082 l 238 680 l 328 680 q 387 695 368 680 q 414 755 406 711 q 422 893 422 799 l 422 901 m 199 1361 l 483 1479 l 483 1344 l 199 1286 l 199 1361 z "},"ŕ":{"ha":441,"x_min":100,"x_max":415,"o":"m 412 1029 q 415 941 415 1029 l 414 911 q 239 827 292 911 l 239 0 l 100 0 l 100 1017 l 239 1017 l 239 904 q 301 997 257 964 q 412 1029 346 1029 m 117 1185 l 401 1303 l 401 1168 l 117 1109 l 117 1185 z "},"Ŗ":{"ha":646,"x_min":98,"x_max":573,"o":"m 235 -105 l 393 -105 l 393 -253 l 336 -454 l 275 -454 l 308 -259 l 235 -259 l 235 -105 m 98 1194 l 348 1194 q 501 1149 454 1194 q 557 1000 548 1105 q 562 864 562 956 q 537 710 562 772 q 452 629 513 648 q 520 582 497 622 q 553 456 543 543 q 562 199 562 370 q 573 0 562 28 l 433 0 q 422 402 422 22 q 397 551 422 530 q 321 572 372 572 l 238 576 l 238 0 l 98 0 l 98 1194 m 422 901 q 398 1061 422 1039 q 326 1082 373 1082 l 238 1082 l 238 680 l 328 680 q 387 695 368 680 q 414 755 406 711 q 422 893 422 799 l 422 901 z "},"ŗ":{"ha":441,"x_min":100,"x_max":415,"o":"m 103 -105 l 262 -105 l 262 -253 l 204 -454 l 143 -454 l 176 -259 l 103 -259 l 103 -105 m 412 1029 q 415 941 415 1029 l 414 911 q 239 827 292 911 l 239 0 l 100 0 l 100 1017 l 239 1017 l 239 904 q 301 997 257 964 q 412 1029 346 1029 z "},"Ř":{"ha":646,"x_min":98,"x_max":573,"o":"m 98 1194 l 348 1194 q 501 1149 454 1194 q 557 1000 548 1105 q 562 864 562 956 q 537 710 562 772 q 452 629 513 648 q 520 582 497 622 q 553 456 543 543 q 562 199 562 370 q 573 0 562 28 l 433 0 q 422 402 422 22 q 397 551 422 530 q 321 572 372 572 l 238 576 l 238 0 l 98 0 l 98 1194 m 422 901 q 398 1061 422 1039 q 326 1082 373 1082 l 238 1082 l 238 680 l 328 680 q 387 695 368 680 q 414 755 406 711 q 422 893 422 799 l 422 901 m 385 1455 l 509 1455 l 406 1256 l 248 1256 l 144 1455 l 269 1455 l 327 1316 l 385 1455 z "},"ř":{"ha":441,"x_min":62,"x_max":428,"o":"m 412 1029 q 415 941 415 1029 l 414 911 q 239 827 292 911 l 239 0 l 100 0 l 100 1017 l 239 1017 l 239 904 q 301 997 257 964 q 412 1029 346 1029 m 304 1279 l 428 1279 l 324 1080 l 167 1080 l 62 1279 l 187 1279 l 245 1140 l 304 1279 z "},"Ś":{"ha":588,"x_min":72,"x_max":538,"o":"m 84 824 q 72 926 72 867 q 120 1132 72 1056 q 302 1208 168 1208 q 507 1042 476 1208 q 521 861 521 970 l 521 790 l 387 790 l 387 870 q 375 1023 387 984 q 347 1076 363 1063 q 302 1088 330 1088 q 229 1051 252 1088 q 207 941 207 1014 q 227 833 207 867 q 277 769 248 800 q 311 734 307 738 l 392 648 q 538 304 538 494 q 491 68 538 150 q 309 -14 443 -14 q 103 129 146 -14 q 78 338 78 209 q 78 345 78 342 l 78 461 l 214 461 l 214 340 q 233 158 214 209 q 304 106 252 106 q 375 131 355 106 q 398 204 395 155 q 401 315 401 254 q 292 549 401 439 l 214 627 q 84 824 109 734 m 178 1360 l 462 1478 l 462 1343 l 178 1285 l 178 1360 z "},"ś":{"ha":546,"x_min":60,"x_max":505,"o":"m 505 233 q 288 -14 505 -14 q 123 56 178 -14 q 68 281 68 126 l 68 357 l 203 357 l 203 281 q 283 105 203 105 q 346 134 327 105 q 366 233 366 162 q 264 443 366 343 q 229 476 256 450 q 192 511 201 503 q 60 790 60 637 q 117 970 60 911 q 279 1029 174 1029 q 395 1000 350 1029 q 488 712 488 939 l 488 663 l 356 663 l 356 734 q 339 866 356 823 q 279 910 321 910 q 216 884 237 910 q 195 794 195 857 q 288 603 195 695 l 361 534 q 505 233 505 397 m 159 1185 l 444 1303 l 444 1168 l 159 1109 l 159 1185 z "},"Ŝ":{"ha":588,"x_min":72,"x_max":538,"o":"m 84 824 q 72 926 72 867 q 120 1132 72 1056 q 302 1208 168 1208 q 507 1042 476 1208 q 521 861 521 970 l 521 790 l 387 790 l 387 870 q 375 1023 387 984 q 347 1076 363 1063 q 302 1088 330 1088 q 229 1051 252 1088 q 207 941 207 1014 q 227 833 207 867 q 277 769 248 800 q 311 734 307 738 l 392 648 q 538 304 538 494 q 491 68 538 150 q 309 -14 443 -14 q 103 129 146 -14 q 78 338 78 209 q 78 345 78 342 l 78 461 l 214 461 l 214 340 q 233 158 214 209 q 304 106 252 106 q 375 131 355 106 q 398 204 395 155 q 401 315 401 254 q 292 549 401 439 l 214 627 q 84 824 109 734 m 228 1455 l 385 1455 l 489 1255 l 365 1255 l 307 1394 l 248 1255 l 123 1255 l 228 1455 z "},"ŝ":{"ha":546,"x_min":60,"x_max":505,"o":"m 505 233 q 288 -14 505 -14 q 123 56 178 -14 q 68 281 68 126 l 68 357 l 203 357 l 203 281 q 283 105 203 105 q 346 134 327 105 q 366 233 366 162 q 264 443 366 343 q 229 476 256 450 q 192 511 201 503 q 60 790 60 637 q 117 970 60 911 q 279 1029 174 1029 q 395 1000 350 1029 q 488 712 488 939 l 488 663 l 356 663 l 356 734 q 339 866 356 823 q 279 910 321 910 q 216 884 237 910 q 195 794 195 857 q 288 603 195 695 l 361 534 q 505 233 505 397 m 209 1279 l 366 1279 l 470 1080 l 346 1080 l 288 1219 l 229 1080 l 104 1080 l 209 1279 z "},"Ş":{"ha":588,"x_min":72,"x_max":538,"o":"m 186 -340 q 343 -244 343 -340 q 312 -172 343 -201 q 235 -133 280 -143 l 262 0 l 309 0 l 317 -98 q 454 -269 454 -155 q 402 -372 454 -326 q 266 -418 349 -418 q 186 -406 227 -418 l 186 -340 m 84 824 q 72 926 72 867 q 120 1132 72 1056 q 302 1208 168 1208 q 507 1042 476 1208 q 521 861 521 970 l 521 790 l 387 790 l 387 870 q 375 1023 387 984 q 347 1076 363 1063 q 302 1088 330 1088 q 229 1051 252 1088 q 207 941 207 1014 q 227 833 207 867 q 277 769 248 800 q 311 734 307 738 l 392 648 q 538 304 538 494 q 491 68 538 150 q 309 -14 443 -14 q 103 129 146 -14 q 78 338 78 209 q 78 345 78 342 l 78 461 l 214 461 l 214 340 q 233 158 214 209 q 304 106 252 106 q 375 131 355 106 q 398 204 395 155 q 401 315 401 254 q 292 549 401 439 l 214 627 q 84 824 109 734 z "},"ş":{"ha":546,"x_min":60,"x_max":505,"o":"m 162 -340 q 319 -244 319 -340 q 287 -172 319 -201 q 210 -133 256 -143 l 237 0 l 284 0 l 292 -98 q 430 -269 430 -155 q 377 -372 430 -326 q 241 -418 325 -418 q 162 -406 203 -418 l 162 -340 m 505 233 q 288 -14 505 -14 q 123 56 178 -14 q 68 281 68 126 l 68 357 l 203 357 l 203 281 q 283 105 203 105 q 346 134 327 105 q 366 233 366 162 q 264 443 366 343 q 229 476 256 450 q 192 511 201 503 q 60 790 60 637 q 117 970 60 911 q 279 1029 174 1029 q 395 1000 350 1029 q 488 712 488 939 l 488 663 l 356 663 l 356 734 q 339 866 356 823 q 279 910 321 910 q 216 884 237 910 q 195 794 195 857 q 288 603 195 695 l 361 534 q 505 233 505 397 z "},"Š":{"ha":588,"x_min":72,"x_max":538,"o":"m 84 824 q 72 926 72 867 q 120 1132 72 1056 q 302 1208 168 1208 q 507 1042 476 1208 q 521 861 521 970 l 521 790 l 387 790 l 387 870 q 375 1023 387 984 q 347 1076 363 1063 q 302 1088 330 1088 q 229 1051 252 1088 q 207 941 207 1014 q 227 833 207 867 q 277 769 248 800 q 311 734 307 738 l 392 648 q 538 304 538 494 q 491 68 538 150 q 309 -14 443 -14 q 103 129 146 -14 q 78 338 78 209 q 78 345 78 342 l 78 461 l 214 461 l 214 340 q 233 158 214 209 q 304 106 252 106 q 375 131 355 106 q 398 204 395 155 q 401 315 401 254 q 292 549 401 439 l 214 627 q 84 824 109 734 m 365 1455 l 489 1455 l 385 1255 l 228 1255 l 123 1455 l 248 1455 l 307 1316 l 365 1455 z "},"š":{"ha":546,"x_min":60,"x_max":505,"o":"m 505 233 q 288 -14 505 -14 q 123 56 178 -14 q 68 281 68 126 l 68 357 l 203 357 l 203 281 q 283 105 203 105 q 346 134 327 105 q 366 233 366 162 q 264 443 366 343 q 229 476 256 450 q 192 511 201 503 q 60 790 60 637 q 117 970 60 911 q 279 1029 174 1029 q 395 1000 350 1029 q 488 712 488 939 l 488 663 l 356 663 l 356 734 q 339 866 356 823 q 279 910 321 910 q 216 884 237 910 q 195 794 195 857 q 288 603 195 695 l 361 534 q 505 233 505 397 m 346 1279 l 470 1279 l 366 1080 l 209 1080 l 104 1279 l 229 1279 l 288 1140 l 346 1279 z "},"Ť":{"ha":429,"x_min":19,"x_max":413,"o":"m 19 1194 l 413 1194 l 413 1077 l 290 1077 l 290 0 l 151 0 l 151 1077 l 19 1077 l 19 1194 m 273 1455 l 397 1455 l 294 1256 l 136 1256 l 32 1455 l 157 1455 l 215 1316 l 273 1455 z "},"ť":{"ha":415,"x_min":31,"x_max":658,"o":"m 124 1194 l 263 1194 l 263 1009 l 373 1009 l 373 906 l 263 906 l 263 163 q 281 114 263 124 q 374 104 300 104 l 374 -6 l 279 -6 q 153 29 182 -6 q 124 151 124 64 l 124 906 l 31 906 l 31 1009 l 124 1009 l 124 1194 m 448 1194 l 658 1194 l 658 1038 l 573 745 l 486 745 l 548 1031 l 448 1031 l 448 1194 z "},"Ũ":{"ha":653,"x_min":91,"x_max":562,"o":"m 115 1323 q 163 1408 133 1386 q 230 1430 193 1430 q 333 1405 267 1430 q 414 1380 400 1380 l 417 1380 q 437 1391 429 1382 q 455 1428 446 1400 l 538 1409 l 532 1384 q 492 1298 515 1320 q 432 1276 468 1276 q 332 1303 396 1276 q 249 1331 268 1331 q 219 1329 229 1331 q 190 1290 208 1326 l 115 1323 m 422 1194 l 562 1194 l 562 307 q 510 62 562 139 q 328 -14 457 -14 q 144 62 198 -14 q 91 307 91 139 l 91 1194 l 231 1194 l 231 310 q 241 167 231 191 q 262 130 251 144 q 328 104 281 104 q 397 133 374 104 q 421 218 419 161 q 422 309 422 274 l 422 1194 z "},"ũ":{"ha":656,"x_min":93,"x_max":557,"o":"m 126 1147 q 174 1233 144 1211 q 241 1255 204 1255 q 345 1230 278 1255 q 426 1204 412 1204 l 429 1204 q 449 1216 440 1206 q 467 1253 457 1225 l 550 1234 l 544 1208 q 503 1122 527 1144 q 444 1100 479 1100 q 343 1128 408 1100 q 260 1156 279 1156 q 230 1153 241 1156 q 201 1114 220 1151 l 126 1147 m 418 1017 l 557 1017 l 557 0 l 418 0 l 418 104 q 362 19 401 52 q 255 -14 322 -14 q 141 42 189 -14 q 93 212 93 97 l 93 1017 l 232 1017 l 232 227 q 319 107 232 107 q 393 141 368 107 q 418 231 418 175 l 418 1017 z "},"Ū":{"ha":653,"x_min":91,"x_max":562,"o":"m 152 1358 l 492 1358 l 492 1269 l 152 1269 l 152 1358 m 422 1194 l 562 1194 l 562 307 q 510 62 562 139 q 328 -14 457 -14 q 144 62 198 -14 q 91 307 91 139 l 91 1194 l 231 1194 l 231 310 q 241 167 231 191 q 262 130 251 144 q 328 104 281 104 q 397 133 374 104 q 421 218 419 161 q 422 309 422 274 l 422 1194 z "},"ū":{"ha":656,"x_min":93,"x_max":557,"o":"m 163 1183 l 503 1183 l 503 1093 l 163 1093 l 163 1183 m 418 1017 l 557 1017 l 557 0 l 418 0 l 418 104 q 362 19 401 52 q 255 -14 322 -14 q 141 42 189 -14 q 93 212 93 97 l 93 1017 l 232 1017 l 232 227 q 319 107 232 107 q 393 141 368 107 q 418 231 418 175 l 418 1017 z "},"Ŭ":{"ha":653,"x_min":91,"x_max":562,"o":"m 413 1434 l 485 1434 l 485 1426 q 445 1312 485 1352 q 326 1272 405 1272 q 207 1312 247 1272 q 166 1424 166 1351 l 166 1434 l 238 1434 q 326 1352 238 1352 q 389 1370 366 1352 q 413 1434 413 1387 m 422 1194 l 562 1194 l 562 307 q 510 62 562 139 q 328 -14 457 -14 q 144 62 198 -14 q 91 307 91 139 l 91 1194 l 231 1194 l 231 310 q 241 167 231 191 q 262 130 251 144 q 328 104 281 104 q 397 133 374 104 q 421 218 419 161 q 422 309 422 274 l 422 1194 z "},"ŭ":{"ha":656,"x_min":93,"x_max":557,"o":"m 425 1259 l 496 1259 l 496 1250 q 456 1136 496 1176 q 337 1097 416 1097 q 218 1136 258 1097 q 178 1249 178 1175 l 178 1259 l 250 1259 q 338 1177 250 1177 q 401 1194 377 1177 q 425 1259 425 1211 m 418 1017 l 557 1017 l 557 0 l 418 0 l 418 104 q 362 19 401 52 q 255 -14 322 -14 q 141 42 189 -14 q 93 212 93 97 l 93 1017 l 232 1017 l 232 227 q 319 107 232 107 q 393 141 368 107 q 418 231 418 175 l 418 1017 z "},"Ů":{"ha":653,"x_min":91,"x_max":562,"o":"m 422 1194 l 562 1194 l 562 307 q 510 62 562 139 q 328 -14 457 -14 q 144 62 198 -14 q 91 307 91 139 l 91 1194 l 231 1194 l 231 310 q 241 167 231 191 q 262 130 251 144 q 328 104 281 104 q 397 133 374 104 q 421 218 419 161 q 422 309 422 274 l 422 1194 m 332 1258 q 300 1258 332 1258 q 232 1295 269 1258 q 196 1385 196 1332 q 232 1475 196 1438 q 332 1512 269 1512 q 431 1475 395 1512 q 467 1385 467 1438 q 431 1295 467 1332 q 332 1258 395 1258 m 387 1330 q 396 1342 387 1330 q 406 1385 406 1354 q 387 1441 406 1417 q 332 1464 367 1464 q 278 1441 298 1464 q 259 1385 259 1417 q 278 1330 259 1354 q 332 1307 298 1307 q 387 1330 367 1307 z "},"ů":{"ha":656,"x_min":93,"x_max":557,"o":"m 418 1017 l 557 1017 l 557 0 l 418 0 l 418 104 q 362 19 401 52 q 255 -14 322 -14 q 141 42 189 -14 q 93 212 93 97 l 93 1017 l 232 1017 l 232 227 q 319 107 232 107 q 393 141 368 107 q 418 231 418 175 l 418 1017 m 338 1082 q 306 1082 338 1082 q 238 1119 275 1082 q 202 1210 202 1156 q 238 1300 202 1263 q 338 1337 275 1337 q 437 1300 401 1337 q 473 1210 473 1263 q 437 1119 473 1156 q 338 1082 401 1082 m 393 1155 q 402 1166 393 1155 q 412 1210 412 1178 q 393 1265 412 1242 q 338 1289 373 1289 q 284 1265 304 1289 q 265 1210 265 1242 q 284 1155 265 1178 q 338 1131 304 1131 q 393 1155 373 1131 z "},"Ű":{"ha":653,"x_min":91,"x_max":598,"o":"m 345 1332 l 471 1613 l 598 1549 l 406 1301 l 345 1332 m 147 1332 l 234 1613 l 359 1554 l 208 1306 l 147 1332 m 422 1194 l 562 1194 l 562 307 q 510 62 562 139 q 328 -14 457 -14 q 144 62 198 -14 q 91 307 91 139 l 91 1194 l 231 1194 l 231 310 q 241 167 231 191 q 262 130 251 144 q 328 104 281 104 q 397 133 374 104 q 421 218 419 161 q 422 309 422 274 l 422 1194 z "},"ű":{"ha":656,"x_min":93,"x_max":610,"o":"m 357 1156 l 482 1438 l 610 1373 l 417 1125 l 357 1156 m 159 1156 l 245 1438 l 371 1379 l 220 1131 l 159 1156 m 418 1017 l 557 1017 l 557 0 l 418 0 l 418 104 q 362 19 401 52 q 255 -14 322 -14 q 141 42 189 -14 q 93 212 93 97 l 93 1017 l 232 1017 l 232 227 q 319 107 232 107 q 393 141 368 107 q 418 231 418 175 l 418 1017 z "},"Ų":{"ha":653,"x_min":91,"x_max":562,"o":"m 422 1194 l 562 1194 l 562 307 q 510 62 562 139 q 328 -14 457 -14 q 144 62 198 -14 q 91 307 91 139 l 91 1194 l 231 1194 l 231 310 q 241 167 231 191 q 262 130 251 144 q 328 104 281 104 q 397 133 374 104 q 421 218 419 161 q 422 309 422 274 l 422 1194 m 327 5 l 385 5 q 286 -123 323 -56 q 249 -237 249 -190 q 350 -332 249 -332 q 439 -318 399 -332 l 439 -396 q 391 -412 426 -404 q 325 -420 357 -420 q 189 -377 235 -420 q 142 -263 142 -334 q 191 -118 142 -193 q 327 5 240 -44 z "},"ų":{"ha":656,"x_min":93,"x_max":578,"o":"m 418 1017 l 557 1017 l 557 0 l 418 0 l 418 104 q 362 19 401 52 q 255 -14 322 -14 q 141 42 189 -14 q 93 212 93 97 l 93 1017 l 232 1017 l 232 227 q 319 107 232 107 q 393 141 368 107 q 418 231 418 175 l 418 1017 m 466 5 l 524 5 q 425 -123 462 -56 q 388 -237 388 -190 q 489 -332 388 -332 q 578 -318 538 -332 l 578 -396 q 530 -412 565 -404 q 464 -420 496 -420 q 328 -377 374 -420 q 281 -263 281 -334 q 330 -118 281 -193 q 466 5 379 -44 z "},"Ŵ":{"ha":922,"x_min":43,"x_max":879,"o":"m 750 1194 l 879 1194 l 738 0 l 599 0 l 471 881 l 336 0 l 201 0 l 43 1194 l 173 1194 l 275 279 l 410 1194 l 525 1194 l 664 279 l 750 1194 m 395 1455 l 552 1455 l 656 1256 l 532 1256 l 473 1395 l 415 1256 l 290 1256 l 395 1455 z "},"ŵ":{"ha":787,"x_min":35,"x_max":751,"o":"m 637 1017 l 751 1017 l 629 0 l 500 0 l 398 796 l 276 0 l 153 0 l 35 1017 l 151 1017 l 205 451 l 220 256 l 227 256 l 252 452 l 333 1017 l 454 1017 l 535 467 l 563 256 l 568 256 l 585 467 l 637 1017 m 319 1279 l 477 1279 l 581 1080 l 456 1080 l 398 1219 l 340 1080 l 215 1080 l 319 1279 z "},"Ŷ":{"ha":567,"x_min":14,"x_max":554,"o":"m 209 1455 l 366 1455 l 470 1256 l 346 1256 l 288 1395 l 229 1256 l 104 1256 l 209 1455 m 416 1194 l 554 1194 l 361 501 l 361 0 l 221 0 l 221 501 l 14 1194 l 150 1194 l 291 705 l 294 705 l 416 1194 z "},"ŷ":{"ha":536,"x_min":35,"x_max":513,"o":"m 195 1279 l 352 1279 l 456 1080 l 332 1080 l 273 1219 l 215 1080 l 90 1080 l 195 1279 m 378 1017 l 513 1017 l 344 -20 q 313 -130 332 -104 q 271 -163 294 -156 q 210 -170 248 -170 l 74 -170 l 74 -65 l 122 -65 q 201 -49 193 -65 q 207 -20 207 -41 q 201 36 207 2 l 35 1017 l 170 1017 l 243 488 l 273 213 l 286 213 l 312 488 l 378 1017 z "},"Ÿ":{"ha":567,"x_min":14,"x_max":554,"o":"m 374 1394 l 530 1394 l 530 1274 l 374 1274 l 374 1394 m 45 1394 l 201 1394 l 201 1274 l 45 1274 l 45 1394 m 416 1194 l 554 1194 l 361 501 l 361 0 l 221 0 l 221 501 l 14 1194 l 150 1194 l 291 705 l 294 705 l 416 1194 z "},"Ź":{"ha":518,"x_min":78,"x_max":469,"o":"m 100 1194 l 469 1194 l 469 1086 l 223 117 l 464 117 l 464 0 l 78 0 l 78 121 l 324 1077 l 100 1077 l 100 1194 m 163 1361 l 448 1479 l 448 1344 l 163 1286 l 163 1361 z "},"ź":{"ha":461,"x_min":52,"x_max":419,"o":"m 68 1017 l 419 1017 l 419 922 l 195 119 l 408 119 l 408 0 l 52 0 l 52 104 l 275 897 l 68 897 l 68 1017 m 134 1185 l 418 1303 l 418 1168 l 134 1109 l 134 1185 z "},"Ż":{"ha":518,"x_min":78,"x_max":469,"o":"m 222 1385 l 367 1385 l 367 1265 l 222 1265 l 222 1385 m 100 1194 l 469 1194 l 469 1086 l 223 117 l 464 117 l 464 0 l 78 0 l 78 121 l 324 1077 l 100 1077 l 100 1194 z "},"ż":{"ha":461,"x_min":52,"x_max":419,"o":"m 193 1209 l 338 1209 l 338 1088 l 193 1088 l 193 1209 m 68 1017 l 419 1017 l 419 922 l 195 119 l 408 119 l 408 0 l 52 0 l 52 104 l 275 897 l 68 897 l 68 1017 z "},"Ž":{"ha":518,"x_min":78,"x_max":474,"o":"m 100 1194 l 469 1194 l 469 1086 l 223 117 l 464 117 l 464 0 l 78 0 l 78 121 l 324 1077 l 100 1077 l 100 1194 m 350 1455 l 474 1455 l 370 1256 l 213 1256 l 109 1455 l 233 1455 l 292 1316 l 350 1455 z "},"ž":{"ha":461,"x_min":52,"x_max":445,"o":"m 68 1017 l 419 1017 l 419 922 l 195 119 l 408 119 l 408 0 l 52 0 l 52 104 l 275 897 l 68 897 l 68 1017 m 321 1279 l 445 1279 l 341 1080 l 184 1080 l 79 1279 l 204 1279 l 262 1140 l 321 1279 z "},"ƒ":{"ha":520,"x_min":73,"x_max":449,"o":"m 78 106 l 113 104 q 179 124 165 104 q 194 207 194 144 l 194 747 l 73 747 l 73 851 l 194 851 l 194 1044 q 328 1211 194 1211 q 442 1188 382 1211 l 442 1087 q 374 1100 399 1100 q 337 1081 349 1100 q 326 1019 326 1062 l 326 851 l 449 851 l 449 747 l 326 747 l 326 150 q 183 -10 326 -10 q 78 5 134 -10 l 78 106 z "},"Ǆ":{"ha":1159,"x_min":97,"x_max":1115,"o":"m 741 1194 l 1110 1194 l 1110 1086 l 864 117 l 1105 117 l 1105 0 l 719 0 l 719 121 l 965 1077 l 741 1077 l 741 1194 m 991 1455 l 1115 1455 l 1011 1256 l 854 1256 l 749 1455 l 874 1455 l 932 1316 l 991 1455 m 97 1194 l 321 1194 q 510 1109 458 1194 q 562 869 562 1025 l 562 345 q 506 81 562 161 q 317 0 450 0 l 97 0 l 97 1194 m 422 873 q 395 1034 422 985 q 309 1082 369 1082 l 237 1082 l 237 113 l 309 113 q 372 130 349 113 q 422 323 422 165 l 422 873 z "},"ǅ":{"ha":1102,"x_min":97,"x_max":1086,"o":"m 709 1017 l 1060 1017 l 1060 922 l 836 119 l 1048 119 l 1048 0 l 692 0 l 692 104 l 916 897 l 709 897 l 709 1017 m 962 1279 l 1086 1279 l 982 1080 l 825 1080 l 720 1279 l 845 1279 l 903 1140 l 962 1279 m 97 1194 l 321 1194 q 510 1109 458 1194 q 562 869 562 1025 l 562 345 q 506 81 562 161 q 317 0 450 0 l 97 0 l 97 1194 m 422 873 q 395 1034 422 985 q 309 1082 369 1082 l 237 1082 l 237 113 l 309 113 q 372 130 349 113 q 422 323 422 165 l 422 873 z "},"ǆ":{"ha":1097,"x_min":84,"x_max":1081,"o":"m 705 1017 l 1055 1017 l 1055 922 l 831 119 l 1044 119 l 1044 0 l 688 0 l 688 104 l 911 897 l 705 897 l 705 1017 m 957 1279 l 1081 1279 l 977 1080 l 820 1080 l 715 1279 l 840 1279 l 899 1140 l 957 1279 m 397 1206 l 537 1206 l 537 0 l 397 0 l 397 85 q 257 -9 359 -9 q 92 176 117 -9 q 84 326 84 238 l 84 710 q 144 970 84 894 q 278 1029 191 1029 q 348 1007 316 1029 q 397 949 380 985 l 397 1206 m 398 712 q 380 866 398 819 q 311 913 362 913 q 242 866 260 913 q 224 709 224 819 l 224 298 q 263 117 224 149 q 309 104 279 104 q 358 121 339 104 q 398 304 398 155 l 398 712 z "},"Ǉ":{"ha":1065,"x_min":98,"x_max":970,"o":"m 829 1194 l 970 1194 l 970 289 q 757 -14 970 -14 q 591 55 644 -14 q 538 264 538 123 l 538 420 l 675 420 l 675 273 q 684 161 675 182 q 700 129 692 141 q 754 105 716 105 q 807 131 791 105 q 826 193 823 156 q 829 283 829 230 l 829 1194 m 98 1194 l 238 1194 l 238 116 l 458 116 l 458 0 l 98 0 l 98 1194 z "},"ǈ":{"ha":844,"x_min":98,"x_max":745,"o":"m 537 -38 q 557 -39 547 -39 q 572 -39 567 -39 q 606 7 606 -35 l 606 1017 l 745 1017 l 745 14 q 712 -102 745 -66 q 633 -142 680 -139 q 581 -143 618 -143 q 533 -136 544 -143 l 533 -38 l 537 -38 m 605 1238 l 745 1238 l 745 1111 l 605 1111 l 605 1238 m 98 1194 l 238 1194 l 238 116 l 458 116 l 458 0 l 98 0 l 98 1194 z "},"ǉ":{"ha":701,"x_min":100,"x_max":602,"o":"m 394 -38 q 414 -39 404 -39 q 429 -39 424 -39 q 463 7 463 -35 l 463 1017 l 602 1017 l 602 14 q 569 -102 602 -66 q 490 -142 536 -139 q 438 -143 475 -143 q 390 -136 401 -143 l 390 -38 l 394 -38 m 462 1238 l 602 1238 l 602 1111 l 462 1111 l 462 1238 m 100 1206 l 239 1206 l 239 0 l 100 0 l 100 1206 z "},"Ǌ":{"ha":1270,"x_min":98,"x_max":1175,"o":"m 1034 1194 l 1175 1194 l 1175 289 q 962 -14 1175 -14 q 796 55 849 -14 q 743 264 743 123 l 743 420 l 880 420 l 880 273 q 888 161 880 182 q 905 129 897 141 q 959 105 921 105 q 1012 131 996 105 q 1031 193 1028 156 q 1034 283 1034 230 l 1034 1194 m 466 1194 l 590 1194 l 590 0 l 487 0 l 219 819 l 227 518 l 227 0 l 98 0 l 98 1194 l 203 1194 l 480 381 l 466 726 l 466 1194 z "},"ǋ":{"ha":1049,"x_min":98,"x_max":950,"o":"m 742 -38 q 762 -39 751 -39 q 777 -39 772 -39 q 811 7 811 -35 l 811 1017 l 950 1017 l 950 14 q 917 -102 950 -66 q 838 -142 884 -139 q 786 -143 823 -143 q 738 -136 749 -143 l 738 -38 l 742 -38 m 810 1238 l 949 1238 l 949 1111 l 810 1111 l 810 1238 m 466 1194 l 590 1194 l 590 0 l 487 0 l 219 819 l 227 518 l 227 0 l 98 0 l 98 1194 l 203 1194 l 480 381 l 466 726 l 466 1194 z "},"ǌ":{"ha":1019,"x_min":100,"x_max":920,"o":"m 712 -38 q 732 -39 722 -39 q 747 -39 742 -39 q 781 7 781 -35 l 781 1017 l 920 1017 l 920 14 q 887 -102 920 -66 q 808 -142 854 -139 q 756 -143 793 -143 q 708 -136 719 -143 l 708 -38 l 712 -38 m 780 1238 l 920 1238 l 920 1111 l 780 1111 l 780 1238 m 239 909 q 298 995 252 959 q 412 1030 344 1030 q 523 975 480 1030 q 565 811 565 920 l 565 0 l 426 0 l 426 810 q 402 888 426 862 q 336 913 378 913 q 267 884 294 913 q 239 797 239 855 l 239 0 l 100 0 l 100 1017 l 239 1017 l 239 909 z "},"Ǳ":{"ha":1159,"x_min":97,"x_max":1110,"o":"m 741 1194 l 1110 1194 l 1110 1086 l 864 117 l 1105 117 l 1105 0 l 719 0 l 719 121 l 965 1077 l 741 1077 l 741 1194 m 97 1194 l 321 1194 q 510 1109 458 1194 q 562 869 562 1025 l 562 345 q 506 81 562 161 q 317 0 450 0 l 97 0 l 97 1194 m 422 873 q 395 1034 422 985 q 309 1082 369 1082 l 237 1082 l 237 113 l 309 113 q 372 130 349 113 q 422 323 422 165 l 422 873 z "},"ǲ":{"ha":1102,"x_min":97,"x_max":1060,"o":"m 709 1017 l 1060 1017 l 1060 922 l 836 119 l 1048 119 l 1048 0 l 692 0 l 692 104 l 916 897 l 709 897 l 709 1017 m 97 1194 l 321 1194 q 510 1109 458 1194 q 562 869 562 1025 l 562 345 q 506 81 562 161 q 317 0 450 0 l 97 0 l 97 1194 m 422 873 q 395 1034 422 985 q 309 1082 369 1082 l 237 1082 l 237 113 l 309 113 q 372 130 349 113 q 422 323 422 165 l 422 873 z "},"ǳ":{"ha":1097,"x_min":84,"x_max":1055,"o":"m 705 1017 l 1055 1017 l 1055 922 l 831 119 l 1044 119 l 1044 0 l 688 0 l 688 104 l 911 897 l 705 897 l 705 1017 m 397 1206 l 537 1206 l 537 0 l 397 0 l 397 85 q 257 -9 359 -9 q 92 176 117 -9 q 84 326 84 238 l 84 710 q 144 970 84 894 q 278 1029 191 1029 q 348 1007 316 1029 q 397 949 380 985 l 397 1206 m 398 712 q 380 866 398 819 q 311 913 362 913 q 242 866 260 913 q 224 709 224 819 l 224 298 q 263 117 224 149 q 309 104 279 104 q 358 121 339 104 q 398 304 398 155 l 398 712 z "},"Ǵ":{"ha":639,"x_min":84,"x_max":551,"o":"m 84 856 q 209 1183 84 1119 q 316 1208 258 1207 q 474 1161 425 1208 q 537 1039 523 1115 q 551 853 551 962 l 551 761 l 416 761 l 416 916 q 397 1047 416 1008 q 324 1086 378 1086 q 247 1037 269 1086 q 224 862 224 987 l 224 360 q 244 161 224 217 q 322 105 264 105 q 401 163 380 105 q 422 363 422 220 l 422 518 l 326 518 l 326 627 l 551 627 l 551 0 l 477 0 l 458 92 q 306 -12 418 -12 q 138 76 193 -12 q 84 355 84 164 l 84 856 m 197 1361 l 481 1479 l 481 1344 l 197 1286 l 197 1361 z "},"ǵ":{"ha":630,"x_min":81,"x_max":534,"o":"m 271 1029 q 395 943 367 1029 l 395 1017 l 534 1017 l 534 95 q 397 -138 534 -87 q 288 -155 350 -155 q 81 -90 163 -155 l 131 5 q 288 -45 205 -45 q 369 -11 342 -45 q 395 82 395 24 l 395 179 q 345 113 377 132 q 260 95 311 95 q 121 181 159 95 q 83 412 83 267 l 83 704 q 271 1029 83 1029 m 395 724 q 377 868 395 823 q 314 913 359 913 q 251 888 269 913 q 228 823 233 862 q 222 726 222 785 l 222 409 q 242 253 222 301 q 316 205 262 205 q 361 222 345 205 q 395 410 395 255 l 395 724 m 203 1185 l 488 1303 l 488 1168 l 203 1109 l 203 1185 z "},"Ȁ":{"ha":637,"x_min":36,"x_max":592,"o":"m 36 1503 l 146 1571 l 279 1322 l 216 1289 l 36 1503 m 262 1503 l 369 1571 l 477 1322 l 414 1289 l 262 1503 m 226 1194 l 395 1194 l 592 0 l 460 0 l 426 228 l 210 228 l 178 0 l 45 0 l 226 1194 m 225 342 l 408 342 l 314 972 l 312 972 l 225 342 z "},"ȁ":{"ha":628,"x_min":52,"x_max":538,"o":"m 52 1327 l 161 1395 l 295 1146 l 231 1112 l 52 1327 m 277 1327 l 385 1395 l 493 1146 l 429 1112 l 277 1327 m 397 561 q 283 501 312 522 q 240 452 255 480 q 226 359 226 424 l 226 265 q 241 140 226 176 q 295 104 257 104 q 360 126 333 104 q 397 174 387 148 l 397 561 m 98 723 q 156 968 98 907 q 320 1029 214 1029 q 474 978 427 1029 q 533 812 522 926 q 538 692 538 764 l 538 0 l 398 0 l 398 88 q 351 21 387 52 q 260 -9 314 -9 q 85 261 87 -9 l 85 360 q 133 510 85 448 q 397 651 181 572 l 397 730 q 378 887 397 861 q 314 913 359 913 q 252 873 268 913 q 237 729 237 833 l 237 694 l 98 694 l 98 723 z "},"Ȃ":{"ha":637,"x_min":45,"x_max":592,"o":"m 149 1283 q 149 1288 149 1286 q 189 1399 149 1358 q 307 1440 228 1440 q 468 1291 465 1440 l 468 1280 l 396 1279 q 309 1360 395 1360 q 244 1341 268 1360 q 221 1278 221 1324 q 221 1276 221 1277 l 149 1274 l 149 1283 m 226 1194 l 395 1194 l 592 0 l 460 0 l 426 228 l 210 228 l 178 0 l 45 0 l 226 1194 m 225 342 l 408 342 l 314 972 l 312 972 l 225 342 z "},"ȃ":{"ha":628,"x_min":85,"x_max":538,"o":"m 165 1107 q 165 1112 165 1109 q 204 1223 165 1182 q 323 1263 243 1263 q 484 1114 481 1263 l 484 1104 l 412 1103 q 325 1183 411 1183 q 260 1165 283 1183 q 237 1102 237 1147 q 237 1099 237 1101 l 165 1098 l 165 1107 m 397 561 q 283 501 312 522 q 240 452 255 480 q 226 359 226 424 l 226 265 q 241 140 226 176 q 295 104 257 104 q 360 126 333 104 q 397 174 387 148 l 397 561 m 98 723 q 156 968 98 907 q 320 1029 214 1029 q 474 978 427 1029 q 533 812 522 926 q 538 692 538 764 l 538 0 l 398 0 l 398 88 q 351 21 387 52 q 260 -9 314 -9 q 85 261 87 -9 l 85 360 q 133 510 85 448 q 397 651 181 572 l 397 730 q 378 887 397 861 q 314 913 359 913 q 252 873 268 913 q 237 729 237 833 l 237 694 l 98 694 l 98 723 z "},"Ȅ":{"ha":523,"x_min":7,"x_max":457,"o":"m 7 1503 l 117 1571 l 250 1322 l 186 1289 l 7 1503 m 233 1503 l 340 1571 l 448 1322 l 385 1289 l 233 1503 m 98 1194 l 454 1194 l 454 1077 l 238 1077 l 238 669 l 443 669 l 443 552 l 238 552 l 238 117 l 457 117 l 457 0 l 98 0 l 98 1194 z "},"ȅ":{"ha":606,"x_min":35,"x_max":528,"o":"m 35 1327 l 144 1395 l 278 1146 l 214 1112 l 35 1327 m 260 1327 l 368 1395 l 476 1146 l 412 1112 l 260 1327 m 84 702 q 153 970 84 895 q 313 1029 208 1029 q 506 897 467 1029 q 528 696 528 823 l 528 504 l 224 504 l 224 301 q 245 136 224 169 q 311 104 266 104 q 372 142 357 104 q 388 224 387 180 q 389 299 389 269 l 389 381 l 525 381 l 525 338 q 502 111 525 176 q 433 17 479 45 q 319 -12 387 -12 q 210 5 251 -12 q 145 51 169 22 q 102 142 121 79 q 84 342 84 204 l 84 702 m 389 728 q 381 859 389 836 q 361 898 373 881 q 317 915 349 915 q 239 864 256 915 q 223 723 223 812 l 223 598 l 389 598 l 389 728 z "},"Ȇ":{"ha":523,"x_min":98,"x_max":457,"o":"m 98 1194 l 454 1194 l 454 1077 l 238 1077 l 238 669 l 443 669 l 443 552 l 238 552 l 238 117 l 457 117 l 457 0 l 98 0 l 98 1194 m 119 1283 q 119 1288 119 1286 q 159 1399 119 1358 q 277 1440 198 1440 q 438 1291 435 1440 l 438 1280 l 366 1279 q 279 1360 366 1360 q 214 1341 238 1360 q 191 1278 191 1324 q 191 1276 191 1277 l 119 1274 l 119 1283 z "},"ȇ":{"ha":606,"x_min":84,"x_max":528,"o":"m 84 702 q 153 970 84 895 q 313 1029 208 1029 q 506 897 467 1029 q 528 696 528 823 l 528 504 l 224 504 l 224 301 q 245 136 224 169 q 311 104 266 104 q 372 142 357 104 q 388 224 387 180 q 389 299 389 269 l 389 381 l 525 381 l 525 338 q 502 111 525 176 q 433 17 479 45 q 319 -12 387 -12 q 210 5 251 -12 q 145 51 169 22 q 102 142 121 79 q 84 342 84 204 l 84 702 m 389 728 q 381 859 389 836 q 361 898 373 881 q 317 915 349 915 q 239 864 256 915 q 223 723 223 812 l 223 598 l 389 598 l 389 728 m 149 1107 q 149 1112 149 1109 q 188 1223 149 1182 q 307 1263 227 1263 q 467 1114 465 1263 l 467 1104 l 395 1103 q 309 1183 395 1183 q 243 1165 267 1183 q 220 1102 220 1147 q 220 1099 220 1101 l 149 1098 l 149 1107 z "},"Ȉ":{"ha":357,"x_min":-96,"x_max":345,"o":"m -96 1503 l 14 1571 l 147 1322 l 83 1289 l -96 1503 m 130 1503 l 237 1571 l 345 1322 l 281 1289 l 130 1503 m 109 1194 l 249 1194 l 249 0 l 109 0 l 109 1194 z "},"ȉ":{"ha":342,"x_min":-109,"x_max":332,"o":"m -109 1327 l 1 1395 l 134 1146 l 71 1112 l -109 1327 m 117 1327 l 224 1395 l 332 1146 l 269 1112 l 117 1327 m 101 1017 l 241 1017 l 241 0 l 101 0 l 101 1017 z "},"Ȋ":{"ha":357,"x_min":17,"x_max":336,"o":"m 17 1283 q 17 1288 17 1286 q 56 1399 17 1358 q 175 1440 96 1440 q 336 1291 333 1440 l 336 1280 l 264 1279 q 177 1360 263 1360 q 112 1341 136 1360 q 89 1278 89 1324 q 89 1276 89 1277 l 17 1274 l 17 1283 m 109 1194 l 249 1194 l 249 0 l 109 0 l 109 1194 z "},"ȋ":{"ha":342,"x_min":12,"x_max":330,"o":"m 101 1017 l 241 1017 l 241 0 l 101 0 l 101 1017 m 12 1107 q 12 1112 12 1109 q 51 1223 12 1182 q 170 1263 90 1263 q 330 1114 328 1263 l 330 1104 l 258 1103 q 172 1183 258 1183 q 106 1165 130 1183 q 83 1102 83 1147 q 83 1099 83 1101 l 12 1098 l 12 1107 z "},"Ȍ":{"ha":640,"x_min":45,"x_max":556,"o":"m 45 1505 l 155 1573 l 288 1324 l 224 1290 l 45 1505 m 271 1505 l 378 1573 l 486 1324 l 422 1290 l 271 1505 m 84 869 q 157 1149 84 1073 q 325 1208 215 1208 q 530 1077 485 1208 q 556 869 556 999 l 556 343 q 504 72 556 157 q 321 -14 452 -14 q 137 72 191 -14 q 84 343 84 157 l 84 869 m 416 878 q 397 1040 416 992 q 323 1088 379 1088 q 246 1039 268 1088 q 224 878 224 990 l 224 342 q 243 156 224 205 q 320 107 262 107 q 397 157 378 107 q 416 342 416 207 l 416 878 z "},"ȍ":{"ha":620,"x_min":35,"x_max":536,"o":"m 35 1327 l 144 1395 l 278 1146 l 214 1112 l 35 1327 m 260 1327 l 368 1395 l 476 1146 l 412 1112 l 260 1327 m 84 696 q 198 1005 84 944 q 305 1029 244 1029 q 509 901 465 1029 q 536 696 536 821 l 536 336 q 478 55 536 122 q 311 -12 420 -12 q 109 123 152 -12 q 84 336 84 201 l 84 696 m 396 724 q 355 901 396 869 q 311 913 338 913 q 240 864 256 913 q 224 724 224 814 l 224 298 q 266 117 224 148 q 308 104 283 104 q 311 104 309 104 q 380 154 364 104 q 396 298 396 205 l 396 724 z "},"Ȏ":{"ha":640,"x_min":84,"x_max":556,"o":"m 84 869 q 157 1149 84 1073 q 325 1208 215 1208 q 530 1077 485 1208 q 556 869 556 999 l 556 343 q 504 72 556 157 q 321 -14 452 -14 q 137 72 191 -14 q 84 343 84 157 l 84 869 m 416 878 q 397 1040 416 992 q 323 1088 379 1088 q 246 1039 268 1088 q 224 878 224 990 l 224 342 q 243 156 224 205 q 320 107 262 107 q 397 157 378 107 q 416 342 416 207 l 416 878 m 158 1284 q 158 1289 158 1287 q 197 1400 158 1360 q 316 1441 237 1441 q 477 1292 474 1441 l 477 1282 l 405 1280 q 318 1361 404 1361 q 253 1343 277 1361 q 230 1280 230 1325 q 230 1277 230 1278 l 158 1276 l 158 1284 z "},"ȏ":{"ha":620,"x_min":84,"x_max":536,"o":"m 84 696 q 198 1005 84 944 q 305 1029 244 1029 q 509 901 465 1029 q 536 696 536 821 l 536 336 q 478 55 536 122 q 311 -12 420 -12 q 109 123 152 -12 q 84 336 84 201 l 84 696 m 396 724 q 355 901 396 869 q 311 913 338 913 q 240 864 256 913 q 224 724 224 814 l 224 298 q 266 117 224 148 q 308 104 283 104 q 311 104 309 104 q 380 154 364 104 q 396 298 396 205 l 396 724 m 149 1107 q 149 1112 149 1109 q 188 1223 149 1182 q 307 1263 227 1263 q 467 1114 465 1263 l 467 1104 l 395 1103 q 309 1183 395 1183 q 243 1165 267 1183 q 220 1102 220 1147 q 220 1099 220 1101 l 149 1098 l 149 1107 z "},"Ȑ":{"ha":646,"x_min":52,"x_max":573,"o":"m 52 1503 l 161 1571 l 295 1322 l 231 1289 l 52 1503 m 277 1503 l 385 1571 l 493 1322 l 429 1289 l 277 1503 m 98 1194 l 348 1194 q 501 1149 454 1194 q 557 1000 548 1105 q 562 864 562 956 q 537 710 562 772 q 452 629 513 648 q 520 582 497 622 q 553 456 543 543 q 562 199 562 370 q 573 0 562 28 l 433 0 q 422 402 422 22 q 397 551 422 530 q 321 572 372 572 l 238 576 l 238 0 l 98 0 l 98 1194 m 422 901 q 398 1061 422 1039 q 326 1082 373 1082 l 238 1082 l 238 680 l 328 680 q 387 695 368 680 q 414 755 406 711 q 422 893 422 799 l 422 901 z "},"ȑ":{"ha":441,"x_min":-30,"x_max":415,"o":"m -30 1327 l 80 1395 l 214 1146 l 150 1112 l -30 1327 m 196 1327 l 303 1395 l 412 1146 l 348 1112 l 196 1327 m 412 1029 q 415 941 415 1029 l 414 911 q 239 827 292 911 l 239 0 l 100 0 l 100 1017 l 239 1017 l 239 904 q 301 997 257 964 q 412 1029 346 1029 z "},"Ȓ":{"ha":646,"x_min":98,"x_max":573,"o":"m 98 1194 l 348 1194 q 501 1149 454 1194 q 557 1000 548 1105 q 562 864 562 956 q 537 710 562 772 q 452 629 513 648 q 520 582 497 622 q 553 456 543 543 q 562 199 562 370 q 573 0 562 28 l 433 0 q 422 402 422 22 q 397 551 422 530 q 321 572 372 572 l 238 576 l 238 0 l 98 0 l 98 1194 m 422 901 q 398 1061 422 1039 q 326 1082 373 1082 l 238 1082 l 238 680 l 328 680 q 387 695 368 680 q 414 755 406 711 q 422 893 422 799 l 422 901 m 165 1283 q 165 1288 165 1286 q 205 1399 165 1358 q 323 1440 244 1440 q 484 1291 481 1440 l 484 1280 l 412 1279 q 326 1360 412 1360 q 260 1341 284 1360 q 237 1278 237 1324 q 237 1276 237 1277 l 165 1274 l 165 1283 z "},"ȓ":{"ha":441,"x_min":83,"x_max":415,"o":"m 412 1029 q 415 941 415 1029 l 414 911 q 239 827 292 911 l 239 0 l 100 0 l 100 1017 l 239 1017 l 239 904 q 301 997 257 964 q 412 1029 346 1029 m 83 1107 q 83 1112 83 1109 q 123 1223 83 1182 q 241 1263 162 1263 q 402 1114 399 1263 l 402 1104 l 330 1103 q 243 1183 330 1183 q 178 1165 202 1183 q 155 1102 155 1147 q 155 1099 155 1101 l 83 1098 l 83 1107 z "},"Ȕ":{"ha":653,"x_min":52,"x_max":562,"o":"m 52 1503 l 161 1571 l 295 1322 l 231 1288 l 52 1503 m 277 1503 l 385 1571 l 493 1322 l 429 1288 l 277 1503 m 422 1194 l 562 1194 l 562 307 q 510 62 562 139 q 328 -14 457 -14 q 144 62 198 -14 q 91 307 91 139 l 91 1194 l 231 1194 l 231 310 q 241 167 231 191 q 262 130 251 144 q 328 104 281 104 q 397 133 374 104 q 421 218 419 161 q 422 309 422 274 l 422 1194 z "},"ȕ":{"ha":656,"x_min":63,"x_max":557,"o":"m 63 1327 l 173 1395 l 307 1146 l 243 1112 l 63 1327 m 289 1327 l 396 1395 l 505 1146 l 441 1112 l 289 1327 m 418 1017 l 557 1017 l 557 0 l 418 0 l 418 104 q 362 19 401 52 q 255 -14 322 -14 q 141 42 189 -14 q 93 212 93 97 l 93 1017 l 232 1017 l 232 227 q 319 107 232 107 q 393 141 368 107 q 418 231 418 175 l 418 1017 z "},"Ȗ":{"ha":653,"x_min":91,"x_max":562,"o":"m 422 1194 l 562 1194 l 562 307 q 510 62 562 139 q 328 -14 457 -14 q 144 62 198 -14 q 91 307 91 139 l 91 1194 l 231 1194 l 231 310 q 241 167 231 191 q 262 130 251 144 q 328 104 281 104 q 397 133 374 104 q 421 218 419 161 q 422 309 422 274 l 422 1194 m 170 1282 q 170 1287 170 1285 q 210 1398 170 1358 q 328 1439 249 1439 q 489 1290 486 1439 l 489 1280 l 417 1278 q 330 1359 416 1359 q 265 1341 289 1359 q 242 1278 242 1323 q 242 1275 242 1276 l 170 1274 l 170 1282 z "},"ȗ":{"ha":656,"x_min":93,"x_max":557,"o":"m 418 1017 l 557 1017 l 557 0 l 418 0 l 418 104 q 362 19 401 52 q 255 -14 322 -14 q 141 42 189 -14 q 93 212 93 97 l 93 1017 l 232 1017 l 232 227 q 319 107 232 107 q 393 141 368 107 q 418 231 418 175 l 418 1017 m 176 1107 q 176 1112 176 1109 q 216 1223 176 1182 q 334 1263 255 1263 q 495 1114 492 1263 l 495 1104 l 423 1103 q 336 1183 422 1183 q 271 1165 295 1183 q 248 1102 248 1147 q 248 1099 248 1101 l 176 1098 l 176 1107 z "},"Ș":{"ha":588,"x_min":72,"x_max":538,"o":"m 205 -105 l 364 -105 l 364 -253 l 307 -454 l 245 -454 l 279 -259 l 205 -259 l 205 -105 m 84 824 q 72 926 72 867 q 120 1132 72 1056 q 302 1208 168 1208 q 507 1042 476 1208 q 521 861 521 970 l 521 790 l 387 790 l 387 870 q 375 1023 387 984 q 347 1076 363 1063 q 302 1088 330 1088 q 229 1051 252 1088 q 207 941 207 1014 q 227 833 207 867 q 277 769 248 800 q 311 734 307 738 l 392 648 q 538 304 538 494 q 491 68 538 150 q 309 -14 443 -14 q 103 129 146 -14 q 78 338 78 209 q 78 345 78 342 l 78 461 l 214 461 l 214 340 q 233 158 214 209 q 304 106 252 106 q 375 131 355 106 q 398 204 395 155 q 401 315 401 254 q 292 549 401 439 l 214 627 q 84 824 109 734 z "},"ș":{"ha":546,"x_min":60,"x_max":505,"o":"m 181 -105 l 340 -105 l 340 -253 l 282 -454 l 221 -454 l 254 -259 l 181 -259 l 181 -105 m 505 233 q 288 -14 505 -14 q 123 56 178 -14 q 68 281 68 126 l 68 357 l 203 357 l 203 281 q 283 105 203 105 q 346 134 327 105 q 366 233 366 162 q 264 443 366 343 q 229 476 256 450 q 192 511 201 503 q 60 790 60 637 q 117 970 60 911 q 279 1029 174 1029 q 395 1000 350 1029 q 488 712 488 939 l 488 663 l 356 663 l 356 734 q 339 866 356 823 q 279 910 321 910 q 216 884 237 910 q 195 794 195 857 q 288 603 195 695 l 361 534 q 505 233 505 397 z "},"Ț":{"ha":429,"x_min":19,"x_max":413,"o":"m 123 -105 l 281 -105 l 281 -253 l 224 -454 l 163 -454 l 196 -259 l 123 -259 l 123 -105 m 19 1194 l 413 1194 l 413 1077 l 290 1077 l 290 0 l 151 0 l 151 1077 l 19 1077 l 19 1194 z "},"ț":{"ha":415,"x_min":31,"x_max":374,"o":"m 169 -105 l 328 -105 l 328 -253 l 270 -454 l 209 -454 l 242 -259 l 169 -259 l 169 -105 m 124 1194 l 263 1194 l 263 1009 l 373 1009 l 373 906 l 263 906 l 263 163 q 281 114 263 124 q 374 104 300 104 l 374 -6 l 279 -6 q 153 29 182 -6 q 124 151 124 64 l 124 906 l 31 906 l 31 1009 l 124 1009 l 124 1194 z "},"ȷ":{"ha":366,"x_min":54,"x_max":267,"o":"m 58 -4 q 78 -5 68 -5 q 94 -5 89 -5 q 127 41 127 -1 l 127 1017 l 267 1017 l 267 47 q 234 -69 267 -33 q 154 -108 201 -105 q 102 -109 139 -109 q 54 -102 65 -109 l 54 -4 l 58 -4 z "},"ˆ":{"ha":658,"x_min":146,"x_max":511,"o":"m 250 1279 l 408 1279 l 511 1080 l 387 1080 l 329 1219 l 271 1080 l 146 1080 l 250 1279 z "},"ˇ":{"ha":658,"x_min":146,"x_max":511,"o":"m 387 1279 l 511 1279 l 408 1080 l 250 1080 l 146 1279 l 271 1279 l 329 1140 l 387 1279 z "},"ˉ":{"ha":472,"x_min":61,"x_max":411,"o":"m 61 503 l 411 503 l 411 406 l 61 406 l 61 503 z "},"˘":{"ha":689,"x_min":184,"x_max":503,"o":"m 431 1259 l 503 1259 l 503 1250 q 463 1136 503 1176 q 343 1097 422 1097 q 224 1136 264 1097 q 184 1249 184 1175 l 184 1259 l 256 1259 q 344 1177 256 1177 q 407 1194 383 1177 q 431 1259 431 1211 z "},"˙":{"ha":388,"x_min":125,"x_max":269,"o":"m 125 395 l 269 395 l 269 275 l 125 275 l 125 395 z "},"˚":{"ha":626,"x_min":177,"x_max":448,"o":"m 313 269 q 281 269 313 269 q 213 306 250 269 q 177 396 177 342 q 213 486 177 449 q 313 523 250 523 q 412 486 376 523 q 448 396 448 449 q 412 306 448 342 q 313 269 376 269 m 368 341 q 377 352 368 341 q 387 396 387 364 q 368 451 387 428 q 313 475 348 475 q 259 451 279 475 q 240 396 240 428 q 259 341 240 364 q 313 317 279 317 q 368 341 348 317 z "},"˛":{"ha":688,"x_min":253,"x_max":551,"o":"m 438 0 l 496 0 q 397 -127 434 -60 q 360 -242 360 -195 q 461 -336 360 -336 q 551 -323 510 -336 l 551 -401 q 503 -416 537 -408 q 436 -425 468 -425 q 300 -382 347 -425 q 253 -268 253 -339 q 302 -123 253 -197 q 438 0 351 -49 z "},"˜":{"ha":758,"x_min":166,"x_max":590,"o":"m 166 334 q 214 419 184 397 q 281 441 244 441 q 385 416 318 441 q 466 391 452 391 l 469 391 q 489 402 480 393 q 507 439 497 411 l 590 420 l 584 395 q 543 308 567 330 q 484 286 519 286 q 384 314 448 286 q 300 342 319 342 q 270 339 281 342 q 241 300 260 337 l 166 334 z "},"˝":{"ha":882,"x_min":269,"x_max":720,"o":"m 467 342 l 592 624 l 720 559 l 527 311 l 467 342 m 269 342 l 355 624 l 481 565 l 330 317 l 269 342 z "},"̇":{"ha":388,"x_min":100,"x_max":288,"o":"m 100 486 l 288 486 l 288 311 l 100 311 l 100 486 z "},"̏":{"ha":559,"x_min":4,"x_max":446,"o":"m 4 1327 l 114 1395 l 248 1146 l 184 1112 l 4 1327 m 230 1327 l 337 1395 l 446 1146 l 382 1112 l 230 1327 z "},"̑":{"ha":689,"x_min":183,"x_max":502,"o":"m 183 1107 q 183 1112 183 1109 q 222 1223 183 1182 q 341 1263 262 1263 q 502 1114 499 1263 l 502 1104 l 430 1103 q 343 1183 429 1183 q 278 1165 302 1183 q 255 1102 255 1147 q 255 1099 255 1101 l 183 1098 l 183 1107 z "},"̦":{"ha":358,"x_min":98,"x_max":257,"o":"m 98 87 l 257 87 l 257 -61 l 199 -262 l 138 -262 l 172 -67 l 98 -67 l 98 87 z "},"Δ":{"ha":637,"x_min":45,"x_max":592,"o":"m 226 1194 l 395 1194 l 592 0 l 45 0 l 226 1194 m 443 114 l 314 972 l 312 972 l 194 114 l 443 114 z "},"μ":{"ha":659,"x_min":93,"x_max":557,"o":"m 418 1017 l 557 1017 l 557 0 l 418 0 l 418 104 q 362 19 401 52 q 263 -14 322 -14 q 229 -10 243 -14 l 229 -126 l 93 -126 l 93 1017 l 232 1017 l 232 227 q 319 107 232 107 q 393 141 368 107 q 418 231 418 175 l 418 1017 z "},"π":{"ha":327,"x_min":0,"x_max":0,"o":""},"Ḃ":{"ha":646,"x_min":109,"x_max":577,"o":"m 271 1412 l 415 1412 l 415 1291 l 271 1291 l 271 1412 m 109 1194 l 324 1194 q 508 1132 459 1194 q 557 925 556 1071 l 557 899 q 538 734 557 794 q 467 646 518 673 q 577 359 577 602 l 577 334 q 523 78 575 155 q 342 0 471 0 l 109 0 l 109 1194 m 436 380 q 417 541 436 495 q 342 587 398 587 l 249 587 l 249 113 l 335 113 q 415 160 395 113 q 436 338 436 207 l 436 380 m 418 923 q 418 927 418 925 q 377 1068 418 1046 q 318 1079 357 1079 l 249 1079 l 249 695 l 328 695 q 386 708 369 695 q 411 761 404 722 q 418 890 418 800 l 418 923 z "},"ḃ":{"ha":635,"x_min":100,"x_max":552,"o":"m 254 1410 l 398 1410 l 398 1289 l 254 1289 l 254 1410 m 100 1206 l 239 1206 l 239 937 q 287 1003 250 976 q 367 1029 324 1029 q 528 905 492 1029 q 552 705 552 825 l 552 314 q 500 52 552 125 q 377 -9 458 -9 q 239 85 278 -9 l 239 0 l 100 0 l 100 1206 m 412 724 q 403 850 412 825 q 382 895 394 876 q 339 913 370 913 q 293 906 309 913 q 239 723 239 882 l 239 311 q 257 152 239 200 q 328 104 276 104 q 396 152 380 104 q 412 314 412 199 l 412 724 z "},"Ḋ":{"ha":644,"x_min":97,"x_max":562,"o":"m 258 1412 l 402 1412 l 402 1291 l 258 1291 l 258 1412 m 97 1194 l 321 1194 q 510 1109 458 1194 q 562 869 562 1025 l 562 345 q 506 81 562 161 q 317 0 450 0 l 97 0 l 97 1194 m 422 873 q 395 1034 422 985 q 309 1082 369 1082 l 237 1082 l 237 113 l 309 113 q 372 130 349 113 q 422 323 422 165 l 422 873 z "},"ḋ":{"ha":636,"x_min":84,"x_max":537,"o":"m 239 1410 l 383 1410 l 383 1289 l 239 1289 l 239 1410 m 397 1206 l 537 1206 l 537 0 l 397 0 l 397 85 q 257 -9 359 -9 q 92 176 117 -9 q 84 326 84 238 l 84 710 q 144 970 84 894 q 278 1029 191 1029 q 348 1007 316 1029 q 397 949 380 985 l 397 1206 m 398 712 q 380 866 398 819 q 311 913 362 913 q 242 866 260 913 q 224 709 224 819 l 224 298 q 263 117 224 149 q 309 104 279 104 q 358 121 339 104 q 398 304 398 155 l 398 712 z "},"Ḟ":{"ha":506,"x_min":97,"x_max":456,"o":"m 205 1412 l 349 1412 l 349 1291 l 205 1291 l 205 1412 m 97 1194 l 456 1194 l 456 1076 l 237 1076 l 237 699 l 443 699 l 443 581 l 237 581 l 237 0 l 97 0 l 97 1194 z "},"ḟ":{"ha":422,"x_min":48,"x_max":394,"o":"m 221 1415 l 366 1415 l 366 1294 l 221 1294 l 221 1415 m 136 1027 q 293 1211 136 1211 q 394 1197 351 1211 l 394 1100 q 335 1104 367 1104 q 289 1087 303 1104 q 275 1033 275 1069 l 275 978 l 394 978 l 394 876 l 275 876 l 275 0 l 136 0 l 136 876 l 48 876 l 48 978 l 136 978 l 136 1027 z "},"Ṁ":{"ha":879,"x_min":98,"x_max":781,"o":"m 376 1385 l 520 1385 l 520 1265 l 376 1265 l 376 1385 m 606 1194 l 781 1194 l 781 0 l 656 0 l 656 479 l 668 925 l 506 2 l 379 2 l 210 925 l 222 479 l 222 0 l 98 0 l 98 1194 l 273 1194 l 444 212 l 606 1194 z "},"ṁ":{"ha":971,"x_min":100,"x_max":878,"o":"m 459 1209 l 604 1209 l 604 1088 l 459 1088 l 459 1209 m 239 911 q 295 997 253 963 q 397 1030 337 1030 q 541 927 505 1030 q 611 1002 567 975 q 713 1030 656 1030 q 836 972 794 1030 q 878 803 878 915 l 878 0 l 739 0 l 739 807 q 658 910 739 910 q 559 816 566 910 l 559 0 l 419 0 l 419 808 q 339 910 419 910 q 264 879 290 910 q 239 792 239 847 l 239 0 l 100 0 l 100 1017 l 239 1017 l 239 911 z "},"Ṗ":{"ha":604,"x_min":98,"x_max":563,"o":"m 242 1385 l 387 1385 l 387 1265 l 242 1265 l 242 1385 m 98 1194 l 338 1194 q 537 1062 496 1194 q 563 869 563 979 q 557 703 563 758 q 492 525 543 581 q 338 469 441 469 l 238 469 l 238 0 l 98 0 l 98 1194 m 422 857 q 403 1031 422 979 q 327 1082 384 1082 l 238 1082 l 238 585 l 323 585 q 403 637 383 585 q 422 833 422 690 l 422 857 z "},"ṗ":{"ha":636,"x_min":100,"x_max":553,"o":"m 254 1209 l 399 1209 l 399 1088 l 254 1088 l 254 1209 m 239 932 q 296 1003 258 979 q 378 1026 335 1026 q 532 900 500 1026 q 553 699 553 821 l 553 330 q 502 58 553 127 q 357 -12 450 -12 q 288 11 320 -12 q 239 68 256 34 l 239 -186 l 100 -186 l 100 1017 l 239 1017 l 239 932 m 413 723 q 413 736 413 730 q 413 747 413 742 q 413 758 413 753 q 413 766 413 762 q 413 774 413 770 q 404 850 413 826 q 386 888 395 876 q 335 913 368 913 q 282 900 301 913 q 239 723 239 871 l 239 306 q 257 151 239 198 q 327 104 276 104 q 396 152 378 104 q 413 311 413 199 l 413 723 z "},"Ṡ":{"ha":588,"x_min":72,"x_max":538,"o":"m 233 1385 l 378 1385 l 378 1264 l 233 1264 l 233 1385 m 84 824 q 72 926 72 867 q 120 1132 72 1056 q 302 1208 168 1208 q 507 1042 476 1208 q 521 861 521 970 l 521 790 l 387 790 l 387 870 q 375 1023 387 984 q 347 1076 363 1063 q 302 1088 330 1088 q 229 1051 252 1088 q 207 941 207 1014 q 227 833 207 867 q 277 769 248 800 q 311 734 307 738 l 392 648 q 538 304 538 494 q 491 68 538 150 q 309 -14 443 -14 q 103 129 146 -14 q 78 338 78 209 q 78 345 78 342 l 78 461 l 214 461 l 214 340 q 233 158 214 209 q 304 106 252 106 q 375 131 355 106 q 398 204 395 155 q 401 315 401 254 q 292 549 401 439 l 214 627 q 84 824 109 734 z "},"ṡ":{"ha":546,"x_min":60,"x_max":505,"o":"m 218 1209 l 363 1209 l 363 1088 l 218 1088 l 218 1209 m 505 233 q 288 -14 505 -14 q 123 56 178 -14 q 68 281 68 126 l 68 357 l 203 357 l 203 281 q 283 105 203 105 q 346 134 327 105 q 366 233 366 162 q 264 443 366 343 q 229 476 256 450 q 192 511 201 503 q 60 790 60 637 q 117 970 60 911 q 279 1029 174 1029 q 395 1000 350 1029 q 488 712 488 939 l 488 663 l 356 663 l 356 734 q 339 866 356 823 q 279 910 321 910 q 216 884 237 910 q 195 794 195 857 q 288 603 195 695 l 361 534 q 505 233 505 397 z "},"Ṫ":{"ha":432,"x_min":19,"x_max":413,"o":"m 144 1412 l 288 1412 l 288 1291 l 144 1291 l 144 1412 m 19 1194 l 413 1194 l 413 1077 l 290 1077 l 290 0 l 151 0 l 151 1077 l 19 1077 l 19 1194 z "},"ṫ":{"ha":415,"x_min":31,"x_max":374,"o":"m 121 1397 l 266 1397 l 266 1276 l 121 1276 l 121 1397 m 124 1194 l 263 1194 l 263 1009 l 373 1009 l 373 906 l 263 906 l 263 163 q 281 114 263 124 q 374 104 300 104 l 374 -6 l 279 -6 q 153 29 182 -6 q 124 151 124 64 l 124 906 l 31 906 l 31 1009 l 124 1009 l 124 1194 z "},"Ẁ":{"ha":922,"x_min":43,"x_max":879,"o":"m 342 1324 l 342 1467 l 594 1335 l 594 1260 l 342 1324 m 750 1194 l 879 1194 l 738 0 l 599 0 l 471 881 l 336 0 l 201 0 l 43 1194 l 173 1194 l 275 279 l 410 1194 l 525 1194 l 664 279 l 750 1194 z "},"ẁ":{"ha":787,"x_min":35,"x_max":751,"o":"m 275 1147 l 275 1291 l 526 1159 l 526 1084 l 275 1147 m 637 1017 l 751 1017 l 629 0 l 500 0 l 398 796 l 276 0 l 153 0 l 35 1017 l 151 1017 l 205 451 l 220 256 l 227 256 l 252 452 l 333 1017 l 454 1017 l 535 467 l 563 256 l 568 256 l 585 467 l 637 1017 z "},"Ẃ":{"ha":922,"x_min":43,"x_max":879,"o":"m 750 1194 l 879 1194 l 738 0 l 599 0 l 471 881 l 336 0 l 201 0 l 43 1194 l 173 1194 l 275 279 l 410 1194 l 525 1194 l 664 279 l 750 1194 m 345 1361 l 629 1479 l 629 1344 l 345 1286 l 345 1361 z "},"ẃ":{"ha":787,"x_min":35,"x_max":751,"o":"m 637 1017 l 751 1017 l 629 0 l 500 0 l 398 796 l 276 0 l 153 0 l 35 1017 l 151 1017 l 205 451 l 220 256 l 227 256 l 252 452 l 333 1017 l 454 1017 l 535 467 l 563 256 l 568 256 l 585 467 l 637 1017 m 269 1185 l 553 1303 l 553 1168 l 269 1109 l 269 1185 z "},"Ẅ":{"ha":922,"x_min":43,"x_max":879,"o":"m 750 1194 l 879 1194 l 738 0 l 599 0 l 471 881 l 336 0 l 201 0 l 43 1194 l 173 1194 l 275 279 l 410 1194 l 525 1194 l 664 279 l 750 1194 m 559 1394 l 715 1394 l 715 1274 l 559 1274 l 559 1394 m 231 1394 l 387 1394 l 387 1274 l 231 1274 l 231 1394 z "},"ẅ":{"ha":787,"x_min":35,"x_max":751,"o":"m 637 1017 l 751 1017 l 629 0 l 500 0 l 398 796 l 276 0 l 153 0 l 35 1017 l 151 1017 l 205 451 l 220 256 l 227 256 l 252 452 l 333 1017 l 454 1017 l 535 467 l 563 256 l 568 256 l 585 467 l 637 1017 m 484 1218 l 640 1218 l 640 1097 l 484 1097 l 484 1218 m 156 1218 l 312 1218 l 312 1097 l 156 1097 l 156 1218 z "},"Ỳ":{"ha":567,"x_min":14,"x_max":554,"o":"m 164 1324 l 164 1467 l 416 1335 l 416 1260 l 164 1324 m 416 1194 l 554 1194 l 361 501 l 361 0 l 221 0 l 221 501 l 14 1194 l 150 1194 l 291 705 l 294 705 l 416 1194 z "},"ỳ":{"ha":536,"x_min":35,"x_max":513,"o":"m 150 1147 l 150 1291 l 401 1159 l 401 1084 l 150 1147 m 378 1017 l 513 1017 l 344 -20 q 313 -130 332 -104 q 271 -163 294 -156 q 210 -170 248 -170 l 74 -170 l 74 -65 l 122 -65 q 201 -49 193 -65 q 207 -20 207 -41 q 201 36 207 2 l 35 1017 l 170 1017 l 243 488 l 273 213 l 286 213 l 312 488 l 378 1017 z "},"–":{"ha":513,"x_min":81,"x_max":431,"o":"m 81 503 l 431 503 l 431 345 l 81 345 l 81 503 z "},"—":{"ha":782,"x_min":41,"x_max":741,"o":"m 41 503 l 741 503 l 741 387 l 41 387 l 41 503 z "},"‘":{"ha":401,"x_min":98,"x_max":307,"o":"m 182 1206 l 269 1206 l 207 920 l 307 920 l 307 757 l 98 757 l 98 913 l 182 1206 z "},"’":{"ha":401,"x_min":109,"x_max":318,"o":"m 109 1206 l 318 1206 l 318 1050 l 233 757 l 146 757 l 208 1044 l 109 1044 l 109 1206 z "},"‚":{"ha":328,"x_min":66,"x_max":271,"o":"m 66 157 l 271 157 l 271 6 l 193 -259 l 103 -259 l 161 0 l 66 0 l 66 157 z "},"“":{"ha":699,"x_min":108,"x_max":622,"o":"m 495 1206 l 585 1206 l 526 935 l 622 935 l 622 777 l 417 777 l 417 928 l 495 1206 m 185 1206 l 275 1206 l 217 935 l 313 935 l 313 777 l 108 777 l 108 928 l 185 1206 z "},"”":{"ha":730,"x_min":117,"x_max":632,"o":"m 427 1206 l 632 1206 l 632 1055 l 554 777 l 464 777 l 522 1048 l 427 1048 l 427 1206 m 117 1206 l 322 1206 l 322 1055 l 245 777 l 155 777 l 213 1048 l 117 1048 l 117 1206 z "},"„":{"ha":689,"x_min":113,"x_max":627,"o":"m 422 158 l 627 158 l 627 6 l 549 -272 l 459 -272 l 517 0 l 422 0 l 422 158 m 113 158 l 317 158 l 317 6 l 239 -272 l 150 -272 l 208 0 l 113 0 l 113 158 z "},"†":{"ha":616,"x_min":62,"x_max":555,"o":"m 239 1080 l 380 1080 l 380 802 l 555 802 l 555 690 l 380 690 l 380 0 l 239 0 l 239 690 l 62 690 l 62 802 l 239 802 l 239 1080 z "},"‡":{"ha":629,"x_min":62,"x_max":555,"o":"m 239 1080 l 380 1080 l 380 802 l 555 802 l 555 690 l 380 690 l 380 453 l 555 453 l 555 341 l 380 341 l 380 0 l 239 0 l 239 341 l 62 341 l 62 453 l 239 453 l 239 690 l 62 690 l 62 802 l 239 802 l 239 1080 z "},"•":{"ha":584,"x_min":134,"x_max":450,"o":"m 174 373 q 154 396 174 373 q 134 503 134 418 q 174 632 134 587 q 292 677 215 677 q 410 632 369 677 q 450 503 450 587 q 410 373 450 418 q 292 328 369 328 q 174 373 215 328 z "},"‰":{"ha":2063,"x_min":106,"x_max":1957,"o":"m 922 1194 l 1038 1194 l 564 0 l 442 0 l 922 1194 m 401 972 q 383 1072 401 1045 q 316 1099 366 1099 q 249 1072 267 1099 q 231 972 231 1044 l 231 635 q 249 532 231 561 q 316 503 267 503 q 383 532 365 503 q 401 635 401 561 l 401 972 m 106 925 q 152 1146 106 1084 q 316 1208 198 1208 q 481 1146 435 1208 q 527 925 527 1084 l 527 684 q 480 458 527 523 q 316 394 433 394 q 153 458 199 394 q 106 684 106 523 l 106 925 m 1257 564 q 1240 665 1257 637 q 1173 692 1222 692 q 1105 664 1123 692 q 1088 564 1088 637 l 1088 228 q 1106 124 1088 153 q 1173 96 1124 96 q 1239 124 1221 96 q 1257 228 1257 153 l 1257 564 m 962 517 q 1008 739 962 676 q 1173 801 1055 801 q 1337 739 1291 801 q 1383 517 1383 676 l 1383 277 q 1337 51 1383 115 q 1173 -14 1290 -14 q 1009 51 1056 -14 q 962 277 962 115 l 962 517 m 1536 517 q 1582 739 1536 676 q 1747 801 1628 801 q 1911 739 1865 801 q 1957 517 1957 676 l 1957 277 q 1910 51 1957 115 q 1747 -14 1864 -14 q 1583 51 1630 -14 q 1536 277 1536 115 l 1536 517 m 1832 564 q 1814 665 1832 637 q 1747 692 1796 692 q 1680 664 1697 692 q 1662 564 1662 637 l 1662 228 q 1680 124 1662 153 q 1747 96 1698 96 q 1814 124 1796 96 q 1832 228 1832 153 l 1832 564 z "},"‹":{"ha":411,"x_min":47,"x_max":372,"o":"m 47 569 l 372 753 l 372 612 l 160 508 l 372 397 l 372 252 l 47 446 l 47 569 z "},"›":{"ha":493,"x_min":104,"x_max":428,"o":"m 104 612 l 104 753 l 428 569 l 428 446 l 104 252 l 104 397 l 315 508 l 104 612 z "},"⁄":{"ha":562,"x_min":52,"x_max":481,"o":"m 360 1199 l 481 1199 l 172 0 l 52 0 l 360 1199 z "},"⁴":{"ha":580,"x_min":127,"x_max":482,"o":"m 304 1194 l 420 1194 l 420 621 l 482 621 l 482 545 l 420 545 l 420 393 l 328 393 l 328 545 l 127 545 l 127 610 l 304 1194 m 328 621 l 328 1035 l 214 621 l 328 621 z "},"€":{"ha":730,"x_min":16,"x_max":550,"o":"m 84 849 q 106 1048 84 985 q 155 1142 129 1112 q 323 1208 213 1207 q 523 1072 478 1207 q 549 864 549 994 l 549 732 l 411 732 l 411 865 q 398 1020 411 979 q 368 1073 386 1060 q 323 1086 351 1086 q 246 1033 267 1086 q 224 865 224 980 l 224 750 l 351 750 l 351 655 l 224 655 l 224 589 l 351 589 l 351 489 l 224 489 l 224 349 q 244 159 224 213 q 318 105 263 105 q 392 159 374 105 q 411 349 411 214 l 411 481 l 550 481 l 550 351 q 499 74 550 163 q 320 -14 448 -14 q 138 77 193 -14 q 84 352 84 168 l 84 489 l 16 489 l 16 589 l 84 589 l 84 655 l 16 655 l 16 750 l 84 750 l 84 849 z "},"™":{"ha":1042,"x_min":70,"x_max":958,"o":"m 818 1194 l 958 1194 l 958 323 l 863 323 l 863 679 l 871 1016 l 756 323 l 655 323 l 535 1016 l 543 679 l 543 323 l 448 323 l 448 1194 l 589 1194 l 705 486 l 818 1194 m 70 1194 l 360 1194 l 360 1109 l 270 1109 l 270 323 l 167 323 l 167 1109 l 70 1109 l 70 1194 z "},"∂":{"ha":727,"x_min":110,"x_max":589,"o":"m 398 1021 q 392 1024 398 1021 q 370 1028 386 1026 q 317 1031 355 1031 q 192 1008 280 1031 l 176 1090 q 347 1120 288 1120 q 435 1114 406 1120 q 575 990 546 1092 q 589 884 589 942 q 576 745 589 825 l 509 167 q 455 41 500 97 q 302 -14 410 -14 q 110 210 110 -14 q 138 536 110 382 q 256 725 167 691 q 313 736 288 736 q 346 736 338 736 q 362 734 353 736 q 375 732 370 732 q 390 728 380 731 q 405 723 401 724 q 424 717 410 722 q 444 710 437 712 q 464 875 464 842 q 463 923 464 909 q 458 950 461 937 q 450 974 455 963 q 437 994 445 985 q 420 1010 430 1003 q 398 1021 410 1017 m 238 208 l 237 201 q 308 98 237 98 q 357 107 349 98 q 374 133 365 117 q 387 196 383 149 l 429 610 q 350 637 385 637 q 267 519 279 637 l 239 234 l 238 217 l 238 208 z "},"∏":{"ha":665,"x_min":99,"x_max":566,"o":"m 99 1194 l 566 1194 l 566 0 l 428 0 l 428 1084 l 237 1084 l 237 0 l 99 0 l 99 1194 z "},"∑":{"ha":486,"x_min":79,"x_max":450,"o":"m 79 1194 l 450 1194 l 450 1072 l 237 1072 l 399 597 l 237 125 l 450 125 l 450 0 l 79 0 l 79 123 l 245 597 l 79 1075 l 79 1194 z "},"−":{"ha":432,"x_min":41,"x_max":391,"o":"m 41 503 l 391 503 l 391 345 l 41 345 l 41 503 z "},"∕":{"ha":562,"x_min":52,"x_max":481,"o":"m 360 1199 l 481 1199 l 172 0 l 52 0 l 360 1199 z "},"√":{"ha":798,"x_min":67,"x_max":734,"o":"m 460 1017 l 734 1017 l 734 922 l 595 922 l 418 0 l 246 0 l 67 503 l 222 503 l 324 175 l 460 1017 z "},"∞":{"ha":882,"x_min":73,"x_max":802,"o":"m 433 600 q 523 677 472 648 q 618 706 574 706 q 751 651 701 706 q 802 504 802 595 q 751 355 802 412 q 618 298 701 298 q 519 325 570 298 q 433 397 469 352 q 347 331 397 356 q 251 307 297 307 q 122 361 171 307 q 73 504 73 416 q 122 644 73 591 q 251 697 171 697 q 344 670 294 697 q 433 600 394 644 m 399 502 q 331 573 371 546 q 255 600 292 600 q 198 573 219 600 q 177 502 177 546 q 198 430 177 457 q 255 403 219 403 q 331 430 291 403 q 399 502 370 457 m 677 430 q 688 444 677 430 q 699 502 699 457 q 677 574 699 547 q 616 601 654 601 q 536 574 578 601 q 465 502 494 547 q 534 430 492 457 q 615 403 576 403 q 677 430 654 403 z "},"∫":{"ha":520,"x_min":78,"x_max":442,"o":"m 78 106 l 113 104 q 179 124 165 104 q 194 207 194 144 l 194 1044 q 328 1211 194 1211 q 442 1188 382 1211 l 442 1087 q 374 1100 399 1100 q 337 1081 349 1100 q 326 1019 326 1062 l 326 150 q 183 -10 326 -10 q 78 5 134 -10 l 78 106 z "},"≈":{"ha":758,"x_min":81,"x_max":679,"o":"m 237 780 q 378 750 275 780 q 492 721 479 721 q 492 721 492 721 q 568 798 545 721 l 679 770 q 617 634 659 692 q 530 575 575 575 q 383 606 484 575 q 245 637 281 637 q 182 574 209 637 l 81 627 q 237 780 134 780 m 237 477 q 378 448 275 477 q 492 418 479 418 q 492 418 492 418 q 568 496 545 418 l 679 467 q 617 331 659 390 q 530 273 575 273 q 383 304 484 273 q 245 335 281 335 q 182 272 209 335 l 81 325 q 237 477 134 477 z "},"≠":{"ha":600,"x_min":57,"x_max":481,"o":"m 57 498 l 453 498 l 453 391 l 57 391 l 57 498 m 57 712 l 453 712 l 453 605 l 57 605 l 57 712 m 357 1199 l 481 1199 l 182 0 l 59 0 l 357 1199 z "},"≤":{"ha":530,"x_min":47,"x_max":439,"o":"m 47 595 l 439 854 l 439 705 l 144 525 l 439 336 l 439 191 l 47 452 l 47 595 m 69 98 l 435 98 l 435 0 l 69 0 l 69 98 z "},"≥":{"ha":530,"x_min":70,"x_max":461,"o":"m 70 705 l 70 854 l 461 595 l 461 452 l 70 191 l 70 336 l 363 525 l 70 705 m 71 98 l 437 98 l 437 0 l 71 0 l 71 98 z "},"◊":{"ha":625,"x_min":50,"x_max":574,"o":"m 201 1103 l 419 1103 l 574 585 l 419 75 l 201 75 l 50 585 l 201 1103 m 427 585 l 322 975 l 300 975 l 196 585 l 300 196 l 322 196 l 427 585 z "},"":{"ha":222,"x_min":0,"x_max":0,"o":""},"ﬀ":{"ha":845,"x_min":48,"x_max":817,"o":"m 558 1027 q 715 1211 558 1211 q 817 1197 774 1211 l 817 1100 q 758 1104 789 1104 q 711 1087 726 1104 q 697 1033 697 1069 l 697 978 l 817 978 l 817 876 l 697 876 l 697 0 l 558 0 l 558 876 l 275 876 l 275 0 l 136 0 l 136 876 l 48 876 l 48 978 l 136 978 l 136 1027 q 293 1211 136 1211 q 394 1197 351 1211 l 394 1100 q 335 1104 367 1104 q 289 1087 303 1104 q 275 1033 275 1069 l 275 978 l 558 978 l 558 1027 z "},"ﬁ":{"ha":764,"x_min":48,"x_max":663,"o":"m 136 1041 q 293 1225 136 1225 q 394 1211 351 1225 l 394 1114 q 335 1118 367 1118 q 289 1100 303 1118 q 275 1046 275 1083 l 275 1017 l 663 1017 l 663 0 l 524 0 l 524 915 l 275 915 l 275 0 l 136 0 l 136 915 l 48 915 l 48 1017 l 136 1017 l 136 1041 m 524 1221 l 663 1221 l 663 1093 l 524 1093 l 524 1221 z "},"ﬂ":{"ha":762,"x_min":48,"x_max":662,"o":"m 136 1027 q 199 1171 136 1124 q 368 1218 263 1218 q 462 1210 412 1218 q 662 1170 513 1202 l 662 0 l 523 0 l 523 1100 q 403 1114 458 1114 q 275 1033 275 1114 l 275 978 l 394 978 l 394 876 l 275 876 l 275 0 l 136 0 l 136 876 l 48 876 l 48 978 l 136 978 l 136 1027 z "},"ﬃ":{"ha":1186,"x_min":48,"x_max":1086,"o":"m 558 1049 q 715 1233 558 1233 q 817 1219 774 1233 l 817 1122 q 758 1126 789 1126 q 711 1108 726 1126 q 697 1055 697 1091 l 697 1017 l 1086 1017 l 1086 0 l 947 0 l 947 915 l 697 915 l 697 0 l 558 0 l 558 915 l 275 915 l 275 0 l 136 0 l 136 915 l 48 915 l 48 1017 l 136 1017 l 136 1049 q 293 1233 136 1233 q 394 1219 351 1233 l 394 1122 q 335 1126 367 1126 q 289 1108 303 1126 q 275 1055 275 1091 l 275 1017 l 558 1017 l 558 1049 m 947 1221 l 1086 1221 l 1086 1093 l 947 1093 l 947 1221 z "},"ﬄ":{"ha":1185,"x_min":48,"x_max":1084,"o":"m 558 1027 q 622 1171 558 1124 q 791 1218 686 1218 q 885 1210 834 1218 q 1084 1170 935 1202 l 1084 0 l 945 0 l 945 1100 q 825 1114 880 1114 q 697 1033 697 1114 l 697 978 l 817 978 l 817 876 l 697 876 l 697 0 l 558 0 l 558 876 l 275 876 l 275 0 l 136 0 l 136 876 l 48 876 l 48 978 l 136 978 l 136 1027 q 293 1211 136 1211 q 394 1197 351 1211 l 394 1100 q 335 1104 367 1104 q 289 1087 303 1104 q 275 1033 275 1069 l 275 978 l 558 978 l 558 1027 z "}}}
